<svg width="127" height="128" fill="none" xmlns="http://www.w3.org/2000/svg"><path fill-rule="evenodd" clip-rule="evenodd" d="M81.463 105.238l.033.032c-.002-.002-.043-.022-.033-.032zM37.456 7.424l.032-.033c-.002.002-.043.022-.032.033zm26.098 98.25l.033-.032c-.002.002-.043.021-.033.032zm-10.373-79.91l.032-.033c-.002.002-.043.022-.032.033zm31.012 78.164l.033-.033c-.002.002-.043.022-.033.033zM49.25 49.781l.033-.033c-.002.002-.043.022-.033.033zm73.82 28.056l.032-.033c-.002.002-.043.022-.032.033zM88.125 59.169l.032-.032c-.002.002-.043.021-.032.032zm33.415-10.37l.032-.033c-.002.002-.043.021-.032.032zm1.529 32.531l.032-.033c-.002.003-.043.022-.032.033zM3.604 46.397l.032-.033c-.002.002-.043.022-.032.033zM53.727 2.62l.032-.032c-.002.002-.043.022-.032.032zm60.606 93.447l.032-.032c-.002.002-.043.022-.032.032zM46.301 62.444l.032-.033c-.002.003-.043.022-.032.033zM23.587 86.57l.033-.033c-.002.003-.044.022-.033.033zm72.4 31.44l.033-.033c-.002.003-.044.022-.033.033zM46.192 49.125l.032-.032c-.002.002-.043.022-.032.032zm-2.949 25.982l.033-.032c-.002.002-.044.021-.033.032zM3.385 78.71l.033-.033c-.002.002-.043.022-.033.033zm50.233-17.794l.032-.033c-.002.002-.043.022-.032.033zm68.905-18.122l.032-.033c-.002.002-.043.022-.032.033zm-38.875 5.349l.032-.032c-.002.002-.043.021-.032.032zm-17.69 57.095l.032-.033c-.002.002-.044.022-.033.033zm14.304-52.4l.033-.033c-.002.002-.044.022-.033.032zm-16.707.545l.032-.033c-.002.003-.043.022-.032.033zm8.408-1.419l.033-.033c-.003.003-.044.022-.033.033zm-31.45 3.602l.033-.032c-.002.002-.043.022-.032.032zm2.403 0l.032-.032c-.002.002-.043.022-.032.032zm80.262 22.489l.033-.033c-.003.003-.044.022-.033.033zM5.569 81.658l.033-.033c-.002.002-.043.022-.033.033zm78.734-18.34l.032-.033c-.002.002-.043.022-.032.033zm-43.79 6.44l.033-.032c-.002.002-.044.022-.033.032zm1.42-3.493l.032-.033c-.002.003-.043.022-.032.033zm52.744 52.728l.032-.033c-.002.002-.043.022-.032.033zM17.254 25.327l.032-.032c-.002.002-.043.021-.032.032zm58.531 40.829l.032-.033c-.002.002-.043.022-.032.033zM12.34 42.03l.032-.033c-.002.002-.043.022-.033.033zm80.043 78.6l.033-.032c-.002.002-.043.022-.033.032zM17.581 20.742l.033-.032c-.003.002-.044.021-.033.032zM77.532 2.074l.033-.032c-.003.002-.044.022-.033.032zM47.065 5.022l.033-.032c-.002.002-.044.021-.033.032zM25.335 23.69l.032-.033c-.002.002-.044.022-.033.033zm23.15-20.196l.032-.033c-.002.002-.043.022-.032.033zM51.87 11.9l.033-.033c-.003.002-.044.022-.033.033zm18.346 96.394l.032-.032c-.002.002-.043.022-.032.032zm3.93-67.793l.033-.032c-.002.002-.043.022-.032.032zM13.105 96.069l.032-.033c-.002.002-.043.022-.032.033zM4.149 69.977l.033-.033c-.002.002-.043.022-.033.033zM121.976 41.92l.033-.033c-.002.002-.043.022-.033.033zM4.259 77.837l.032-.033c-.002.002-.043.022-.032.033zM122.74 45.414l.032-.033c-.002.003-.043.022-.032.033zm-78.188 28.93l.033-.033c-.002.002-.044.022-.033.032zm54.055 32.64l.032-.032c-.002.002-.043.022-.032.032zM1.638 59.278l.032-.032c-.002.002-.043.021-.032.032zm78.733-2.947l.033-.033c-.003.002-.044.022-.033.033zM41.933 37.663l.032-.032c-.002.002-.043.022-.032.032zm-11.248-23.69l.032-.032c-.002.002-.043.022-.032.033zM122.85 44.65l.032-.033c-.002.003-.043.022-.032.033zM12.12 33.296l.033-.032c-.002.002-.043.022-.032.032zm-.982-3.82l.033-.033c-.003.002-.044.022-.033.033zm46.628 18.558l.033-.032c-.002.002-.044.021-.033.032zm-8.845 1.638l.033-.033c-.002.002-.044.022-.033.033zm73.055-7.533l.033-.033c-.002.003-.044.022-.033.033zM31.777 12.664l.032-.033c-.002.002-.043.022-.032.033zm38.002 32.422l.032-.032c-.002.002-.043.022-.032.032zm-18.892 3.93l.033-.032c-.003.002-.044.022-.033.032zM83.101 5.35l.033-.032c-.002.002-.043.022-.033.032zm-44.335.874l.033-.033c-.003.002-.044.022-.033.033zm-22.168 89.19l.033-.033c-.002.002-.044.022-.033.032zm30.03-17.686l.033-.032c-.002.002-.044.021-.033.032zm43.353 41.266l.032-.033c-.002.002-.043.022-.032.033zM71.744 75.107l.033-.032c-.002.002-.044.021-.033.032zm-23.26 27.183l.033-.033c-.002.003-.043.022-.032.033zM32.76 87.006l.032-.032c-.002.002-.043.022-.032.032zm60.606 31.004l.033-.033c-.003.003-.044.022-.033.033zM51.652.983l.032-.033c-.002.002-.043.022-.032.033zm-4.368 47.27l.032-.033c-.002.002-.043.021-.032.032zm-33.525-1.966l.033-.033c-.002.003-.044.022-.033.033zm66.612 77.727l.033-.032c-.002.002-.043.021-.033.032zm2.403-76.745l.032-.032c-.002.002-.043.022-.032.032zM12.12 29.803l.033-.033c-.003.003-.044.022-.033.033zM60.388 3.712l.032-.033c-.002.002-.043.022-.032.033zM34.725 117.355l.033-.033c-.002.003-.043.022-.033.033zm23.26 9.279l.033-.032c-.002.002-.044.021-.033.032zm-2.948-61.243c.01.011.032-.048.032-.032-.002.002-.043.021-.032.032zm0 58.732c.01.011.032-.048.032-.032-.002.002-.043.022-.032.032zm3.931-41.374c.01.01.033-.048.033-.033-.003.003-.044.022-.033.033zm31.996 34.497c.01.01.032-.048.032-.033-.002.002-.043.022-.032.033zm8.954-3.603c.01.011.032-.048.033-.032-.002.002-.044.021-.033.032zm.437-91.591c.011.01.032-.048.032-.033-.002.002-.043.022-.032.033zm-42.152 30.02c.011.011.033-.047.033-.032-.002.002-.043.022-.033.033zM38.001 74.235c.011.01.033-.048.033-.033-.002.002-.043.022-.033.033zm61.59 39.409c.01.011.032-.048.032-.032-.002.002-.043.021-.033.032zM60.168 67.356c.01.011.033-.048.033-.032-.003.002-.044.021-.033.032zm-6.552-16.593c.01.01.033-.048.033-.033-.002.002-.044.022-.033.033zm30.03 1.965c.011.01.033-.048.033-.033-.003.002-.044.022-.033.033zm2.949 8.406c.01.01.032-.048.032-.033-.002.002-.043.022-.032.033zm13.759 51.636c.011.011.032-.048.033-.033-.003.002-.044.022-.033.033zM94.13 65.064c.01.01.032-.048.032-.033-.002.002-.043.022-.032.033zM60.169 42.357c.011.01.033-.048.033-.033-.002.002-.044.022-.033.033zm6.552 42.684c.011.011.033-.048.033-.032-.002.002-.044.022-.033.032zm16.271-23.58c.011.01.033-.048.033-.032-.002.002-.044.021-.033.032zm10.593 57.75c.01.01.032-.048.032-.033-.002.002-.043.022-.032.033zm20.638-50.217c.011.01.033-.048.033-.033-.002.002-.043.022-.033.033zM92.056 10.589c.01.011.032-.048.032-.032-.002.002-.043.021-.032.032zm-29.048 97.377c.011.011.033-.047.033-.032-.002.002-.043.022-.033.032zm39.968-11.79c.01.011.032-.047.032-.032-.002.002-.043.021-.032.032zM40.513 71.614c.01.01.033-.048.033-.033-.002.002-.044.022-.033.033zm27.519 4.912c.01.011.032-.048.032-.032-.002.002-.043.022-.032.032zm-7.317 17.685c.011.011.033-.048.033-.032-.002.002-.044.022-.033.032zm43.79-14.737c.01.01.032-.048.032-.033-.002.002-.043.022-.032.033zm9.828-50.654c.01.01.032-.048.032-.032-.002.002-.043.021-.032.032zM76.986 1.965c.011.01.033-.048.033-.033-.003.003-.044.022-.033.033zM52.962 124.123c.011.011.033-.048.033-.032-.002.002-.044.021-.033.032zm4.914-84.714c.01.011.033-.048.033-.032-.002.002-.044.021-.033.032zm53.727-4.367c.01.011.032-.047.032-.032-.002.002-.043.022-.032.032zM2.621 46.287c.01.01.032-.048.032-.033-.002.002-.043.022-.032.033zm69.342 2.947c.01.011.032-.048.033-.032-.003.002-.044.022-.033.032zm5.35-2.292c.012.01.033-.048.033-.033-.002.002-.043.022-.032.033zM75.349 99.67c.01.01.033-.048.033-.033-.002.002-.044.022-.033.033zm-17.69-40.392c.01.01.032-.048.032-.033-.002.002-.043.022-.032.033zm25.225 37.226c.01.01.032-.048.033-.033-.003.002-.044.022-.033.033zM60.279 21.288c.01.01.032-.048.032-.033-.002.002-.043.022-.032.033zm47.829 67.028c.011.011.033-.048.033-.032-.002.002-.044.021-.033.032zm-33.415 37.445c.01.01.032-.048.032-.033-.002.002-.043.022-.032.033zm50.669-46.287c.011.01.033-.048.033-.033-.003.002-.044.022-.033.033zM62.026 108.62c.01.011.032-.048.032-.032-.002.002-.043.021-.032.032zm25.116-48.252c.01.011.032-.047.032-.032-.002.002-.043.022-.032.032zM75.894 76.09c.011.011.033-.047.033-.032-.002.002-.044.022-.033.032zm26.099-5.349c.011.011.033-.048.033-.032-.003.002-.044.021-.033.032zM68.25 76.635c.011.011.033-.048.033-.032-.002.002-.044.022-.033.032zm1.42 33.405c.01.011.032-.048.032-.032-.002.002-.043.022-.032.032zM79.389 2.183c.01.011.032-.048.032-.032-.002.002-.043.021-.032.032zm-39.75 68.011l.037.037.014-.019-.05-.017zm38.002-27.837v-.11l.11.11h-.11zm0-.11l-.109.11c-.297-.07-.35-.115-.623-.251l-1.224-.632c-.186-.084-.062-.04-.286-.151-.153-.077-.247-.108-.376-.17l-2.078-1.061a.202.202 0 01-.011-.032l.012-.105c-.396.084-.15.11-.513-.03l-.831-.361c-.204-.14-.185-.283-.185-.919.394.009.21 0 .458.088l.45.206c.58.27.483.342 1.086.66.206.11.255.139.414.241.064.042.348.23.399.256l2.863 1.723c.485.298.319.077.554.428zm-32.76 32.096v-.11l-.127.091.127.019c-.176.153-.348.304-.546.436-.148-.078-.21-.09-.343-.202-.374-.314-.345-.831-.53-1.217.431-.115.357-.237.888-.421.226-.078.163 0 .422-.125 0 .575.163.915.18 1.139.002.027.006.058.006.084l-.077.306zm50.123-31.877h.11l-.092-.127-.018.127c-.41-.217-.816-.505-1.31-.546V16.811c0-3.512.449-2.641-2.078-4.15-.631-.377-1.599.142-2.228.315l-6.711 1.992c-.359.112-.747.238-1.177.351l-.914.288c-.138.047-.218.065-.335.102l-.862.23c-.031.006-.06.01-.091.017l-1.547.419-.889 3.668c-.031.105-.027.1-.05.188l-.239 1.187c-.432 1.807-.991 3.736-1.32 5.56-.047.262-.054.397-.1.558l-.216.904c-.052.453-.885 4.12-1.118 4.627-.13.282.076.177-.109.12-.285.01-.33.27-.047-1.248l1.305-8.32c.12-1.575.599-2.911.599-4.515l-1.414-.77c-1.471-.863-1.8-.223-3.347.16-1.16.286-2.118.724-3.28.968l-4.046 1.204c-.511.135-.637.026-.69.512-1.393-.031-.559-.172-2.087.315l-2.032.59c-.77.282-1.541.37-2.096.626-.873.403-4.56 1.225-5.674 1.649-.563.215-1.127.272-1.676.507-.814.35-1.74.571-2.599.787l-7.466 2.175c-.424.16-.502.445-.657.845l-1.994 6.851c-.007.018-.022.048-.027.064l-.01.22-2.197 7.409c-.072.225-.123.564-.19.793l-1.08 3.512c-.26.55-.373 1.285-.587 1.917-.312.92-.697 1.876-.833 2.878-.18 1.323-.026 5.66-.026 7.289.35.093.187.069.504.26.405.245 1.26.796 1.68.831-.042.499-.536.725-.914 1.052l-5.21 4.616-.059.05-.059.05c-1.604 1.426-1.139 1-3.586 1H13.759l-2.543 16.344c-.178 1.076-.325 2.26-.544 3.386l-1.062 6.69 1.052.694c.447.346 1.753 1.376 2.296 1.247l2.533-1.085c1.026-.415 3.137-1.16 4.19-1.384l5.521-1.352c1.247-.296 2.422-.39 3.498-.602l.986-.155c.259-.027.449-.116.723-.168.521-.1.514-.088.713.184-.855 0-1.545.306-2.388.45-.413.072-.678.172-1.167.242l-.22.027-1.967.559c-.022.01-.193.073-.21.079l-9.462 3.539c-.287.116-.41.07-.622.141-.465.155-.006-.08-.411.354-.195.21-.209.214-.479.286l1.566 1.255c1.607.712.363 1.24 3.75-.42.215-.106.224-.128.46-.188.214-.055.268-.032.345-.068l2.442-1.08c.795-.294 1.62-.476 2.353-.813.645-.296 1.894-.651 2.516-.651-.283.246-2.17.881-2.647 1.067l-.164.059-.08.032c-1.73.732-3.564 1.592-5.221 2.522-.25.14-.385.222-.649.342l-.403.192c-.07.047-.308.11-.555.37.18.27.42.398.695.616l.383.272c.157.095.298.171.47.295 1.6 1.168 1.252 1.459 2.668.521l5.517-3.218c1.308-.671 2.724-1.234 4.105-1.79l.85-.351c1.812-.609 3.564-1.337 5.415-1.794.476-.118.098-.054.645-.009 0 .719.114 1.056.11 1.856-.017 3.356.063 6.831-.11 10.153-.03.581-.292 1.313.11 1.746.15.164.376.35.58.403.619.163.415-.195.839.253-.01-.45-.067-.416-.08-.886l-.023-.428c-.04-.782.042-1.887.212-2.616.015.023.029.035.033.075.005.041.026.06.032.078.177.519.156 1.046.154 1.593l.109 1.965c1.606 0 1.42-.661 1.42-2.183-.002-1.29-.06-2.592.397-3.849.19-.526.431-1.543.691-2.049l.73-1.094c.01-.01.03-.034.038-.044l.034-.043c.152-.182.283-.363.551-.4.662-.093.661.503.625 1.147-.07 1.228-1.2 2.036-2.302 2.293.02.877.645 1.966.971 2.691.224.497 1.323 2.754 2.602 2.532.584-.102 1.406-.939 1.56-1.512-.77-.179-.939-.171-1.47-.715-.067-.068-.115-.102-.23-.215l-.261-.342c-.084-.238-.092.048-.005-.147.198-.07-.064-.12.153.075.282.253.389.491.759.654 1.313.58 3.021-.974 3.128-2.257h.328c0 .658.106 1.184.223 1.742.142.679.291.94.868 1.214 1.194.568.547-.519.547-2.738.133-.209.109-.532.109-.764h.11c0 .701.259 3.28.495 3.653.253.401 1.175.252 1.431-.089.3-.4.034-1.276.034-1.926 0-1.173.396-3.801.93-4.86.3-.593.575-1.178 1.368-1.363.228.34.26.39.122 1.096l-.288 1.347c-.065.502.046.056.031.6-.007.268-.071.36-.087.775-.027.681.014.942.155 1.489.284 1.1.721 3.077 2.204 2.622.261-.08.793-.533.92-.724-.128-.48-.999-.958-1.31-2.292h.328c.078.942 1.101 1.574 1.97 1.207l.559-.317c.137-.092.105-.067.186-.141.608-.549 1.005-.834 1.398-1.554.238-.435.138-.507.036-.942-.575-.134-.777-.017-1.174.354-.403.376-.472.519-1.228.519-.186-.512-.502-.11-.44-2.186.019-.66.26-1.832.544-2.51.225-.536.9-1.904.64-2.37-.193-.347-.514-.395-.853-.575l-.5.81c-.014.031-.054.12-.069.15-.1.19-.006.017-.12.207l-.307.676c-.024.07-.07.222-.127.31-.14.211-.044.157-.297.249.01-.431-.005-.267.101-.554.01-.028.075-.164.105-.223.098-.188.045-.095.121-.206v.11l.128-.092-.127-.018c.059-.711.526-.86.545-1.747-.24-.064-.1.046-.22-.132l.002-.195c-1.212 0-1.181-.094-2.261.905l-1.313 1.526c-.167.24-.012.044-.193.244-1.063 1.18-1.103 1.72-1.766 3.037-.216.428-.26.82-.582 1.056-.163-.698-.056-1.486-.219-2.183-1.278-.298-1.733.414-1.957.553-.238.148-.083.026-.298.14-.733.385-.663.95-.698 1.711-.02.458-.084.366-.036.705.063.446.139.315.15.821-1.25-.837-1.053.652-1.951.898-.699.191-1.036-.255-1.375-.739-.19-.269-.543-.839-.542-1.129 0-.014.006-.046.008-.059l.033-.108a.762.762 0 01.023-.05c.129-.277.055-.143.286-.357 1.038-.961 1.654-2.636 1.268-4.176-.092-.37-.276-.927-.456-1.084l-.784-.413c-.796-.224-1.828.294-2.004.77-.227.613.161.277.66.355.42.066.65.438.685.851-.481-.128-.873-1.06-2.388.234-.969.829-.99 1.292-1.542 2.28l-.22.325c-.198-.848-.223-2.34-.079-3.355.138-.966-.076-2.06.188-3.195l5.524-1.03c.166-.032.35-.072.56-.094.407-.041.373.05.717-.046l.237-.089c.791-.229 5.37-.63 6.462-.75l3.837-.217c.36.009.224.034.612-.018.774-.101 8.246-.085 10.11.066.828.068 1.431.186 2.41.21.74.018 5.298.54 6.008.77.602.195.334-.068.87.216-.11.41-.232.334-.484.717-.333.506-.943 2.153-1.327 3.03l-.02.05-1.736 4.209c-.292.577-.486 1.045-.764 1.638l-.399.802c-.195.354-1.188 2.204-1.168 2.435.09.338.272.469.53.671.641.497.308.373.672.639.122-.458.222-.316.361-.638.237-.548.7-1.897 1.058-2.309-.038.464-.356 1.125-.52 1.542l-.24.637c-.105.276-.152.574-.222.877.984.521 2.06 1.027 3.453.723 1.698-.37 2.067-1.538 2.771-1.596-.18.339-.352.446-.437.764h-.109l.091.127.018-.127c.253-.067 1.304-.593 1.48-.812l1.209-1.304.05-.059.271-.274c.423-.407.302-.44.578-.842.84-1.222 1.955-3.516 1.596-5.166-.14-.646-.395-1.063-.93-1.365-.409-.231-.645-.583-1.742-.003.035.425.073.37.265.608.356.44.462 1.069.361 1.662l-.13.383c-.035.212-.007.162.05.404-.562-.412.052-.886-.354-1.72-.203-.416-.622-.816-1.127-.949-.523-.137-1.42-.137-1.971-.017-.242.053-.454.144-.709.213-.026.008-.094.025-.12.032l-.633.148c.476-.99-.212-1.032 1.112-2.49.491-.541.28-.383 1.284-.791.849-.345 1.294-.06 2.27-.351.345-.103 1.437-.16 1.88-.202 1.393-.136 2.27.397 3.309.642.418.098 1.332.151 1.502.572h-.11l.091.127.019-.127c.751-.159 4.68 1.53 5.362 1.736 1.162.349 2.068.901 3.14 1.336l2.409 1.202.173.115.174.136c.296.173.212-.006.885.475l.999.529c.424.213.583.344.927.602.326.244.58.36.936.593 1.095.713.659.838 1.959-.026l1.381-1.021c.379-.27.491-.246.765-.655l-5.223-2.748c-.221-.105-.371-.156-.597-.277l-3.445-1.352c-.22-.083-.192-.075-.345-.208.449 0 .655.062 1.013.188l4.386 1.518.144.074 4.54 2.01c.794.43 1.548-.557 2.495-1.15.277-.174.571-.329.744-.566-.093-.14-.053-.107-.206-.23l-.34-.207h.109l-.091-.127-.018.127a5.99 5.99 0 00-.856-.454l-2.673-1.257c-.342-.16-.644-.236-.962-.349l-.692-.29c-.284-.125-.083-.047-.313-.124-.107-.036-.145-.04-.253-.074l-.32-.117c-1.565-.622-6.47-1.975-8.004-2.26l-2.072-.44c-.026-.007-.059-.02-.08-.028l-.154-.065c.736-.171.734.015 1.436.092l4.681.78c1.516.366 3.156.647 4.634 1.16.023.007.053.02.075.028.175.057.093.04.278.065l1.593.446c.015.006.044.023.058.03.014.005.042.021.056.027l2.569.882c.992.417 1.423.441 2.57 1.037.684.355.847.043 1.29-.268.425-.298 1.877-1.348 2.272-1.44l-3.986-25.928c-.12-.74.069-.602-1.583-.6h-2.184c-.26.542-.192 1.518-1.212 1.958-.301.13-.437.232-.8.172-.972-.16-2.042-1.25-2.247-2.13-1.012 0-3.768.137-4.579-.007-.521-.093-.316-.3-.917-.721-.59-.413-.505-.462-.946-.801l-.596-.495-.06-.05-3.123-2.663c-.699-.653-1.113-1.068-1.9-1.595v-6.768c.733 0 1.021-.118 1.529 0v.11l.127-.092-.127-.018c.279-.242.186-.208.655-.218V42.902c-.516-.12-.53-.138-.874-.436zM84.63 61.46h.11l-.092-.127-.018.127c-.345-.253-.156.03-.251-.526-.068-.396-.008-.726.329-1.035.424-.389.007.005.468-.186 0 1.073.403.928-.218 1.856-.578 0-.163 0-.328-.109zm.11 2.183h-.11l.091.128.018-.128c.51.287.021.386-.109.874-.51-.012-.283-.042-.642-.125-.5-.115-.104-.032-.668.016-.033-.14-.159-.714-.164-.727l-.244-.279c-.154-.18-.05-.028-.139-.195l.328-.219c.167-.154.052-.154.219 0 .223.052.35.145.472.156.34.03.052-.033.51-.156.275.26.065.044.234.313.056.088.13.232.203.342zM63.117.982v.11L63.245 1l-.127-.018-.225-.433c-.474.007-.334.07-.758.106-.009.394-.096.318-.23.72-.133.404.142.356-.534.371V.654c-1.078 0-.789-.114-.8.64l.037 1.433c-.006.591-.186 1.228.532 1.109.644-.107.158-.719.449-1.326.572.152.357.299.53.782.263.737 1.517.804.771-.332-.49-.746-.053-.602-.536-.777l.764-1.201zm15.178 41.484h-.109l.091.127.018-.127c.235.163.144.016.219.327-.34-.007-.21.044-.464-.081-.223-.11-.218-.128-.3-.355.238-.099.02-.082.27-.026.356.078.163.057.276.135zm-1.092 10.043h.11l-.091-.127-.019.127c-.023-.013-.061-.058-.07-.038-.01.019-.056-.031-.069-.042-.132-.113-.606-.726-.29-.81.307-.08-.128-.118.34.199.6.405 1.894.543 2.602.581l2.838.547c.318-.1.767-1.507 2.466.482.314.369.47.407.483.937-.725-.169-.642-.71-1.196-1.109-.219-.157-.285-.215-.552-.092v-.109l-.127.091.127.018-.124.076c-.445.41.1.627-.64.688-.08-.338-.14-.316-.219-.655-.72.016-.356.25-.983.117-.356-.075.115-.015-.285-.06-1.121-.127-.816-.2-1.742-.245a12.307 12.307 0 01-.356-.04l-1.996-.415c-.188-.097-.096-.044-.207-.12zM52.634 2.074v-.11l-.127.092.127.018c-.02.014-.056.007-.063.038l-.184.167c-.185.28-.15.577-.736.886 0-.583-.11-.955-.218-1.419-.215.103-.504.158-.764.219.011.51.345 2.677.546 3.056.4-.106.356-.292.78-.858.24-.323.455-.743.858-.888 0 .513.058 1.085.218 1.419.26-.06.55-.115.764-.219-.083-1.004-.462-2.051-.546-3.056-.467.247-.278.222-.655.655zM4.26 49.67v.109l.127-.091-.127-.018.982-.11c.31-.462.328-.121.328-.873-.19-.044-.255-.078-.348-.078-.455-.002-.822.44-1.419.214-.648-.244-.627-.437-.635-.79h-.655c-.112.478-.253.56.166.921.47.406.582.135.598.825-.832 0-1.201-.628-1.201.655l2.597.62c.295.026.38.028.503-.196.013-.025.107-.384-.035-.533-.42-.442-1.03.18-1.1-.655h.219zm13.65 27.073h-.11l.091.127.019-.127.08-.138c.357-.796 1.653-5.997 2.104-6.849 1.214 0 1.903.11 2.839-.109-.033.396-.166.653-.288 1.023l-.814 2.679c-.01.025-.023.052-.032.077l-.1.228c-.009.026-.02.054-.028.08l-.314 1.199c-.05.322-.19.609-.305 1.022l-.678 2.16c-.577 2.182.164 9.528-.171 10.964-.65 0-.822.205-1.42.218v-3.056c-.344.396-.224.68-.216 1.53.006.733-.111.996-.111 1.635-.398-.184-.722.257-1.42.11v-3.712c0-1.342.11-2.36.11-3.603l-.238.855c-.036.278-.135.675-.17.922l-.328 1.964c-.054.32-.07.763-.104.987l-.47 3.023c-.57 0-2.692.587-2.908.487-.18-.085-.089-.273-.044-.58l2.41-15.294c.06-.463.12-.367.183-.69.096-.487.1-1.18.157-1.7l.395-2.193c.067-.088.335-.109.68-.117 0 .9-.218 1.503-.218 2.402.015-.022.034-.085.04-.069.005.016.032-.054.04-.07.001-.003.095-.211.1-.226.076-.199.102-.322.149-.507l.405-1.31c.2-.372.647-.22 1.559-.22 0 1.362-.874 5.246-.874 6.878zm82.337 10.917h.109l-.091-.127-.018.127-.213.118c-.006-.263.006-.38-.044-.626l-.18-.475c0 .607.072.754.11 1.201-.76-.313-.656.464-.894-1.508l-1.621-14.318c-.077-.896-.216-1.467-.216-2.514l2.839.11c-.099.24.205 1.192.245 2.036.012.257-.009.624.092 1.006.142.539.03.665.318.997l.11-4.04h1.201l.233.891.025.064.288.683c0-.707-.109-1.085-.109-1.638.219 0 .553-.024.764.11h-.109l.091.127.018-.127h.11c.245.233.29.486.321.988.039.628.011.635.138 1.172l.963 7.225c.035.425.109.707.172 1.138l.774 5.995c.119.805.252 1.626.252 2.477-.939 0-1.622-.328-2.62-.328l-.085-.185c-.222-.548-.509-3.408-.598-4.232-.048-.449-.124-.418-.191-.496 0 1.567-.219 3.156-.219 4.695-.803-.067.132-.219-1.856-.219-.083-.147-.06-.12-.109-.327zM39.421 69.103v-.11l-.127.091.127.019c-.298.259-.438.317-.873.327-.25-1.075-.2-1.69.982-1.965l.305.35c.023.67.15 1.137-.414 1.288zm6.88 55.784v.109l.127-.091-.127-.018v-.109l-.127.091.127.018zm.11-75.435v-.109l-.128.091.127.018c-.204.13-.346.11-.655.11 0 .587-.078.721 0 1.091l.278-.159c.017-.012.042-.035.06-.049.017-.014.04-.037.058-.051.635-.498.661-.198 1.229-.627.32-.242-.044-.205.668-.205.092.277-.05.187.108.105a.323.323 0 00.02-.021l.063-.147c.008-.013.021-.046.03-.06.086-.134.086-.103.192-.22.264-.288.088.114.242-.313-1.296-.685-1.023-.381-.983.11-.82 0-.928-.003-1.31.436zM41.168 66.92h-.11l.091.127.019-.127c.284.19.212.294.563.319.755.053.267-.502.653-.105.186.19.048.38.13.73.073.307.19.254.291.694-.56.375-.644.436-1.2.436-.081-.222-.433-.596-.804-.576-.825.045-.14.323-.435-.697-.127-.44-.156-.08-.29-.582.209-.286.772-.678 1.092-.219zm72.29 23.253h.109l-.091-.128-.018.128h-.437l-.546-2.62c0 .945.11 1.51.11 2.51-.425-.035-.285-.098-.765-.109l-.764-5.13c-.339.248-.228.504-.22 1.09.005.437.001.875.003 1.313l-.002 2.4h-.546c-.01-.494-.109-.434-.109-.983l-.218.874c-.393-.033-.903-.153-1.302-.228-1.187-.223-.916.33-1.397-3.297l-2.215-16.235c.865 0 .487-.135.803 1.264.075.33.072.626.13.97.02.119.06.33.091.454l.177.479c0-.625-.137-1.11-.185-1.661l-.006-.073-.246-1.323c.431-.178 1.24 0 2.184 0 0 1.024.453 2.703.515 4.039.021.457-.321.278.249.327 0-.473-.063-.6-.04-.925l.04-3.441c.603 0 .997-.015 1.453.081.812.172.5.028 1.277.028l2.793 17.841c.134.804.374 1.776.374 2.573-.333.078-.287.087-.574.033l-.627-.251zM84.63 60.806v.109l.127-.091-.127-.018v-.11l-.127.091.127.019zM9.828 35.697v-.11l-.127.092.127.018c-.186.332.17.535.655.546.203-.869.849-.871-.51-1.673-.368-.217-.581-.409-1.019-.51.031-.371.084-.4.219-.655l1.277.78c.006.004.04.037.234.11l.159.051.514.15a4.9 4.9 0 00.328-.546l-1.633-1.096c-.115-.055-.25-.09-.384-.163-.373-.203-.195-.257-.714-.378l-1.092 2.074c.677.18 1.492.936 2.075 1.092l-.109.218zm56.566 77.181h-.11l.091.128.019-.128.287-.149.066-.043.063-.046c.648-.484 1.625-1.798 2.005-2.472l.5-.811.044-.065 1.003-2.054c1.212-2.71 1.59-4.601 2.328-7.388l.41-1.993c.034-.221.12-.594.143-.73.236-1.362.359-1.489.249-2.807-.785 0-1.065-.173-1.235.511l-.294 1.454c-.171-.736 0-.327 0-1.747-2.215 1.483-1.66 2.727-3.538 5.852-1.01 1.68-2.64 1.1-1.012-2.54.081-.182.118-.267.204-.452.504-1.084 1.486-2.676-.022-3.078-.346.231-.463.564-.68.957-.193.348-.427.822-.521 1.226-.644-.472.437-.801.437-2.183-.745-.499-1.079-.4-1.577.389-.18.285-.289.546-.434.875-.746 1.681-1.333 3.068-1.658 4.893-.07.39-.107.832-.147 1.169-.076.639-.054.542-.016 1.081.033.489-.107 2.237.926 2.791.4.215.684.195 1.08.08l.58-.297c.316-.233.614-.677.7-1.047-.53-.044-.78-.247-1.012-.626-.285-.466-.298-.736-.298-1.448h.109c0 1.282 1.284 1.512 2.094 1.221 1.072-.385 1.39-1.51 1.946-1.658l-.822 3.109c-.123.432-.125.482-.867.77-.178.069-.154.046-.31.127-2.587 1.343-6.008 3.768-6.741 6.689-.412 1.64.63 2.816 2.067 2.617.46-.063.843-.241.886-.758-.46.107-.379.218-.817-.049-.595-.364-.743-1.203-.69-1.808.026-.299.04-.256.196-.435 0 3.023 2.595 1.99 3.48 1.186.671-.609.57-.923 1.106-.968-.134.256-.187.284-.218.655zm5.897 3.603v-.109l-.128.091.128.018c-.024.015-.065-.001-.079.031l-2.658.29c-.778.02-.354.117-.883.209l-6.07.205c-.659-.091-1.313-.052-2.108-.076l-1.917-.158c-.662-.094-1.372-.176-1.934-.25-.323-.042-.687-.075-.876-.107-.468-.076-.603-.166-.852-.207l-3.25-.604c-.529-.154-1.199-.284-1.76-.424l-5.55-1.826c-.013-.006-.044-.016-.057-.024-.187-.108-.035-.009-.152-.137-.121-.133.116-.04-.247-.306-.188.467-.487.107-1.129-.181-4.074-1.824-8.066-3.987-11.552-6.791l-1.693-1.365-.058-.051-1.31-1.092c-.116-.112-.115-.122-.21-.227l-.05-.058-1.144-1.041c-.182-.154-.352-.31-.544-.438l-.761.439-.065.045c-.264.18-.42.239-.594.498.747 1.115 2.141 2.039 3.122 2.993l.055.054 3.386 2.619c.087.067.098.076.187.141l6.482 4 8.073 3.501c.371.105.575.135.947.254.646.206 1.497.405 2.137.702.212.098-.037.024.227.101l2.142.479c1.171.177 2.724.634 3.833.753 3.213.345 7.598.795 10.784.541.381-.031.092-.037.423-.024l1.49-.132c.727-.104 1.381-.092 2.108-.185.232-.029.723-.075 1.076-.124.345-.048.77-.04 1.094-.108l5.923-1.282c.548-.217.901-.309 1.548-.309l.04-.085c.005-.005.026-.032.032-.037l.462-.21.076-.036.302-.139c.938-.354 1.953-.52 2.871-.951l4.983-2.224c.296-.141.442-.267.77-.432a49.21 49.21 0 001.51-.783l2.19-1.303c.265-.166.459-.307.72-.482l1.376-.917c.512-.339.843-.599 1.33-.963l1.354-1.047c.199-.142.506-.277.673-.419l2.069-1.862c.688-.632 1.763-1.417 2.174-2.193l-.875-.552c-.02-.011-.051-.025-.07-.034l-.186-.088c-.177-.085-.272-.191-.506-.09l-2.992 2.686c-1.028 1.035-3.98 3.077-5.07 3.775-.147.094-.236.151-.396.258l-5.147 2.933c-1.272.703-2.606 1.19-3.935 1.743l-.076.033-.076.033c-.024.01-.052.023-.077.032l-.079.031-.84.36c-1.39.56-2.95.976-4.366 1.422-1.448.455-3.197.691-4.61 1.066-.58.154-.606.017-1.165.147zm-24.352 5.458h.11l-.092-.127-.018.127c-.694.162-.626.571-1.555 1.312-.272.217-.066.65-.423-.643a32.309 32.309 0 01-.315-1.214c-.5.133-1.24 1.826-1.489 2.333-.144.294-.117.125-.15.505.322.075.334.109.765.109.183-.346.243-.651.546-.873.412.615.184.674.437 1.201 1.181 0 .27-.578 1.201-.655v.982c.768.369.813.856.946-1.99.025-.542-.124-.376.037-1.066v-.001zm41.933-.218v.109l.127-.091-.127-.018.437-.218c-.011-.475-.11-.596-.11-1.201-.37-.041-.22.144-.621-.689-.181-.376-.262-.521-.362-.949-.844.071-.729.21-.83 1.027-.073.602-.152 1.118-.152 1.703l.35.304c.46-.059.477-.189.523-.304h.437c.054.49-.163.273.328.327zm-21.84-50.654v.11l.127-.091-.127-.019c.112-.077.009-.02.208-.12.124-.062.12-.062.228-.104l.746-.182c.028-.007.28-.088.282-.088.295-.068.407-.052.72-.052.186.513.052-.108.25.524.175.56-.194 1.56-.424 1.923-.304.483-1.979.61-2.665.61l.655-2.51zM6.552 42.902h-.11l.092.128.018-.128c.337.162.4.11.874.11.075-.322.109-.334.109-.765-.213-.05-.472-.09-.713-.16-.733-.218-1.453-.648-2.236-.713.084.358.213.7.373 1.047.19.41.38.468.392 1.027-.498-.041-.871-.225-1.31-.327l-.234.759 2.964.987c0-.957-.582-1.29-.765-2.074l.546.11zm37.019 25.764v.109l.127-.091-.127-.018c.298-.26.438-.318.873-.328-.012.575-.272.851 0 1.42-.315.21-.568.449-.982.545l-.42-.346-.017-1.073c.225-.12.258-.151.546-.219zm21.294-66.81v-.11l-.017.013-.201-1.104c-.694-.162-.349-.053-.983 0 .285.594.109 2.326.109 3.165.13-.086.338-.199.47-.295l.601-.599c.25-.224.442-.433.785-.525v1.31c.322.075.334.11.765.11 0-1.32.213-.327.12-1.529-.06-.79.083-1.304-.011-1.746-.458.242-.433.268-.79.628l-.848.682zM41.17 73.468v.11l.127-.092-.127-.018c.124-.15-.024-.068.208-.07.47-.004.185.065.195.07l.514.293c.91.423.157-.328 1.048.144-.077.289.009.09-.11.328-.266.07-.147-.049-.218.218.284-.075.122.04.219-.218.27.109.039-.027.278.267l.486.824-.375.233c-.548.232-.521-.344-1.809-.451-.029-.348-.13-.55-.302-.79l-.096-.122c-.238-.285-.282-.193-.366-.507.36-.135.051.072.328-.219zM57.659 43.12v.109l.127-.091-.127-.018c.25-.34 1.873-.82 2.325-.95l1.2-.439c.164-.062.6-.215.652-.22.705-.07-.173-.003.409.19.393-.372.01-.074.172-.323.257-.397 1.746-.629 2.301-.867.472-.202.6-.35 1.291-.506l.607-.166c.023-.01.05-.026.072-.036l.8-.275c.755-.338 2.085-.884 2.838-.884l.234.76-5.242 1.657c-.356.121-.541.123-.962.24l-7.571 2.474-.11-.219c.112-.308-.023-.172.416-.36.242-.105.352-.165.567-.076zm-2.293 14.846v-.109l-.128.091.128.018c-.205.13-.347.11-.656.11-.404-.604-.231-.639-.587-1.93-.488-1.767-1.073-4.908-1.552-6.73-.034-.132-.1-.397-.126-.492-.154-.574-.08-.597-.028-1.22h.655c.381.569.857 3.105 1 3.914l.348 1.29c.189.71 1.108 4.473 1.007 4.898-.006.022-.024.062-.03.08a.354.354 0 01-.031.08zm-9.392-3.493h-.109l.091.127.018-.127c.47.54.287.652.656 1.42-.312-.084-.332-.129-.576-.684l-.022-.053-.24-.4c-.107-.092-.172-.119-.255-.174-.13.324.09-.007-.157.17-.176.126.058-.024-.136.083-.021.012-.051.024-.074.035-1.194.587-3.724 1.015-3.877 1.81-.056.29.458 3.37 1.053 3.722.38.224.71.075 1.335.075v.218c-.692.058-1.418.772-1.965.546-.338-.247-.326-.718-.439-1.2-.2-.864-.779-3.505-.252-4.074.244-.264 1.304-.582 1.706-.697.16-.046.192-.047.34-.097l2.237-.724c.368-.099-.13-.08.346-.068.544.014.132-.027.32.092zm-3.166 11.79v-.11l-.128.092.127.018c-.099.086.019.069-.254.159-.163.053-.639.054-.878-.258-.207-.268-.21-.344-.334-.732l-.127-.492c-.059-.322-.336-.734-.021-1.047.207-.207.882-.348 1.18-.411.204-.043.12.157.253-.13.074-.157-.037-.555-.037-.91.86-.2.933-.436 2.075-.436 0 .788.09.544.218 1.092-.751.36-1.878.662-2.307.86l-.426.347c-.193.334.1 1.86 1.26 1.702.328-.045.42-.071.818-.071v.218c-.544 0-.756.11-1.42.11zm45.209-.655h.109l-.091-.127-.019.127c-.263-.106-.174-.027-.563-.746-.51-.94-1.868-5.446-1.777-6.615.058-.742-.236-.3-.062-1.045h.546c.008.356.078.642.126 1.075.094.84.209.872.94 1.68.3.332.28.407.51.8 1.303 2.208 1.014 3.993 1.045 4.087.121.166.106.13.228.265.285.318.318.134.318 1.264-.648.15-.976-.132-1.31-.765zm27.3-35.698h-.11l.091.128.019-.128zM40.513 55.238h-.109l.091.127.018-.127zm37.347 4.694v.11l.127-.091-.127-.019c.258-.163.4-.168.55-.019.412.409-.292.807.252 2.063.258.596.319.735-.332.936-.465.144-.855.186-1.562.186l-.874-1.31c-.754 0-.687.054-1.201-.218.013-.587.266-.844.213-1.405-.061-.632-.322-.526-.322-1.434 1.161-.096.368-.218 1.528-.218l.705 1.043c.136.173.175.222.278.376h.765zM46.3 47.706v-.11l-.127.091.127.019-.387.268c-.772.594-1.285 1.428-1.12 2.541l.961 3.413c-.147.083-.12.06-.328.11-.278-.265-.178-.27-.436-.656l-.835.138c-.409.018-.194.09-.638.238-1.086.361-1.039-.03-1.039 1.37-3.23.754-1.369 1.625-2.406 1.853l-6.767.659c0-5.588-.392-3.625.935-8.236l2.353-7.91c.112-.362.25-.728.386-1.142l1.607-5.605c.083-.275.009-.006.092-.278.055-.177.204-.695.306-1.064l1.038-3.548c.192-.663.18-.47.845-.683l2.362-.696c.768-.282 1.167-.246 1.577-.388l5.644-1.672V45.96l-.996.423c-.82.358-2.356 1.138-3.154 1.324zm38.002 17.903c-.19.19.133.07.03-.002 0 0-.023-.005-.03.002zM48.376 85.696l-.218-.11c0-.393-.016-.814-.004-1.204.016-.55.11-.604.117-1.193.03-2.467.256-5.012.315-7.545.016-.664.308-.808.695-1.817.207-.542.356-1.503.457-2.17.068-.442-.01-.558.038-1.038.042-.432-.058-1.001-.045-1.237.032-.558 1.766-.257 2.14-.17l.546 3.927c.104.485.218.817.218 1.422h.218c.008-.377.143-1.052.24-1.399l.648-2.627c.118-.418.208-.982.313-1.432.797 0 1.143.109 1.857.109.17.8.109 2.833.109 4.148h.11c0-.873.002-1.747-.001-2.62-.005-1.777-.032-1.594.765-1.528 0 2.89-.116 5.49-.11 8.296.002.82-.105 1.283-.113 1.961-.02 1.532.068 4.906-.214 6.118h-1.529c-.077-.33-.239-.864-.436-1.092 0 .926.234 1.092-.656 1.092-.176-.758-.086-2.941.02-3.918.073-.677-.02-.588-.02-1.322-.353.259-.574 1.649-.697 2.141l-.613 2.225h-.328c-.008-.397-.63-3.96-.983-4.366l-.115 3.815c-.09 1.091.002 1.5-.34 1.625-.117.043-1.688.018-1.947.018l-.328-.437c0 .578 0 .163-.109.328zm-.218 0h.218c-.167.155-.051.155-.218 0zm-42.916-3.93l.235-.06-.235-.05c-.248-.6 1.196-.457.86-1.396-.18-.5-.548-.209-.725-.004-.237.276-.514.687-1.039.714-.828.042-.998-.7-1.343-.132-.437.72.85.89 1.482 1.037-.304.576-.119.437-.982.437 0 .514.019.488.109.873.755 0 .519-.057.833-.15l.776-.207c.607-.2.733-.138 1.448-.516a2.876 2.876 0 01-.218-.655c-.811 0-.928.279-1.201.109zm48.812 1.092c0 .27.175.027.068 0-.001 0-.068-.31-.068 0zm47.83-12.882c0 .271.175.028.068 0-.002 0-.068-.31-.068 0zM38.876 34.387c0 .271.174.028.067 0-.001 0-.067-.31-.067 0zm61.479 52.182c0 .271.175.028.068 0-.001 0-.068-.31-.068 0zM39.64 47.924c0 .271.175.028.068 0-.002 0-.068-.31-.068 0zm12.34 6.987c0 .271.174.028.067 0-.001 0-.067-.31-.067 0zm22.167-12.227c0 .271.175.028.068 0-.002 0-.068-.31-.068 0zM52.853 60.37c0 .271.175.028.068 0-.002 0-.068-.31-.068 0zm7.972 35.916c0 .271.174.028.067 0-.001 0-.067-.31-.067 0zm5.35 17.14c0 .271.175.027.068 0-.001-.001-.067-.31-.067 0zm45.21-28.602c0 .27.174.028.067 0-.001 0-.067-.31-.067 0zM72.4 53.383c0 .27.175.027.068 0-.002 0-.068-.31-.068 0zm-31.013 6.44c0 .272.175.028.068 0-.002 0-.068-.31-.068 0zm44.881-5.895c0 .272.175.028.068 0-.001 0-.068-.31-.068 0zM55.911 59.06c0 .129.235.246.169 0-.066-.246.278-.003-.05-.032-.138-.012-.12-.19-.12.032zm16.38-9.388c0 .128.235.246.169 0-.066-.247.278-.003-.05-.032-.138-.013-.12-.19-.12.032zM39.312 70.63c0 .128.235.246.17 0-.067-.246.277-.003-.051-.032-.137-.013-.119-.19-.119.032zm46.956-17.248c0 .128.235.246.17 0-.067-.247.277-.003-.051-.033-.138-.012-.119-.19-.119.033zM44.554 96.176c.112.112.395-.157.127-.059-.003.001-.31-.124-.127.06zM77.75 16.047c.112.113.395-.157.126-.059-.002.002-.31-.124-.126.06zm16.052 48.798c.112.112.395-.157.127-.059-.003.001-.31-.124-.127.06zm-16.27 42.576c.112.112.394-.157.126-.059-.003.001-.31-.125-.127.059zm-12.231-64.41c.112.113.395-.156.127-.058-.003 0-.31-.125-.127.059zm-1.529-1.746c.112.112.395-.157.127-.059-.003.001-.31-.124-.127.06zm45.864 58.077c.112.112.395-.157.127-.059-.003.001-.31-.124-.127.06zm-31.45-26.527c.113.112.395-.157.127-.06-.002.002-.31-.124-.126.06zm-58.31-50.217c.112.112.395-.157.126-.06-.002.002-.31-.124-.126.06zm57.002 23.798c-.022-.014-.052-.067-.064-.044-.014.024-.056-.032-.074-.036-.147-.031-.143-.029-.299-.029 0 0 .023-.152-.28-.158-.222-.004-.072-.096-.156.158h.436c.022.014.053.015.065.044.013.03.056.032.074.036.146.031.142.03.298.03.211.287.965.448 1.592.7.109.044.135.046.24.087.194.076.283.138.448.208l3.722 1.35c.562.394.646.437.66 1.038-.625-.052-.877-.425-1.612-.681-.193-.068-.324-.106-.553-.211-.32-.147-.662-.304-1.05-.48l-3.183-1.403c-.408-.17-.676-.337-1.044-.484-.785-.314-.737-.236-.967-.67.538-.223 1.08.018 1.586.16.139.04.232.046.354.083.334.105.336.188.571.411-.48-.01-.34-.074-.764-.109zm-3.93 23.908c.022.124.24.238.146.022-.04-.092-.2-.306-.147-.022zm18.126 12.663h.11v-.327h-.11v.327zm-15.615 32.75h.327v-.109h-.327v.109zM65.193 61.025v-.11c.533 0 .397.008.768-.113.358-.116.41-.218.76.004-.543.127-.84.219-1.528.219zm0-.11h-.328v.11h.328l-3.495.654c-.25-.523-.181-.65-.256-1.321-.035-.31-.18-.682-.18-1.299l3.978-1.044c.407-.079.372-.078.689-.185 1.316-.44 2.578-.608 3.719-.867l.62-.27c.555-.181.462-.02.549-.012.619.05-.567.09.33-.17.276-.08.484.005.707.147l-1.02.4c-.583.3-2.146 1.69-3.714 2.29l-2.583 1.458.418.02c.028.005.061.017.086.023l.151.067zm-46.52 24.89h.11v-.436h-.11v.436zm24.789-16.157h.328l.122-.432-.45-.004v.436zm-16.27 44.432c0 .454.404.436.654.436.12-.225.152-.258.219-.545-.38-.255-.114-.219-.874-.219v.328zm74.364-98.578c0 .414.765.569.765-.11v-.218c-.256-.135-.285-.187-.655-.218-.057.245-.11.25-.11.545zm-2.511 99.014c0 .395.275.328.655.328.081-.34.401-.852-.546-.873-.057.244-.11.251-.11.545zM68.469.655c.208 0 1.463-.008 1.012-.46-.234-.233-.313.133-.685.133-.428 0 .213-.309-.655-.328.042.503.088.298.328.655zM126.236 53.6c0 .397.129.383.218.764H127c-.091-.339.027-.086-.183-.363-.013-.018-.037-.04-.051-.058l-.203-.233c.079-.34.14-.317.219-.655-.476.01-.546.071-.546.545zM.218 58.841c0 .428-.164.012-.218.655.946-.079.802-1.263.218-1.419-.258.538 0 .21 0 .764zm68.36 64.627c-.251-.168-.22-.208-.655-.218.145.624.353.546 1.092.546.239-.358.285-.152.327-.655-.532.044-.147-.021-.42.126-.088.047-.242.147-.344.201zm-14.633-.109c.141-.529.186-.126.327-.655-.459 0-.44-.046-.764.109-.019-.017-.044-.075-.052-.057-.008.018-.039-.048-.05-.059l-.257-.18c-.162-.062.016-.009-.187-.031.017.788.232.429.693.748.042.029-.333.071.29.125zM3.275 42.794l.177.167c.018.007.052.028.074.033.22.054.273-.002.381-.107.151-.147.066-.112.154-.291.085-.174.08-.173.198-.348-.217-.453.053-.496-.546-.546.008.364.138.515.044.698-.219.425-.122-.096-.48.393h-.001zm22.06-27.51c0 .581.873.581.873 0 0-.582-.874-.582-.874 0zm25.88-14.192c.108.405.11.14.218.546.337-.162.4-.11.874-.11.24-.357.286-.151.328-.655-.802.067.252.219-1.42.219zm70.215 37.117c.432 0 .444.034.765.109-.013-.585-.054-.452-.437-.655v-.764h-.328c-.185.795 0 .537 0 1.31zM47.72 58.514c0 1.557 2.471.285 1.178-.632-.218-.154-.561-.174-.85-.241-.117.437-.328.357-.328.873zm40.623 5.676c0-.785-.78-3.7-1.638-3.93l.615 2.115c.23.604.489 1.622 1.023 1.816zm-24.57-8.951c.614 0 .85-.056 1.092-1.092-.622-.225.016-.436-1.092-.436-.77 0-.77 1.528 0 1.528zm-1.747-10.917l.032.033c-.002-.003-.043-.022-.032-.033zm1.091-.546l-.848-.459c-.273-.081.019-.15-.353.023l.033.196c.03.133.034.147.077.35-1.622 0-.673.286-1.452.507l-.405.038c-.102.44-.217.638 0 1.092l.193-.135c.386-.362-.102-.21.49-.383.221-.064.214.004.46-.087.419-.153.048-.206.86-.46l.073-.025.073-.03.8-.627zm-28.5-33.296c-.538.468-.047.12-.386.106-.16-.007-.39.25-.78-.469-.208-.383-.245-.631.035-.876.558-.489.358-.822 1.266-.097.17.135.11.007.227.216.089.158.111.436.064.66-.069.328-.096.372-.426.46zm-1.093-1.528l.033.032c-.002-.002-.044-.021-.033-.032zm14.524 41.702c-.257 0-.972-.038-1.172.029-.232.076-.027-.02-.204.123l-.48.503c.727.487.166.546 1.638.546 1.103 0 1.2-1.2 1.2-2.074-.507.135-.758.45-.982.873zm13.322-5.24c-.527 0-.187.392-.764.545.087 1.05 1.812.936 2.356.391.474-.474.374-.822.374-1.591-.524.011-.56.237-.879.548-.197.192-.157.293-.453.312-.526.034-.214-.205-.633-.205zm23.37 37.444c.47.1.512.01.982.11.094-1.13.011-.552-.094-1.544-.065-.618-.085-1.4-.015-1.732l-1.092-.109c0 1.064.218 2.232.218 3.275zm9.39 34.825c.336.245.177-.071.219.436h-.219v-.436zm-.545-1.201c0 1.506-.185 1.855.327 2.62 1.033-.547.73-.319 1.31-.109.191-.166.136-.149.437-.219-.01-.481-.109-.51-.109-1.092-.677-.324-.466-.118-1.16-1.459-.175-.336.012.161-.15-.287a3.05 3.05 0 01-.138.08l-.072.038c-.424.232-.446.099-.446.428zm-4.683 3.825c.153.186.135.131.205.432h-.327l.122-.432zm-72.195-96.29l.033.032c-.002-.002-.043-.021-.033-.032zm-.218 1.31c1.15 0 .374-.556 1.062-.496.001 0 .77.502.795-.596-.64-.17-.098-.185-.487-.606-.502-.543.034.276-.633-.233-.374-.285-.839-.898-1.283-1.017-.47.444-.245.747-.04 1.349l.586 1.599zm4.259-6.004c.278.186.34.187.437.545-.575-.05-.194.002-.298-.119l-.14-.426zm.983-.219l.032.033c-.002-.003-.043-.022-.032-.033zm-1.748-.982c0 .692.325 2.361.874 2.729.385-.103.031.076.367-.179.394-.298.168-.034.288-.367h.328c.129.346-.237.157.328.218l.412-.46c-1.11-1.841-.136-.67-.998-1.138-.349-.19-.014-.076-.523-.569-.23-.223-.319-.362-.53-.562-.15.08-.087.058-.268.168-.278.17.127.013-.277.16zm103.85 57.75c-.039-.207.137-.389.069-.07-.001.007.003.45-.069.07zm-.764-.11c-.828 0-.815.465-.453.78l.353.198c.831.443.282.029 1.117.082a3.4 3.4 0 01.462.076c.368.079.523.165.923.174.183-.787.283-.698-1.213-1.844-.165-.126-.554-.46-.881-.39-.363.079-.072-.09-.308.924zM95.113 10.917c.01.017.279-.015.004.143-.367.211-.148.011-.222-.034l.218-.11zm0-.11v.11-.11zm-1.201.546c.96.256.47.664.841 1.008.165.153.32.171.579.193.118-.443.299-.466.655-.655-.143-.612-.117-.484.42-1.33.267-.424.6-.962-.311-.962l-1.49.802a3.41 3.41 0 00-.13.088c-.333.237-.53.436-.564.856zm28.392 70.413c.259.07.427.032.23.23-.25.249-.142-.062-.23-.23zm-1.31-.11c-.011.48-.074.34-.11.765.446.104.443.1.546.546.48-.01.385-.117.748-.081.244.023.41.154.627.235.155.06.176.053.343.105.576.178.794.278.794-.478 0-.199-1.085-1.414-1.332-1.624l-.24-.191c-.016-.01-.043-.03-.058-.037-.378-.175-.448.12-.519.245-.432.762.202.538-.799.516zM89.434 7.97l.033.032c-.002-.002-.043-.021-.032-.032zm.328-.11l.033.033c-.002-.002-.043-.021-.033-.032zm-1.31.656c.414.219.68.127.796.563.088.33-.191.051.11.386.182.201.254.127.513.252.353-.527.534-.534.656-.874.004-.012-.01-.047-.01-.037 0 .01-.008-.035-.009-.04l.008-.267c.13-.528.524-1.12.666-1.73-.449-.037-.244-.11-.655-.11-.432 0-.033-.041-.314.124l-.127.091c-.019.014-.042.036-.06.05l-.118.1c-.746.583-1.275.713-1.456 1.492zm31.122 32.968c0 .81.474 1.687 1.201 1.747l.126-.651c-.975-.258-.606-1.75.42-1.75.244 0 .569.183.723.369.206.25.151.643.151 1.05l.651.125c.021-.721.153-.904-.158-1.491-.821-1.552-3.114-.697-3.114.601zM1.092 55.348c0 .573-.058.894.488 1.367.687.596 2.788.785 2.788-1.258 0-.549-.099-.49-.11-.983-.37.031-.4.083-.655.219.008.346.256.826-.053 1.266-.227.324-.212.124-.496.243-.007.004-.03.02-.037.023-.003.001.272.074-.184.063l-.734-.2a2.065 2.065 0 01-.204-.241c-.397-.71.437-.813.07-1.7-.545.045-.873.66-.873 1.2zm56.675 69.321c.058-.249.084-.251.109-.546-.28-.148-.457-.316-.804-.398-.32-.074-.805-.09-1.119.004-.192.057-.592.399-.688.513l-.094.125c-.423.68-.245 1.864.546 2.35.694.426 1.237.19 1.94.026-.263-1.131-.69-.575-.825-.532-1.423.439-1.384-2.547.314-1.703l.62.161zM11.029 30.894c-.364.175-.891.11-1.42.11-.06.735-.598.714.536.77.588.03 1.018.102 1.758.102-.012.51-.129.576-.328.874.317.212.147.22.546.328 1.643-1.204-.862-2.852-1.092-3.712-.275.023-.623.085-.516.64.107.56.37.345.516.888zM80.917 5.458c-.858 0-.349-.212-.755-.181-.333.024-.228.288-.228.727 1.59.37 1.388.204 2.533-1.398l.634-1.004a2.882 2.882 0 00-.655-.218c-.145.097-.1.061-.237.2-.564.568-.197.636-.746.782 0-1.58-.553-1.437-.982-1.528 0 .493.1 1.023.18 1.365l.256 1.255zm42.697 60.806c0 1.243.291 1.056 1.401 1.657.211.114.055.047.209.119l.319.117c.595.227.475.385 1.129.4.009-.388.134-.487.03-.696-.101-.202-.008-.051-.154-.155-.146-.104-.729-.33-.968-.35v-.218c.792-.185 1.278-.332 1.299-.835.04-.962-.381-.103-1.956.29-.385.095-.269-.005-.544.108 0-.45.134-.873-.328-.873a.42.42 0 00-.437.436zm-32.214 51.2v.873c-.536-.045-.659-.328-.983-.328-.354 0-.082.095-.546.219v.327c.213.05.5.161.711.272.319.167.368.292.71.383 0 .65-.11 1.075-.11 1.856.82-.068.764-.565.764-1.419 1.203.805 1.118.449 1.638.328-.13-.489-.756-.683-1.529-1.092 0-.83.11-.807.11-1.747-.32.074-.506.191-.765.328zM54.163 2.62c0 1.11 1.061 1.746 1.201 1.746 1.24 0 1.305-.318 1.748-.436v-.437c-.32-.076-.158.014-.328-.218-.428.114-.226.195-.633.267-.474.084-.887-.082-1.053-.596a6.234 6.234 0 01-.061-.763h.327c.059-.7.387-.404 1.31-.328.068-.287.1-.32.22-.545-1.06-.56-2.73-.17-2.73 1.31h-.001zm4.696.109c.311.074.164-.017.327.218-.222.332-.137.316-.655.328v-.437c.577 0 .163 0 .328-.11zm-.983 1.31c3.159 0 2.025-1.703 1.696-1.914-.917-.59-1.15.623-1.15-1.252-1.04 0-.847-.011-.793.55l.065 1.766c-.01.308.064.605.182.85zM3.494 52.399h.546v.547h-.546V52.4zm-.655.328l-1.092-.109c-.251 0-.293.663-.253.737.115.21.514.136.861.182 1.794.238 2.29 1.125 2.422-.944.095-1.485-2.281-1.484-1.938.134zm119.247 25c0 .627-.024.441.291.812.34.4.208-.062.133.42l-.156.126c-.391.18-.465.019-.644.352-.086.16-.123.383-.091.45.108.232.058.152.794-.082.355-.113.671-.26.983-.332l.181.347c0 .001.784.773 1.129.854 0-.897.073-.665-.267-1.17-.208-.308-.218 0-.087-.294.266-.595.791.34.791-1.156a5.112 5.112 0 01-.795.297c-.193.052-.268.06-.435.11-.37.114-.006.045-.408.139-.007-.014-.015-.056-.017-.044-.002.012-.017-.039-.02-.045l-.616-.58c-.568-.442-.187-.407-.657-.532-.075.133-.109.117-.109.328zm-41.17 45.086l.034.032c-.003-.002-.044-.021-.033-.032zm-.327 1.528h-.109c-.159.089-.116.053-.328.109.008.333.05.398.11.655 2.297 0 1.18-2.42 1.747-3.602-.513-.109-.297-.048-.874 0-.1.47-.01.167-.033.543-.018.308-.067.246-.076.657-.681-.056-.5-.488-1.016-.634-1.715-.483-.043.993.288 1.379l.258.264c.271.253.265.161.36.52-.147.082-.12.059-.327.109zM18.127 20.195c0 .549.098.49.11.983-.764-.017-.217-.219-1.093-.219-.141.53-.186.127-.328.655.477.23.77.115 1.445.352.255.09.227-.007.333.373l.297 1.35c.572-.153.364-.363.681-.614l.084-.041c-.077-.145-.058-.093-.166-.264-.15-.235-.078-.058-.156-.266-.271-.722.47.013.988-.21.268-.116.231-.117.535-.57l-1.732-.42c-.16-.148-.004-.113-.214-.684-.115-.313-.208-.5-.238-.862-.21.056-.546.214-.546.437zM59.732 125.98c-.081.348-.026.326-.264.408-.342.117-.296-.023-.348-.154-.133-.341.328-.315.612-.254zm.764.327c0-.815-.093-.927-.781-1.082-.778-.175-.42-.173-.42-.992 0-.371-.191-.328-.546-.328-.491 0-.377.954-.393 1.167-.146 1.938-.593 2.089 1.164 2.083.519-.002.977-.254.977-.848zM92.165 8.951v.11c-.185.252-1.056.788-1.42.873v.327c1.325.309.496.023 1.529-.218.096.411.198.461 0 .873.496.133.252.292.873.437 0-.484-.13-1.567-.044-1.784.126-.317 1.02-.747 1.355-.836v-.219c-.422-.112-.526-.562-1.529.11 0-.652-.057-.89-.354-1.065-.135-.08-.264-.102-.41-.136V8.95zm29.811 36.025h-.546c.057-.682.405-.604.546 0zm-1.529-1.091c.04.478.23 1.427.58 1.713.776.635 2.21.104 1.495-1.386.334-.16.758-.276 1.092-.436a1.93 1.93 0 00-.218-.765c-.487.114-.987.33-1.44.417-.183.035-.185.01-.37.067l-.156.062c-.023.01-.05.026-.072.037-.023.01-.048.028-.071.039-.022.01-.048.027-.071.038a2.087 2.087 0 01-.769.214zm.874 2.729c0 .43.034.443.109.764.709 0 .674-.204 1.31-.218-.017.774-.232.47-.704.933-.427.42-.306.567-.06 1.032.798-.186.78-1.092 1.747-1.092.367 0 .124.122.515.252.436.145.174.009.686-.034 0-1.427-.866-.375-1.419-1.2.197-.27.601-.348.983-.437-.038-.46-.124-.36-.219-.764-.656.054-2.177.7-2.948.764zM30.685 9.934l.129 1.089c.025.329-.019.107-.13.33-.396-.106-.4-.33-.764-.873-.333.176-.436.137-.655.436.087.325.468.716.76 1.206.142.239.194.357.379.603.252.336.283.241.39.702.624-.014.357-.055.764-.327-.156-.588-.602-.705-.436-.983.176-.24.011-.263.36-.15.308.1.014-.011.302.245.446.398.699.385 1.194.123-.057-.69-.069-.452-1.01-.955-.267-.142.016-.125-.519-.137.222-.394.054-.579.099-.95.001-.015.011-.048.014-.064.003-.026.027-.097.028-.123.025-.378-.02-.045-.14-.5-.61.013-.368.052-.765.328zm92.929 49.125v.873c.504.011.524.092.692.013.052-.024-.338-.045.205-.102.252-.027.256.014.413.09-.101.928-1.521.265-1.201 1.637 1.097 0 .222-.072 1.308-.563.254-.115.356-.226.829.058.283.171.378.403.686.38.68-.047.33-.862-.14-1.029-.756-.268-.403.062-.717-.593 1.296 0 1.002-.142.983-.982-.674.157-2.212.218-3.058.218zm-92.602 59.278c.217.104.39.156.655.218.506-.37.374-.696.765-.982.184.133.115.08.16.187.186.45-.203.436.058 1.559.25.058.252.085.546.11.383-.572.144-.182.151-.76.005-.363.141-.497-.042-.878l.816-.463c.013-.006.53.039.604-.629-.732-.387-.783-.254-1.29.143-.138.108-.438.343-.567-.033-.069-.202.271-.301.328-.983-.405-.108-.141-.11-.546-.218-.371.248-1.503 2.15-1.638 2.729zm52.635 4.367c.631 0 .716-.146.764.436-.295.025-.297.051-.546.109-.067-.287-.099-.321-.218-.545zm-1.31-1.529c.008.379.073.47.15.799l.084.308.029.061.033.063c.388.808.411 1.253.686 1.826 2.87-.669 1.98-2.065 1.255-2.344-.275-.105-.804.106-1.145.27-.078-.367-.008-.301-.11-.546.478-.011.277-.011.754-.229.062-.028.15-.061.23-.099-.056-.662-.146-.679-.691-.489-.453.157-.794.369-1.275.38zm41.823-50.654c-.356-.633.099-.617.14-.631.187-.065.177.012.187.016.394.173.147.564-.327.616zm-.764-.109c0 1.05.788.983 1.529.983l.625-1.242c.174-.13.195-.02.195-.02.346.222.053-.017.053.825 0 .388.213.328.656.328 0-.816.205-1.27.218-1.856-1.099-.527-.86-.23-1.284-.237-.514-.007-1.26-.2-1.883-.2 0 .623-.109.755-.109 1.42zM13.65 28.71h.109a.985.985 0 01.218.328c-.174.183-.198.201-.437.328-.156-.38.086-.093-.218-.546.29-.077.09.008.328-.11zm-2.294-.436v.546c.482.128 1.03.708 1.286.898l1.117.63c.258-.173.494-.527.704-.824.37-.521.279-.567.279-1.36-.515-.042-.342-.164-.767-.34-.786-.323.03.122-1.09.122-.007.333-.049.398-.109.655h-.328c-.201-.865.328-.465.328-1.091 0-.24-.28-.688-.721-.076-.407.564-.282.689-.698.84zm-4.15 8.297c.123.089.031-.005.188.154l.11.114c.011.017.033.044.042.062.027.05.221.186-.07.364-.307.188-.467-.136-1.034-.149-.078.34-.139.317-.218.655l2.73 1.31c.192-.285.272-.452.437-.764l-.9-.4c-.616-.5.611-.32.988-.385.43-.075.555-.225.567-.743-.656-.315-1.625.362-2.172-.728-.01-.02-.027-.081-.035-.103-.07-.197.258-.37-.85-.37-.099.462-.013.547.218.982zM73.274 4.475c.794.185.77.214.888-.312a5.3 5.3 0 00.095-.78c.405.109.141.111.546.219 0 .73.039 1.31.764 1.31.337 0 .251-.065.294-.287.051-.267-.145-.464-.223-.648l-.29-.92c.324-.087.144-.041.33-.218.722-.689.544-.38.544-1.093-.504-.117-.526-.149-.9.196-.398.367-.32.252-.41.677h-.437c0-.58.099-.61.11-1.091-.855-.071-.738-.438-.91.51-.042.231-.132.549-.166.816-.045.357-.046.527-.096.778-.073.368-.13.456-.139.843zm31.668 15.611c.227.34.218.425.765.437l.122-.433.751-.004c-.123.526-.275.391-.364.817-.082.394.06.617.364.82.624-.166.386-.353.574-1.054.079-.294.081-.195.081-.583 1.089 0-.003-.072 1.035-.183 0 0 .311.213.494-.472-.416-.62-.438-.513-1.219-.176-.461.2-.383.128-.637-.042l.296-.36c.517-.497.137-.95-.187-.95-.236 0-.106-.105-.501.372-.501.603-1.448 1.34-1.574 1.811zM74.037 124.232c0-1.223-.074-.873-.873-.873l.43 2.837c.195.62.278.149.88.438 0-1.313-.245-.889-.11-1.529h.329c.525 1.45 1.42 1.143 1.42.874 0-.817-1.232-.881-.586-2.222.077-.159.148.004.148-.726-.475-.111-.834-.036-.957.465-.245.994.154.541-.68.736zm-12.012.983l.033.032c-.002-.002-.043-.022-.033-.032zm0 1.309v-.545c1.098.293-.311 1.31 1.638 1.31-.015-.713-.184-.589-.277-.706-.173-.218-.06.001-.207-.343-.287-.669-.243-.625-.009-1.082.342-.667-.015-.17.493-.38-.085-1.03-.825-.888-1.074-.201-.123.341-.069.321-.236.637-.2-.098-.137-.084-.437-.109v-.982h-.764c-.263 3.151-.386 3.166.764 3.166 0-.46-.046-.442.11-.765zM84.084 5.894c.316.213.337.226.437.656-.258-.06-.323-.102-.656-.11l.219-.545zm-1.201.983c.219.105 1.348.437 1.747.437.66 0 1.201-1.353.365-1.785l-.693-.508c.407-.095.693 0 1.31 0 0-.683.18-.479-.688-.84-.35-.146-.614-.242-1.059-.252-.194.405-.397.998-.532 1.433-.085.27-.142.508-.233.75-.105.276-.186.39-.217.765zm33.415 28.056l1.51.57a.8.8 0 01.06.04c.375.271-.576.253.614.154-.212.29-.796.56-1.201.655.011.509.128.576.327.874.144-.076.098-.061.267-.17.409-.267-.291.167.131-.088l.959-.46c.328-.183 1.085-.625 1.373-.702v-.218c-.875-.204-1.009-.432-1.965-.655.15-.563.311-.373.71-.55.31-.14-.007-.11.382-.214-.095-.404-.181-.305-.219-.764l-2.221 1.055c-.366.192-.509.176-.727.473zm7.972 28.602h.982c.452 0 .983-.357.983.218 0 .527-.966.446-1.532.434-1.298-.026-.87-.056-.87.877.389-.161 2.612-.11 3.057-.11v-2.292l-2.057-.038c-.007 0-.284.033-.345.038-.065-.277-.091-.546-.437-.546-.711 0-.344 1.42.219 1.42v-.001zM48.375 3.93c-.31-1.334-.116-1.31-.764-1.31-.47 0-.29.369-.227.652.106.483.008.381.116.767.154.544.387 1.125.439 1.746.605-.161.56-.723 1.053-1.239.366-.382.205.048.366-.398.357.26.127-.036.27.494.073.266.114.48.167.707.424-.035.285-.099.764-.11l-.764-3.165c-.335.245-.11.078-.337.428L48.377 3.93zm27.956.764c0 .577 1.195 1.065 1.47-.276.102-.494.266-.872.277-1.362.736 0 .798-.046.66.423-.102.346-.081.167-.114.274l-.328 1.814c.354.075.333.073.765.11.143-.616.655-2.503.655-3.057-.31-.072-.178-.085-.473-.15-.261-.06-.13 0-.495-.083-.37-.085-.722-.204-1.216-.204-.008.014-.015.024-.016.045 0 .002-.475 2.056-.69 2.165-.239.12-.495-.191-.495.3zM36.145 6.877l.874 2.183c-.375.511-.31-.116-.328.655.602.404 1.201.132 1.201-.764 0-.38-.603-1.124-.655-1.746.423-.047.083-.051.546-.219l.523 1.284c.158.395.306.37.35.9h.437c.13-.346-.237-.157.328-.219-.044-.525-.606-1.667-.852-2.205-.136-.297-.212-.482-.35-.742-.629.333-1.414.524-2.074.873zm40.404 118.556c.092.392.054.413.34.502.324.102.062-.155.643.153.054-.656.2-.246.361-.728.21-.626-1.107-2.189.294-2.22 0 .398.42 2.14.546 2.402.215-.103.504-.158.764-.218l-.746-2.943c-.169-.194-1.653.245-1.949.37-.466.197-.303.062.109 1.792.202.85.005.39-.362.89zm45.537-75.762c.173.647 1.033.737 1.465 1.156.17.166.067.026.131.22.011.033-.01.137.042.261-.708 0-.672.095-1.202.219.016.188.034.378.047.444.057.311.058.389 1.179.126.59-.139 1.464-.448 2.051-.461-.109-.408-.261-.312-.923-.825l-.06-.049c-.019-.013-.044-.033-.064-.045-.417-.278-.655-.168-.701-.719.708 0 .672-.094 1.202-.218 0-.431-.035-.443-.11-.764-.446.01-1.154.22-1.556.3-.578.113-.982.234-1.501.355zm-52.962 75.98c.237.495.15.429.18 1.011.027.543.175.299.802.299 0-.727.053-2.6-.218-3.166-.356.095-.225.109-.426.339-.099.112-.095.114-.21.225l-.228.21c-.328.347-.327.625-.883.755.105-.227.048-.584-.025-1.006-.076-.432-.142-.304-.849-.304 0 1.166.218 2.052.218 3.165.596-.138.693-.626 1.24-1.163l.399-.365zM67.158 3.929c.276-.184.613-.493.906-.73l.696-.506c.224-.094.05-.067.363-.074-.146.305-.315 1.42.219 1.42h.436c0-.576.326-2.603.193-3.047-.096-.318-.1-.188-.409.082-.025.02-.098.085-.123.106l-.24.206c-.62.543-.326.3-1.058.687V.654h-.765c-.022.98-.4 2.498-.218 3.275zm45.099 20.852c.168-.155.052-.155.219 0l.351.304c-.145.19-1.545 1.353-1.88 1.442.054.652.173.188.328.764.378-.1.348-.212.655-.436l1.966-1.42-.291-.457-.018-.047-.271-.332c-.369-.344-.529-.792-.84-1.02-.484.256-.757.585-1.176.867l-.051.03c-1.248.81-.41.268-1.284.195-.48.87.289 1.518 1.155.939l1.138-.83h-.001zM1.419 73.36c-.09.429.008.606.094 1.106.08.463.139.778.234 1.187.819 0 1.504-.17 2.184-.328l.09.178c.45.514 1.316.396.674-.942-.54-.13-1.041-.134-1.515.015-.41.128-.997.403-.997-.124 0-.514.587-.434 1.005-.525.394-.085.89-.206 1.289-.24 0-.664.185-.975-1.189-.63l-1.09.208c-.334.092-.297.095-.779.095zm2.949-26.637c-.864 0-.75-.28-1.31-.328-.535 1.115-.001.942.47 1.059.275.068.498.114.786.196.584.168.862.383 1.583.383-.089-.331-.31-.64-.473-.947-.137-.26-.337-.742-.401-1.018.412-.087.155-.094.615.032.254.07.463.132.695.186l.11-.873c-.48-.01-1.046-.239-1.473-.383-.497-.168-.925-.336-1.476-.381.04.483.267.8.475 1.17.472.838-.102.25.35.84.008.013.039.04.049.064zm60.606 78.819c0-.661-.068-.925-.11-1.419H64.1v2.838c0 .375.209.334.41.217l.616-.61.054-.056.667-.643c.11.23.219.952.219 1.31h.764c0-1.011.117-2.198-.109-3.165-.2.053-.111.036-.218.109l-.827.811c-.059.061-.16.163-.219.218a3.35 3.35 0 01-.483.39zm-30.03-6.332c0-.967 1.645-1.513 1.791-.283.071.596-.55 1.306-1.164 1.093-.277-.096-.627-.497-.627-.81zm.764 1.528c3.388 0 1.473-4.762-.99-2.846-.506.393-.625 1.102-.43 1.751.153.503.82 1.095 1.42 1.095zm1.638.219l-.122.432c.187.264.145.118.231.441.391 0 .894.091 1.134-.303l.024-.051c.006-.011.017-.041.023-.053l.675-1.558h.328c.129.346-.237.157.328.218v.219c-.407.164.039-.205-.54.88-.17.32-.1.438-.443 1.085.235.158.321.25.655.328.464-.34 1.275-2.411 1.31-2.839-.465-.223-1.673-.84-2.074-.873l-.568 1.228c-.43 1.25-.588.692-.961.846zm5.133 1.965c-.47 0-.983-.223-.983-.764 0-.677.183-.713.436-1.092h.874c.055.208.044.107.115.214l.047.064.143.191c.37.655-.403 1.387-.633 1.387zm-1.857-1.092l.267.951c.45.985 3.118 1.484 3.118-1.06 0-1.289-2.323-2.153-3.152-.531-.052.102-.233.548-.233.64zm79.17-83.076l.033.032c-.002-.002-.044-.021-.033-.032zm-1.856-1.092c.046.551.305.494.778.642l.761.32c.245.177.159-.063.099.13.082.147.059.12.109.327-.929.197-.429.199-.983.328.028.335.104.525.219.764.347-.029.455-.1.745-.237.539-.253 1.873-.772 2.094-1.073-.197-.27-1.294-.742-1.857-.873.173-.649.32-.248 1.092-.765l-.233-.759-1.001.399c-.034.01-.137.036-.17.048-.236.084-.128.046-.228.1l-.621.361c-.31.15-.464.209-.804.288zm7.644 16.593c.011-.01.032.018.032.033l-.032-.033zm-2.184-1.637c-.187.601.335-.51.109.218-.431 0-.443.035-.764.11.079.297.134.27.336.428.672.527.88.412 1.302 1.209-.978 0-1.202.103-1.202.655 0 .391.253.331.585.281.375-.057.603-.115.935-.181l1.647-.318c-.179-.672-.477-.048-.546-.874-.378-.008-.441-.028-.69-.196-.962-.65.385-.664.909-.786-.036-.431-.034-.41-.11-.764-1.123.025-.905.352-2.511.218zm-73.274 71.941l.213.126c-.125.256-.129.824-.213 1.184.421.035.352.109.874.109l.655-3.056c-.542.045-1.63.794-2.075 1.091 0-.575.176-1.014.219-1.528-.516-.043-.655-.333-.846.13-.017.041-.066.368-.088.464l-.37 1.49c-.045.198-.078.335-.101.458a6.918 6.918 0 00-.036.232c-.018.371.375.138.677-.075l1.091-.625zm58.422-101.853c-.141-.118-.118.186-.09-.218.017-.24-.006-.091.09-.219-.229-.585-.134.182.22-.526.133-.267.52-.38.817-.302l.291.15c.065.053.221.09.295.488.006.029.014.062.018.094a2.52 2.52 0 01-.016.398c-.152.655-1.375 1.07-1.625.135zm-.873-.655c0 2.662 3.276 2.488 3.276.328 0-.946-.611-1.557-1.479-1.696-1.019-.164-1.797.774-1.797 1.368zM3.712 79.037c-.203-.503.08-.024-.404-.252-.363-.17-.36.001-.36-.84 0-.424.98-1.027 1.605-.403.96.96-.695 1.392-.709 1.4-.593.334.59-.144-.132.094zm-1.092.436c1.144.095-.07.479 2.29.198l.43-.864c.403-1.009-.072-1.741-.91-2.239-.17-.1-.045-.068-.239-.11-.23-.05-.329.067-.588.067-.203 0-.193-.108-.373-.021l-.29.222c-.567.433-.84 1.045-.667 1.779.145.618.305.466.347.968zm-.655-19.868c-.606 0-.647-.11-1.201-.11-.075.322-.11.334-.11.765.554.012.294.063.726.148l2.337.138c.371-.074.208-.13-.05-.441l-.16-.182c-.07-.085-.11-.151-.188-.253l-.808-1.048c.208.005.29.02.449.038.61.074.325.122 1.08-.038v-.655c-.492-.236-2.455-.328-3.276-.328.262.496 1.129 1.43 1.199 1.605l.002.36zm50.232 63.535c-.376.152-.21.248-.39 1.467-.089.61-.144 1.071-.265 1.59.518-.121.48-.273.856-.442l.243-.081c.233-.116.222-.275.462-.365.015-.006.048-.009.064-.014.386-.11.189.085.45-.19-.021.943-.653 1.502.546 1.529.19-.819.546-2.224.546-3.166-.482.112-.942.547-1.408.795-.828.44-.449-.236-.449-1.123-.97-.084.508-.192-.655-.218v.218zm60.934-94.648c0-.595.181-1.201.983-1.201.427 0 .764.406.764.873 0 1.242-1.747 1.12-1.747.328zm-.765-.328c0 1.87 2.167 2.021 2.731 1.36.209-.245.19-.391.545-.486 0-1.465-.23-2.158-1.334-2.499-.34-.105-.387-.098-.636-.021-.76.233-1.306.717-1.306 1.646zM2.074 63.098c-.494-.041-.758-.11-1.42-.11-.093.443 0 .28 0 .874.675.157 2.15 0 3.167 0-.309-.584-.886-.97-1.127-1.294-.866-1.166 1.127.126 1.127-1.107 0-.506-.871-.33-1.419-.328-.619.002-1.238 0-1.857 0 .113.483.072.292.342.532l1.187 1.433zm-.437 7.75c0-.424.153-.46.46-.636.299-.172-.116-.012.28-.16.374-.141.58.103 1.117.36v.873c-.388.14-.01.007-.197.095-.656.308-.151.233-1.114.233-.353 0-.545-.396-.545-.764zm.11 1.638c.668 0 1.211.075 1.663-.192 1.86-1.103.053-4.336-1.886-2.76-.783.636-.815 1.755-.034 2.554.288.294.16.038.257.398zM40.076 6.331c1.13-1.688 1.747-.02 1.747 0 0 .836-.057 1.092-.983 1.092-.542 0-.59-.704-.764-1.092zm-.765-.218c0 .635-.074.938.261 1.377.15.197.033.065.207.229.697.656 1.767.5 2.344.004 1.45-1.248-.26-3.772-2.116-2.553-.176.116-.696.736-.696.943zm5.133-.328c.395.264.641.526 1.092.764.1-.21.26-1.022.328-1.31h.218c.089.38.252.598.437.874.48-.011.34-.074.764-.11-.067-.809-.044-.212-.73-1.453-.212-.385-.636-1.247-1.017-1.385-.119.248-.15.698-.256 1.054-.134.448-.18.582-.18 1.13l-.398-.367c-.17-.156-.234-.223-.394-.37-.265-.245-.64-.599-.956-.683 0 1.238.219 2.164.219 3.275.239-.115.43-.19.764-.218 0-.58-.005-.645-.11-1.092l.22-.109h-.001zm70.871 25.436l.032.032c-.002-.002-.043-.021-.032-.032zm-1.311-.327c.042.503.089.297.328.654.481-.01.51-.109 1.092-.109-.045.539-.324.777-.437 1.201h1.311c-.073.874-.546.414-.546.983 0 .262.177.32.327.546.418-.222 1.424-1.29 1.799-1.698.796-.867.83-.595-1.689-.595.136-.33-.037.074.043-.183.036-.115.022-.093.093-.236.241-.489.693-1.125.737-1.655-.559.13-.986.37-1.529.546l-1.528.545h-.001zM.545 65.28v.219c.5.041 1.203.698 1.857.873-.17.32-.03.16-.282.373L.655 67.792l1.81.456c.184.05.548.022.693.048 1.145.207.731.093.663-.722-.32-.007-.877-.116-1.092-.219.327-.487.722-.43 1.092-.982l-1.073-.676c-.02-.026-.405-.055.195-.177.065-.013 1.199.036.77-1.003l-1.966.437c-.026.009-.052.022-.079.03l-.358.079c-.951.175.021.132-.764.218zm46.301 58.514l.033.032c-.002-.002-.044-.021-.033-.032zm62.463-56.658c0-.738-.049-1.134-.481-1.712l-.396-.391c-.27-.171-.794-.376-1.091-.328l-.499.287c-.351.276-.508.802-.574 1.245-.031.212-.034-.038.017.22l.286 1.014c.471.923 1.607 1.435 2.349.696.191-.19.389-.726.389-1.031zM25.115 84.604c1.453 0 .885.112 1.291-2.64l.675-5.875c.053-.469.099-.954.17-1.468.073-.522.157-.975.157-1.48-1.075 0-.97-.01-1.198 2.623-.038.44-.073 1.028-.156 1.482-.294 1.605-.33 2.779-.547 4.365a56.92 56.92 0 00-.182 1.455c-.052.462-.2 1.077-.21 1.538zm14.087-33.078c.257-.123.543-.177.883-.214.096-.011.412-.04.486-.043.293-.015.284.026.479-.002l.85-.209c.466-.062.702.032.797-.405V36.57c-.162.185-.109.109-.198.349l-1.611 7.013c-.187.98-.238.735-.438 1.855-.076.427-.113.504-.22.872-.114.398-.11.584-.203.997-.195.863-.825 3.075-.825 3.87zm77.969 11.244l-.108 4.259c.009.93-.288 1.95-.192 2.773.068.594.267 1.737.377 2.499l.578 2.805c.023-1.01 1.092-5.025 1.092-9.715 0-2.292.053-4.667-.209-6.888-.393-3.334-.669-5.541-1.563-8.813l-2.579-7.57c-.209-.525-.405-.882-.64-1.433l-2.361-4.62c-.269-.331-.227-.264-.439-.66l-4.249-6.123c-.231-.256-.232-.274-.433-.55l-1.458-1.708c-.352-.453-.609-.68-1.003-1.072l-1.057-1.126-.051-.058-.051-.058-.052-.057-4.946-4.385c-.166-.184.11 0-.215-.184-.952-.541-.754-.72-1.298-.764 0 2.214-.308 1.854 1.03 2.9l.657.543c.303.255-.183-.155.12.099l1.972 1.74.056.053 3.399 3.48c.238.24.242.252.456.527l1.841 2.198c.165.208.269.357.422.561l2.9 4.197c2.207 3.317 4.102 7.806 5.424 11.717.198.583.283 1.001.465 1.609.325 1.085.56 2.088.813 3.227.116.52.258.974.368 1.597.43 2.45.934 6.567.934 9zm-50.778 49.235l.033.032c-.002-.002-.044-.021-.033-.032zm-4.368 0l.06-.235-.06.235zm5.023-.655c-.07.301-.052.246-.218.436-.044.115.095.462-.216.129-.175-.188-.171-.037.107-.238.03-.062.075-.189.096-.23.103-.202.049-.101.122-.206.104-.39.09-.166.255-.51.206-.43-.14-.329.4-.473-.066.287-.11.327-.21.555-.123.281-.096.362-.336.537zm.546-1.31c.155.167.155.051 0 .218v-.218zm.11-.219l.032.033c-.002-.002-.043-.022-.032-.033zm0-.218l.032.033c-.002-.002-.043-.022-.032-.033zm-3.386 2.511c-.658 0-.873.055-.873-.655 0-1.03.472-1.544 1.115-2.379l1.068-1.115c1.366-1.047.887-.623 2.076-1.419-.085 1.02-1.994 5.568-3.386 5.568zm4.696-10.698c.028-.225.576.026.102.01-.042-.002-.133.234-.102-.01zm-4.04 0c0-.28.172-.018.064 0-.001 0-.065.304-.065 0zm.764-3.821c.244-.51-.059-.281.327-.437-.227.475.058.323-.327.437zm6.115-.983l.033.033c-.003-.002-.044-.022-.033-.033zm-5.678 0l.032.033c-.002-.002-.043-.022-.032-.033zm-42.37-68.338h.11l1.194-1.317c.315-.343.341-.474.756-.78.168-.124-.009.09.212-.186.463-.578.198-.403.998-1.108l8.811-6.693 2.27-1.334c.239-.115.342-.152.52-.243.283-.143.217-.122.481-.283.32-.195.16-.095.523-.242.43-.173.184-.085.495-.27 1.143-.675 2.467-1.13 3.714-1.636l.784-.307c.15-.067.057-.04.288-.149.909-.426 1.911-.666 2.855-.967l5.481-1.398c.685-.078 1.288-.439 1.957-.118l.219-.327 3.54-.391c1.218-.176 2.56-.022 3.747-.185 1.052-.144 2.48-.011 3.746.026l5.44.566c.44.073.294.15.787.196.526.049.426-.018.869.114l1.098.262c1.927.352 3.272.844 5.084 1.316.783.204 2.37-.508 3.207-.703v-.219c-.896-.074-3.211-1.047-4.345-1.332-.289-.073-.7-.22-.93-.272L69.989 8.85c-.719-.054-1.437-.048-2.165-.131-.275-.031-.583-.12-.817-.145-.23-.025-.651-.063-1.047-.062l-4.404.036c-1.17.003-2.744.198-3.998.303-.637.053-1.388.142-2.02.273-1.701.352-3.157.533-4.823.964l-1.42.328c-.51.19-1.21.22-1.642.425-.14.066-.26.14-.366.186L40.27 13.73c-.157.064-.094.03-.228.1l-5.36 2.94c-.165.098-.187.117-.353.198l-.366.233c-.009.009-.029.034-.039.043-.361.34-.816.54-1.212.83-.488.356-.861.591-1.34.952-1.52 1.143-3.126 2.247-4.484 3.596-.245.244-.354.343-.62.581l-3.006 3c-.016.016-.037.04-.052.057l-.642.669c-.017.015-.042.034-.059.05l-2.986 3.656-5.194 8.478c-1.123 1.848-2.421 5.518-3.121 7.68C9.706 51.43 8.689 56.33 8.63 61.356c-.007.563-.088.6-.114 1.086-.088 1.62.039 4.92.282 6.597.105.73.119 1.36.217 2.075.203 1.47.4 2.693.703 3.992l.071-.146c.155-.408-.071.262.06-.159l.216-1.204c.075-.536.173-1.136.264-1.7.203-1.261.417-1.942.216-3.295-.263-1.778-.273-5.718-.172-7.579l.53-5.146c.428-2.598 1.083-5.334 1.81-7.906.62-2.188 2.102-6.178 3.29-8.173.14-.234.233-.406.353-.63l1.322-2.5c.13-.203.25-.323.394-.589l3.063-4.579 2.67-3.226zm57.876 76.744v-.109.109zm.219-.546c.136.319.2.127-.11.219l.11-.219zm0 0l.213-.125-.213.125zm-36.146-.545l.126.213-.126-.213zm36.473-.109c0-.28.173-.018.065 0-.001 0-.065.304-.065 0zm-36.473.109l-.125-.213.125.213zm6.225-.874c-.11-.146-.11.23-.11-.327.102.133.071-.123.11.327zm-1.857-.436c.117-.116.415.173.122.056-.002-.001-.304.127-.122-.056zm8.19-.219l.033.033c-.002-.002-.043-.022-.033-.033zm-.218 0l.032.033c-.002-.002-.043-.022-.032-.033zm.11-.327l.032.032c-.002-.002-.044-.021-.033-.032zm-6.225 0c-.06-.318.233.028.111.02l-.026-.002c-.197-.026-.04.23-.086-.018zm1.31-1.747l.032.033c-.002-.002-.043-.022-.032-.033zm23.915 4.476l1.387-3.307c.338-.881 1.205-2.415 1.95-2.864.393-.237.032-.124.513-.126 1.872-.006 1.105 2.148.591 3.205-.474.974-.286.788-.989 1.849a4.6 4.6 0 01-.622.797l-.054.055-.056.054c-.62.586-1.422 1.075-2.251.632-.206-.109-.307-.186-.47-.295zm6.552-4.585c-.075-.117-.063-.002-.1-.228-.016-.099-.01-.217-.01-.318.274.197.165.117.11.546zm-37.674-3.166l.032.033c-.002-.002-.043-.022-.032-.033zm0-.328l.125.213-.125-.213zm12.667-.218c.183.397-.064.433-.11.983h-.218c.082-.35.13-.7.328-.983zm-30.904-1.637l.033.032c-.002-.002-.044-.022-.033-.032zm.328-.11l.033.033c-.003-.002-.044-.022-.033-.033zm70.762-.218c.327.076.622.188.983.218-.297.405-.345.053-.983 0v-.218zm-70.653 0c.132-.132.4.187.141.114-.166-.047-.27.015-.141-.114zm.874-.11c0-.278.173-.017.064 0 0 .001-.064.306-.064 0zm69.123-.108l.033.032c-.002-.002-.043-.022-.033-.032zm-.436 0l.032.032c-.002-.002-.043-.022-.032-.032zm-67.923-.11l-.213.126.213-.126zm-.437 0l.033.033c-.002-.002-.043-.022-.032-.032zm1.201-.327l.033.032c-.002-.002-.043-.021-.032-.032zm65.412-2.947c.116-.117.414.173.121.056-.002 0-.304.126-.121-.056zm-.874-.11h.328v.219h-.328v-.219zm-63.336 0h.328v.219h-.328v-.219zm-.765.11c.117-.117.415.173.122.056-.002 0-.304.126-.122-.056zm62.572-.219l.033.033c-.003-.003-.044-.022-.033-.033zM62.134 85.26c.116-.116.415.173.122.056-.002 0-.305.127-.122-.056zm-9.718-.437l.032.033c-.002-.002-.043-.022-.032-.033zm-.219 0l.033.033c-.003-.002-.044-.022-.033-.033zm22.495-4.257c1.035.023-.307.218 1.638.218.695 0 .44-.417 1.31-.436 0 .777.11 1.136.11 1.965.751 0 2.015.077 2.62.218 0 .465-.017.48-.087.794l-.24 2.48c-1.328 0-3.815.262-4.662-.688L75 84.399c-.05-.19-.03-.205-.064-.384l-.011-.063-.016-.06-.217-2.235c-.019-.341 0-.744 0-1.092zm-8.08-2.62l3.193 1.065c.62.143 1.108.274 1.625.449.564.19 1.128.322 1.624.56 0 1.991.11 3.596.11 5.567h-2.621c-.345-1.48.19-3.185-.328-3.93a21.526 21.526 0 00-.333 1.96c-.086.645-.322 1.305-.322 1.97-.681 0-.751-.182-1.666-.173-.284.002-.15-.014-.518-.045.082-.2.055-.27-.005-.639l-.213-.671c0 .623-.11.755-.11 1.419h-.436c0-1.872-.251-2.873-.016-4.929.065-.572-.1-2.151.016-2.604zm9.39 1.528c-.414 0-.276.004-.566-.089l-.238-.089c-.28-.09-.731-.183-1.016-.403l-.254-.292c.546-.366 1.923-.546 2.621-.546l-.546 1.419zm-5.35-1.747l.032.033c-.002-.002-.043-.022-.032-.033zm-.11 0c-.294-.024-.296-.05-.545-.109.006-.004.08-.195.344-.152.257.042.12-.045.202.261zm-.436-.436l.033.032c-.003-.002-.044-.022-.033-.032zm-25.88-.874c.95 0 2.067-.154 2.73 0l-.329 5.567c-.063 1.184.108 3.065-1.057 3.697-.45.244-.296.301-.798.343.01-.501.109-.57.109-1.746l-.437 1.855-2.293.11c0-1.09-.02-.84-.219-.983l-.185.89c-.081.25-1.999.537-1.999-1.873l.546-8.296c.593 0 1.778.327 2.84.327 0 1.41-.437 5.133-.437 6.55.143.004.435.049.467.05.28.01.14-.018.516-.05l.357-5.874c.037-.202.207-.523.188-.567zm24.351.655c-.43 0-1.919-.498-1.965-.546-.104-.222.012-1.348.27-1.694.24-.322.948-.339 1.314-.434.315-.082.22-.164.49-.164.834 0 .697 1.327.367 2.113l-.034.075-.034.076c-.098.219-.195.574-.408.574zm-23.26-2.074c0 .36.09.641-.133.796-.013.009-.593.124-.764-.067-.148-.164-.023-.308.103-.421.183-.165.492-.283.795-.308zM75.239 77.4c-.336 0-.372-.121-.492-.387-.306-.678.236-1.831.367-2.031.357-.546 2.077-.566 2.855-.748-.008.39-.784 2.508-1.106 2.716-.41.267-.625.083-1.08.24-.174.06-.322.21-.543.21zm-34.834-3.275c.78.522.413.62.706 1.092.117.19.142.244.167.546-.582.048-1.402.315-1.529-1.201.582-.28.37 0 .656-.437zm29.593-.328c1.253-.104 1.545-.765 2.237.729.468 1.01 1.694-.03 1.694.581 0 .937-.485.537 0 2.62-.226.109-.081.05-.38.134l-.248.062c-1.424.46-1.347.315-1.921-.594-.338-.536-.377-.475-1.163-.475-.304-1.304-.053-.223.033-1.491.023-.356-.013-.316-.112-.715-.08-.325-.13-.522-.14-.85zm-30.904-1.2c0-.32.895-.998 1.21-.118.07.195.156.65.21.882-.074.049-.166.098-.273.164l-.265.171c-.232.164-.24.236-.554.32-.105-.451-.328-.885-.328-1.42zm-6.006 14.519l-1.43.2c-1.226.18-.52-.06-1.627.237l1.556-7.396c.408-2.067 1.372-6.815 1.899-8.692l.456-1.072c.795-1.315 1.917-1.072 3.623-1.072 0 5.496 1.313 4.38 1.172 6.679-.08 1.316-.818 10.397-.953 10.679-.542-.196-.247-.36-.216-1.197.021-.562-.003-1.181-.003-1.75h-.109c0 1.026-.218 1.833-.218 2.947-1.695.201-1.235.187-1.413-.225-.152-.353.233-.094-.226-.43v.764c-.257.06-.322.102-.655.11-.182-.781.357-4.74.434-6.117.034-.61.07-.907.122-1.516a29.93 29.93 0 01.163-1.584l.182-2.328c.125-.782.154.189.139-1.004l.052-1.316c-.319.23-.111.046-.224.322l-.032.093c-.191.54-.327 1.813-.557 2.702-.437 1.686-.986 5.51-1.46 7.384l-.675 3.582zm7.316-15.502c0-.228.077-.292.26-.38.153-.072.272.002.409.048.655.222.285.129.751.441.508-.135.097-.172.655-.218.161.304.124.263.24.634.115.37.122.46.416.567v.436c-.382.089-.368.219-.765.219-.245 0-.38-.231-.657-.333-.586-.216-.375.148-.661-.108-.156-.14-.144-.48-.265-.705-.17-.314-.383-.275-.383-.601zm-1.528.11l.032.032c-.002-.002-.043-.022-.032-.033zm5.023-.983l.437-.219c.158.68.218.598.218 1.529-.304.203-.536.367-.873.545-.76-.72-.197-.69-.546-1.419.253-.17.43-.347.764-.436zm22.714 1.092h-.219c0-.518-.064-.95.11-1.31.638.17.109.507.109 1.31zm10.155-.874c.36-.084.296-.14.676-.206.28-.047.538-.061.674-.072l.545-.038c.38-.081.266-.12.835-.12-.036.44-.178.671-.323.986-.052.112-.154.33-.206.45-.534 1.224-.078 1.156-1.653 1.496l-.62.164c-.522.05-.49-.177-.568-.592l-.029-.134c-.092-.453.167-1.301.568-1.702l.077-.068a.535.535 0 00.022-.03l.002-.134zm-29.484 1.2c.14.29.1.118.11.547.484 0 .506-.028.587-.087l.11-.134c.459-.513.52-.312.484.173-.004.044-.088.596-.118.783-.257 1.558-.55 1.885-1.5 1.885-.21-.397-.165-.618-.546-.874-.037.446-.056.445-.437.546-.748-1.117-.652-3.798-.655-5.022-.002-.754.11-1.277.11-1.855.333.027.35.074.543.22 2.087 1.57-.025 3.708 1.312 3.819zm23.915-2.073c.91-.212 1.342-.584 1.988.086.222.23.085.064.233.313l.4.693c.661 0 .925-.068 1.42-.11.356.863-.382 1.025-.103 2.068.073.275.073.187.107.337.088.384-.006.462-.34.644-.4.217-1.282.326-1.74.335-.184-.275-.2-.41-.39-.7-.251-.387-.373-.306-.483-.719-1.9 0-.814-.275-.802-1.542.003-.242-.236-.982-.29-1.405zm-31.122.983c-.745.498-.43.545-1.31.545-.094-.787-.297-1.083.167-1.6.11-.123.79-.606 1.014.195.06.211.124.637.13.86h-.001zm63.227-1.31l.213-.126-.213.125zm-76.44-.219c3.444 0 4.05-.509 3.323 4.742-.394 2.847-.79 8.78-1.26 11.294-.073.394-.205.806-.4 1.128-.956 1.572-2.009 1.19-2.594 1.337-.41.103-.15.1-.705.172-.959.124-.939.182-.995-.32-.042-.382.01-1.217.01-1.65-.476.684-.102 2.041-.77 2.19l-.768-.105c-.023-.011-.05-.028-.07-.04-1.137-.685-.567-3.052-.377-4.357.121-.833.17-1.565.298-2.432l.813-6.065c.044-1.15.383-3.701.897-4.72l.077-.151.03-.052c.457-.802.473-.545.831-.714l.049-.029c.01-.005.034-.024.046-.029.37-.175 1.075-.199 1.565-.199zm62.462-.218c3.404 0 2.44-.228 2.667 1.373l.432 4.59c.01.036.044.132.056.162.064.154.065.125.121.207l.335-4.588c.019-.272.021-.474.029-.6l.073-1.035c4.007 0 2.654-.565 2.625 3.606l-.129 1.946c-.444 4.305-.046 2.704.841 6.941.337 1.608.233.755.486 1.807.254 1.053.873 2.935.873 3.822-.64-.014-.26-.064-.607-.147-.668-.16-2.286.1-2.6-.577l-.955-4.067c-.234-.857-.37-2.1-.643-2.414 0 2.268.546 4.409.546 6.659-.369 0-.51-.057-.787-.087-.663-.071-1.088-.044-1.176-.79-.045-.38-.056-.839-.064-1.076l-.266-1.868c-.207.325-.013.606-.034 1.436l.143 2.057h-.764l-1.27-14.509c.025-1.058.049-.276-.121-1.134-.068-.344-.356-1.715.187-1.715zm-48.594-.437c1.402.742.235.654 1.638.328.072.86.24.95.546 1.528-.26.175-.29.355-.61.33l-.304-.032c-.018.004-.051.017-.069.023l-.218.116c-.344-.514-.305-.437-1.092-.437-.42-1.801-.918-1.312.11-1.856zm42.37.328h.655c.351 1.506.215 6.178.655 7.096.4.185 2.108-.114 2.896.38.715.446.992 1.657 1.033 2.461l.36 4.88c.113.81-.03.814-.03 1.558-1.003.088.151-.133-.404.454-.424.45-1.489.563-1.818.02-.227-.375-.037-.605-.399-1.02 0 .603-.026.801-.218 1.201-1.37 0-2.512-.218-3.822-.218 0-1.785-.244-3.651-.329-5.24l-.114-3.379c-.048-.58-.16-1.505-.207-2.085l-.227-4.36c-.003-2.017.131-1.748 1.75-1.748 0 1.469.328 2.211.328 3.712h.11c0-.59-.1-3.444-.22-3.712zm-20.42-.11h.873l.218.11c1.378-.115 1.093-1.398 1.093 4.803 0 .613-.053.074-.14.513-.085.431.14.3.14 1.998l.109 8.842-1.977.016c-.947-.182-.193-.376-.863-.234v-3.603c-.146.17-.116.114-.2.346l-.673 3.475c-.494.011-.434.11-.983.11-.437 0-.342-.081-.654-.053-.48.043-.283.409-.438-.057-.368-.122-.11.338-.108-1.09l-.001-1.42h-.11c0 .955-.218 1.742-.218 2.729-.333-.138-.025-.044-.546 0 .07-.171.05-.36.048-.678-.001-.226-.07-.549-.02-.926.238-1.848-.128-4.5.145-6.303.13-.857.049-5.006.043-6.397-.003-.784.112-1.21.112-2.071 1.21.58 1.989.218 2.84.218v3.166c.329-.242.229-.676.426-1.43.316-1.212.174-1.033.297-1.559l.135-.361c.129-.13.2-.144.452-.144zm-5.897-.109l.032.033c-.002-.002-.043-.022-.032-.033zm14.96-.982c0 .236-.111.283-.189.455-.609 1.351.247.853-2.428 1.279l-.267.076c-.026.005-.055.015-.083.02-.175.03-.242.026-.418.026.132-.566.631-2.488 1.178-2.752.169-.082 1.51-.397 1.65-.377.21.029.412.17.495.462l.062.81zm-4.04-.437c-.596-.138-1.017-.11-1.748-.11.087-1.042.598.344.983-1.309.578-.013.296-.1.765 0 .197.847.107.58 0 1.42zm10.046 2.293c-.14-.598-.357-.536-.268-1.08l.464-1.235c.35-.536.294-.462 1.065-.574 2.14-.31 1.89-.32 1.49.952l-.13.376a.705.705 0 00-.025.057c-.53 1.23-.269 1.047-1.197 1.265-.517.122-.775.239-1.4.239h.001zm-5.242-3.494c.66-.054 1.299-.78 2 .076.285.35.136.443.435.765.022.023.088.086.114.105.24.174.478.178.83.14.39-.04.77-.29.77.224 0 .517-.218.698-.218.983 0 1.13.913 1.617-.865 1.866-.467.065-.972.229-1.275-.163l-.184-.362c-.012-.02-.027-.05-.04-.07-.546-.926-.94-.58-1.567-.725 0-.76.219-.596.219-1.42 0-.618-.219-.621-.219-1.418zM43.352 68.12c-.31-.463-.328-.122-.328-.873.49-.162-.116-.199.804-.38.49-.096.142-.153.725-.166l-.575 1.06-.073.026-.066.023-.258.136c-.763.527.468-.107-.23.174zm-3.385-1.528l-1.42.655c-.144-.538-.218-.088-.218-.874.584-.224-.313-.047.478-.608l.362-.208c.687-.247.785.472.798 1.035zm27.081-.655l.033.032c-.002-.002-.043-.021-.033-.032zm-22.495 0c.116-.116.415.173.122.056-.002 0-.304.127-.122-.056zm42.37-.655c.12.511.513.993-.219 1.528-.555-.372-.939-.858-.347-1.38.195-.172-.106-.148.566-.148zm-3.495-.11c0-.589.743-.208 1.047-.292.3-.083 0-.124.482-.253.173.743.5.506.655 1.091l-.457.527c-.623-.29-.637-.105-1.29-.09-.074-.895-.437-.523-.437-.982zm1.966-.982c0-.35.519-.625.874-.655.117.501.404.864.013 1.324-.253.298-.036.193-.56.205-.182-.504-.026.02-.193-.353-.097-.216-.134-.238-.134-.52v-.001zm-25.334-.11c0-.322.138-.55.416-.674.022-.01.232-.067.257-.071.816-.142 1.048-.035 1.522.188l.673.42c.734.621.291.523.735.684-.05.6-.094.329-.546.546.046.547.365 1.602-.35 2.38-.752.818-.79.785-1.725.785-.87 0-1.942-1.068-1.092-1.637.68.181.264.764.874.764.786 0 1.884-.867 1.122-2.223l-.143-.232c-.127-.171.235-.079-.298-.134-.368-.038-.562-.06-.868-.171-.28-.103-.578-.284-.578-.624zm9.61 2.075c.104-.254.011-.202.085-.567.065-.317.147-.518.227-.758.127-.377.423-1.055.452-1.404.334-.078.598-.163.957-.245.34-.077.814-.046 1.118-.192.498.744.594.411.2 1.947-.205.795-.316.858-1.849.99-.709.061-.649.103-1.19.229zm-20.093.328c-.182-.379-.163-.856-.328-1.201l7.098-1.201c-.204.424-.107.631-.21.958-.004.013-.013.045-.018.057-.164.403-.69.291-1.473.45-.408.084-.545.13-.998.204-1.32.215-2.782.432-4.072.732zm31.668-.874c-.659.154-1.518.49-2.184.546-.44-.656-.583-.78-.375-1.679.234-1.01.178-1.129 1.251-1.265 1.378-.176 1.797-.481 1.699.25-.1.736-.391 1.312-.391 2.148zm10.046-3.165c1.382 0 1.358-.173 2.029.7l2.23 2.574c-.362-.008-.427-.048-.733-.143l-.479-.162c-.387-.125-.542-.061-.888-.21-1.232-.533-.486-.154-1.54-.43-1.303-.342-.65.037-2.104-.275-.234-.05.001-.067-.371.02.194-.368.33-.59.134-1.008-.184-.393.005.012-.24-.325-.19-.26-.326-.44.098-.517.27-.05.643.021.964-.033.339-.057.418-.191.9-.191zm-13.76 1.2c.568.319-.059.436.018 1.496.04.557.221.227.315 1.07.047.419-.09.342-.856.514-1.33.3-1.207.19-1.6-.41-1.162-1.77-2.007.198-1.554-1.989.077-.375.05-.527-.101-.942-.183-.504-.245-.504-.153-.94.924 0 1.078-.44 1.706.04.278.21.748.955.915 1.27.717 0 1.024-.286 1.31-.108zm8.081-1.965c.042.496.553 1.158-.327 1.747-.537-.36-.729-.916-.175-1.49.015-.015.037-.04.052-.053.463-.435-.074.013.45-.204zm-22.058 2.074c-.053-.634-.235-.28-.11-.873l2.495-.236c.707-.072 1.759-.31 2.529-.31-.156 1.878-.238 1.193-1.742 1.316-.996.081-2.018.103-3.172.103zm19.547-2.62c.643.15.263.051.873 0 .034.41.158.512.328.765v.109c-.156.378.136.072-.328.764-.454-.218-.575-.23-1.092-.11-.016-.74-.644-1.319-.198-1.54.18-.09.267.1.416.012zm-29.157.11l.235.06-.235-.06zm16.817 1.091c.312-.466.134-.395.322-.88.332-.855 1.1-.404 2.207-.643.341-.074.091-.078.529-.114 0 .893-.26 1.357-1.045 1.34l-2.013.297zm12.34-1.2l-.11-.11.11.11zm-16.271-.437c.126-.127.622.184.136.044-.013-.004-.326.145-.136-.044zm16.707.109c-.185-.124-.145-.186-.46-.273-.429-.12-.047.343-.413-.164.448-.18.06-.293.692-.525.674-.247 1.11.186.365.817l-.061.049c-.016.012-.05.038-.061.048-.013.01-.042.03-.062.048zm-4.15.546c0-.767.25-1.763 1.103-2.065.277-.098.953-.373 1.223-.27l.3.256c.258.394.405 2.672-.926 2.912l-.808.085c-.02.005-.052.017-.072.02-.298.04-.037.083-.29-.022-.213-.089-.53-.727-.53-.916zM49.03 59.496l.033.032c-.003-.002-.044-.021-.033-.032zm9.937.327c0 .559.603 1.62.437 2.402l-.806-.286c-.32-.207-.845-.555-1.024-.84-.208-.331-.207-.39-.136-.73.445.297.21.422.874.437.049-.571-.104-.198.219-.328-.13-.388-1.093-.6-1.093-1.637 0-1.757 3.206-.963 1.904.483-.1.111-.375.296-.375.5zm-5.023 1.42l-.32-.175c-.012-.008-.041-.02-.053-.03-.317-.221-.161-.311-.5-.56-.004.15-.234 1.721.217 2.126.187.167.197.04.438.494-.864 0-1.365.147-2.033-.429l-.088-.082c-.172-.174-.526-.619-.702-.711-.456-.239-1.65.105-2.189.252l-2.334.51c-.695.153-.802.348-.954-.304.81-.018.932-.163 1.522-.334l3.615-.847a.859.859 0 01.471.155c.362.255.539.911.937 1.162.26.164.335.101.553.192-.092-.397-.136-.359-.318-.664l-.15-.288-.033-.075-.034-.075c-.161-.352-.367-.8-.161-1.339.21-.551.45-.457 1.05-.463.378-.004.087-.043.605-.16.552-.125.303.198.461-.211.741 0 .604.066 1.001-.158l.408-.113c.632-.088.345-.32.88-.388.112-.014.418.004.55.004-.036.43-.109.511-.109 1.092-.725-.06-.374-.212-.873-.546-.233.484.117.862-.118.889-.298.034.056.1-.115-.088l-.09-.127c-.014-.018-.031-.049-.047-.067-.25-.29-.043-.186-.395-.28-.048.578-.111.148-.178.575-.053.335.058.268.069.735-.52-.347-.246-.526-.765-.873-.12.45-.152.134-.193.56-.06.617.242.063-.025.64zm26.536-2.948c.062.03.19.075.23.096.203.103.101.049.206.122-.791-.017-.288-.05-.436-.218zm-.874.436c0 .542-.753.395-.98.44-.335.068-.211-.079-.33.216h-.656c-.147-.409.022.01-.158-.279-.838-1.348-.824-1.02-1.807-1.25.102-1.228 1.194-.796 2.035-.506 1.147.395 1.896.551 1.896 1.38zM47.83 56.766c.756 0 2.008-.009 2.021 1.281.014 1.392-.73 1.317-.91 1.408-.003.001-.476.673-1.453-.165-.348-.298-.731-1.193-.27-1.83.234-.325.24-.178.39-.31.054-.046.14-.065.222-.383zm26.863 1.092h-.327c0-.638-.11-.763-.11-1.31h.765c-.103.215-.303 1.009-.328 1.31zm-2.511-1.637l.885-.087c.276.01.566.015.636.75.027.288.009.675.008.974-.007 1.633.448 2.046-1.202 2.184.094-.177.05-.056.173-.264.139-.233.055.027.17-.376.159-.555.157-1.693-.082-2.242-.165-.38-.182-.408-.588-.503v-.436zm-9.938.218l.033.033c-.002-.003-.043-.022-.033-.033zm9.392-.11c.116-.115.414.174.121.058-.002-.001-.304.126-.121-.057zm-8.846 0c.226-.195.165-.186.546-.217-.233.318.016.204-.546.218zm17.036-.545c.98.229 2.342.11 3.385.11v1.964l-2.23-1.077c-.922-.318-.939-.546-1.155-.997zm-8.409-.873l.033.032c-.002-.002-.043-.021-.033-.032zm-.218-.11l.032.033c-.002-.002-.043-.022-.032-.033zm1.092-.218c-.28.419-.215.421-.655.328.222-.332.137-.316.655-.328zm.11-.109l-.11.11.11-.11zm-8.41-1.747c1.19 0 1.53.813 1.53 1.856.676-.495.095-2.463.436-3.93l.267 1.044c.985 3.947 1.426 3.566-1.596 4.286-.472.113-.49.129-1.073.129l.437-.437c-1.82-.151-1.48-2.947 0-2.947zm21.622 1.529l.033.032c-.002-.002-.043-.022-.033-.032zM76.44 51.09c.335.246.176-.07.218.436-.073-.083-.071-.03-.142-.184-.093-.2-.04-.17-.077-.252zm-.328-.546l.032.033c-.002-.003-.043-.022-.032-.033zm-.328-.655l.033.033c-.002-.003-.044-.022-.033-.033zm-28.392-1.856c.346 0 .674.106.892.2.335.146.37.24.63.462l.12.098c.017.015.043.034.06.05.741.66.75 1.926.078 2.614-.02.021-.083.078-.101.099l-.04.049-.059.099c-.496.796-2.07.984-2.978.02-.387-.411-.606-.789-.56-1.602.058-1.054.546-1.662 1.544-1.94.123-.035.006.004.19-.06.258-.093-.263-.089.224-.089zm20.53 1.42c-.06-.258-.102-.323-.11-.656.252.104.37.078.813.043 1.044-.084.026.236.826.066-.098.134-.138.167-.217.27-.334.429-.798.396-1.312.276zM50.45 48.36c.947-.227.869-.158 1.337 2.047.168.789.373 1.627.585 2.472l.834 3.75c.245 1.043.428.869.192 1.883h-.655c-.164-.244-.147-.24-.212-.393l-1.322-5.825c-.113-.884-.972-3.107-.76-3.934zm25.007.873c.267.196.235.149.327.546-.25-.091-.09-.005-.258-.18-.1-.104-.126-.179-.179-.257-1.055-.707-2.465-.8-2.16 1.175.236 1.523.631 1.708.631 3.628-.606.406-.451.328-1.42.328-.164-1.981-1.57-3.742-.545-5.677-.808 0-.695-.082-1.142.169-.251.141.158.113-.387.159-.224-.962.448-.665 1.36-.726 1.677-.113 1.822.07 2.68.07v.22c.767-.065.714-.17 1.093.545zm-20.858-1.856c0-.22.74-.528 1.005.085.344.796.814 3.869 1.123 5.102.066.26.127.31.211.662.225.945.875 3.525.719 4.195-.515 0-.489-.02-.874-.11-.077-.923-.88-3.721-1.136-4.977l-1.048-4.957zm19.656 0l.126.213-.126-.213zm-14.195 9.39c-1.317 0-.861.14-1.433-2.356-.356-1.554-.909-3.278-1.113-4.848l-.426-1.616c-.514-2.13.679-1.664.859-.968.135.522.167.924.298 1.449l1.588 6.818c.109.522.227.914.227 1.52zM49.794 47.05l-.213.126c.088-.333-.053-.23.213-.126zm0 0c.146-.11-.23-.109.327-.109-.133.101.123.071-.327.11zm.873-.327c-.06.042.142.14-.27.13-.22-.006-.065.175-.167-.13h.437zm8.736-.11l-.125-.212.125.213zm19.656-.436c.011.48.074.34.11.764-.283-.066-.464-.131-.688-.169a16.09 16.09 0 01-.732-.158c.176-.123.251-.182.504-.162.595.047.38.026.479.27h.218c-.05-.604-.186-.222.11-.545zm-28.392.546c.112-.276-.019-.074.205-.232.335-.234.746-.205 1.106-.205-.116.1.067.025-.27.168l-1.04.27v-.001zm28.065-1.42c.074.118.062.003.1.229.016.099.009.216.009.318-.075-.118-.062-.003-.1-.228-.016-.1-.01-.217-.01-.318zm0 0c-.111-.146-.11.23-.11-.327.102.134.071-.122.11.328zm-7.863-.654h-.109.11zm0 0l.213-.126-.213.126zm-.109 0l-.235-.06.235.06zm-11.575 1.746c-.382-.255-.55-.363-.718-.701-.256-.517-.156-.187-.156-1.482-.54.012-.442.09-.846.25-.41.164-.648.094-.84.17-.269.105-.02.133-.81.359-.736.21-.784.334-1.96.661l-.31.126c-.426.2-1.269.644-1.676.29.441-.103.861-.277 1.229-.41l.522-.23c.247-.11.01-.012.234-.087l.058-.019 1.064-.406c.537-.262 2.037-.614 2.122-.657l.136-.092c.011-.007.038-.025.05-.031l.91-.284c.295-.05.45-.15.538.166.123.438-.098.55-.102.573l-.005.115c.002.018.033.111.038.13l.522 1.56zm32.214-2.62c.146-.11-.23-.109.328-.109-.134.101.122.071-.328.11zm-34.726-.218c-.248.47.03.198-.328.328.088-.33 0-.24.328-.328zm17.472 3.493c.112.121.11-.19.11.328l-.22-.218c-.145-.098-.22-.141-.374-.28-.768-.687-.686-.218-1.978-.862l-5.096-1.455c-.475-.136-.693-.242-1.287-.242-.079.339-.14.317-.218.655-.373-.123-.357-.695-.452-.92l-.422-.608c1.03 0 5.317 1.19 6.15 1.602.75.371 3.654.4 3.787 2zm-10.92-3.493c.613.222.923 1.567.65 2.287-.457 1.205-1.97 1.722-3.054 1.1-.354-.205-.625-.412-.833-.806a2.148 2.148 0 01.104-2.22c.132-.196.053-.1.185-.252.142-.194.044-.118.279-.27.745-.48 2.103-.684 2.67.161zm-7.535-.546v-.436h.437v.327c-.178.016-.34 0-.437.11zm6.662-.437l.032.033c-.002-.002-.043-.022-.032-.032zm15.07.219c.031.083.113.03-.081.347-.598.977-1.644.165-2.367.7-.212.155-.435.633-.501.918-.392-.287-.116-.446-.436-1.748-.179-.732-.328-1.029-.328-1.964.794 0 1.023.33 1.46.554l1.336.69.073.037.843.466zm-18.674-.983c.024-.294.051-.296.11-.545.455.121.23.049.436.436-.249.058-.253.079-.546.11zm6.115.11c.24.327.072.078.27.244.018.017.066.059.085.073.27.192.814.203 1.582.586l3.106 1.26c.445.15.487.09.526.566-.202-.097-.728-.195-1.03-.281l-4.088-1.044c-.026-.009-.054-.02-.08-.028l-.084-.026-2.58-.586v-.328l1.396-.46c.22-.063.43-.117.689-.185.256-.067.149-.035.334-.102l.078-.031c.728-.272 2.48-1.023 3.181-.86-.118.103-.155.141-.326.223-.423.198-.565.1-.89.231l-.124.061c-.683.31-.787.161-1.166.364a3.315 3.315 0 01-.33.217c-.239.108-.186.097-.549.105zm-3.057-1.201l.032.032c-.002-.002-.043-.021-.032-.032zm10.92 3.165l.125.213-.235-.103-3.93-3.166c-.434-.306-.175.03-.438-.328 1.015-.236 1.914-.695 2.7-.645.657.042.624.449.89 1.237.21.62.846 2.284.888 2.792zm-10.702-3.711c.378.1.336.059.437.436-.55.128-.583.13-.437-.436zm-4.368-.328h.328c.139.52.32.314.218.546-.014.005-.04-.018-.044-.004-.005.015-.04-.005-.048-.008-.007-.002-.043-.008-.052-.012-.593-.196-.307-.147-.293-.194-.081-.145-.09-.287-.109-.328zm3.822-.328c.267.071.148-.048.218.219l-.218-.218zm3.713-.109c0-.036.115-.012.136-.008.017.002.127-.249.096.032l-.011.013a.376.376 0 01-.033.005c-.07 0-.192.24-.188-.042zm-4.259-.764l.546.546c.012.02.036.026.037.057 0 .029.022.05.022.06-.012.182.042.006-.059.21l-.11-.218c-.456-.039-.507-.088-.545-.545l-.126-.213.235.103zm3.822-.109l.033.033c-.002-.002-.044-.022-.033-.033zm-.655-.873c.181-.08-.046-.096.195.033.255.136.485.417.57.73-.896-.074-.764-.76-.765-.763zm3.058-.983c.285.076.803.45.655.764-.198.07.068.083-.185-.045-.23-.116-.137-.072-.253-.168l-.17-.168c-.011-.016-.031-.043-.04-.06-.149-.296-.145-.003-.008-.323zm0 0l-.235-.06.234.06zm6.115-1.965c.097.416.144.826-.219 1.092l.219-1.092zm0 0c0-.547.109-.672.109-1.31l.328.218c-.064.276-.113.347-.18.584-.151.524.143.215-.257.508zm-11.685 4.04c-.724-.486-1.94-1.015-2.707.022-.203.275-.305.559-.46.85-.349-.167-1.705-.468-2.122-.234-.258.145-.058.216-.608.344-.011-.53-.228-1.255-.312-1.762-.333-2.02-2.308-11.375-2.308-12.43.563 0 1.748-.508 2.292-.656l4.564-1.334c.465-.14.849-.45 1.003.137.039.146.072.643.07.657-.038.655.03-.3-.176.323.34.123.274.183.376.824l.925 5.517c.077.383.113.696.18 1.13.05.325.091.768.266 1.044l1.649-10.251c.173-1.113.385-.75 1.208-1.008l.718-.232c.193-.057.412-.098.604-.161l4.23-1.23c0 1.39-.421 3.151-.643 4.38l-.65 4.48c-.107.76-.188 1.54-.318 2.194l-1.01 6.522-.233-.532c-.136-.343-.094-.265-.33-.543-.3-.352-.377-.43-1.086-.503-.528-.055-1.717.37-1.737 1.25h-.546c-.162-.402-1.511-.736-2.373.356-.24.304-.246.517-.466.845zm29.813 5.02c.146.11-.23.11.328.11v7.422c-.863 0-1.367.219-2.184.219-.218.933-.12 5.238-.106 6.772l-.025.63c-.104.502-.253.527-.777.546-.816.03-.576-.172-.631-.396-.204-.831-.002-.313-.503-.785-.895-.843-.247-2.685-.89-3.844-.194-.349-.34-.2-.781-.303 0-.982-.58-.836-.655-1.747-.33-.133-.768-1.34-.931-1.689-.75-1.605.063-.647-1.14-2.572l-.738-1.555c-.828-1.804-.686-.095-.686-5.1l-.109-14.41L79.2 39.984c-.113.657-.31 1.358-.358 1.935-.671-.179-.888-.68-1.445-.944L75.3 39.783c-.901-.558-1.172-.404-.932-1.564l4.537-19.162c.33-1.532.17-1.128 1.479-1.577.218-.075.242-.106.49-.165.827-.2.099.16 1.206-.324.167-.073.397-.145.565-.187l1.517-.46c1.232-.281 4.595-1.442 5.272-1.498 0 .61.1 1.156.05 1.571-.134 1.097-.05 18.114-.05 20.262 0 1.741-.198 5.999.11 7.315.58-.013 1.245-.219 1.856-.219z" fill="#3D5AF1"/></svg>