<svg width="20" height="16" fill="none" xmlns="http://www.w3.org/2000/svg"><path d="M1.92 4.844c.253.178 1.015.708 2.288 1.59 1.272.882 2.247 1.56 2.924 2.037.074.052.232.165.474.34.242.175.443.317.602.424.16.108.354.23.58.363.228.134.442.234.643.301.2.067.387.1.558.1h.022c.171 0 .357-.033.558-.1a3.43 3.43 0 00.642-.3c.227-.135.42-.256.58-.364.16-.107.361-.249.603-.424s.4-.288.474-.34l5.223-3.628a5.287 5.287 0 001.362-1.372c.365-.536.547-1.098.547-1.685a1.71 1.71 0 00-.53-1.261A1.725 1.725 0 0018.214 0H1.786C1.213 0 .772.193.463.58.154.967 0 1.45 0 2.031c0 .469.205.977.614 1.524.409.547.844.976 1.306 1.289z" fill="#fff"/><path d="M18.884 6.038c-2.44 1.651-4.293 2.935-5.558 3.85a26.33 26.33 0 01-1.032.731 6.37 6.37 0 01-1.055.536c-.439.182-.848.273-1.228.273H9.99c-.38 0-.789-.09-1.228-.273a6.37 6.37 0 01-1.055-.536 26.41 26.41 0 01-1.032-.73c-1.004-.737-2.853-2.02-5.547-3.851C.691 5.748 0 6.035 0 6.558v7.37c0 .492.175.912.525 1.261.35.35.77.525 1.26.525h16.43c.49 0 .91-.175 1.26-.524.35-.35.525-.77.525-1.262V6.55c0-.52-.686-.806-1.116-.512z" fill="#fff"/></svg>