<svg width="50" height="50" viewBox="0 0 50 50" fill="none" xmlns="http://www.w3.org/2000/svg">
<path d="M50 5.35714V44.6429C50 47.6004 47.6004 50 44.6429 50H35.1228V30.2232H41.8862L42.8571 22.6786H35.1228V17.8571C35.1228 15.6696 35.7254 14.1853 38.8616 14.1853H42.8571V7.4442C42.1652 7.35491 39.7991 7.14286 37.0312 7.14286C31.2723 7.14286 27.3214 10.6585 27.3214 17.1205V22.6897H20.5357V30.2344H27.3326V50H5.35714C2.39955 50 0 47.6004 0 44.6429V5.35714C0 2.39955 2.39955 0 5.35714 0H44.6429C47.6004 0 50 2.39955 50 5.35714Z" fill="white"/>
</svg>
