<svg width="50" height="50" fill="none" xmlns="http://www.w3.org/2000/svg"><path d="M25.006 12.178a12.796 12.796 0 00-12.817 12.816 12.796 12.796 0 0012.817 12.817 12.796 12.796 0 0012.816-12.817 12.796 12.796 0 00-12.816-12.816zm0 21.149c-4.585 0-8.333-3.737-8.333-8.333 0-4.595 3.737-8.332 8.333-8.332 4.595 0 8.332 3.737 8.332 8.332 0 4.596-3.748 8.333-8.332 8.333zm16.33-21.673a2.983 2.983 0 01-2.99 2.99 2.983 2.983 0 01-2.99-2.99 2.99 2.99 0 015.98 0zm8.488 3.034c-.19-4.005-1.104-7.552-4.038-10.474C42.864 1.29 39.316.376 35.312.176c-4.127-.235-16.497-.235-20.624 0-3.994.19-7.54 1.104-10.474 4.026C1.28 7.125.376 10.672.176 14.677-.06 18.803-.06 31.174.176 35.3c.19 4.005 1.104 7.552 4.038 10.474 2.933 2.923 6.47 3.837 10.474 4.038 4.127.234 16.497.234 20.624 0 4.005-.19 7.552-1.104 10.474-4.038 2.923-2.922 3.837-6.47 4.038-10.474.235-4.127.235-16.486 0-20.613zm-5.331 25.041a8.436 8.436 0 01-4.752 4.752c-3.29 1.305-11.1 1.004-14.735 1.004-3.637 0-11.456.29-14.736-1.004a8.436 8.436 0 01-4.75-4.751c-1.305-3.29-1.004-11.098-1.004-14.735 0-3.636-.29-11.455 1.004-14.735a8.436 8.436 0 014.752-4.751c3.29-1.306 11.098-1.004 14.735-1.004 3.636 0 11.455-.29 14.735 1.004a8.436 8.436 0 014.752 4.751c1.304 3.29 1.003 11.1 1.003 14.735 0 3.637.301 11.456-1.004 14.736z" fill="#fff"/></svg>