<svg width="376" height="90" fill="none" xmlns="http://www.w3.org/2000/svg"><path d="M87.868 77.733c-1.938-2.84-3.359-7.36-4.134-10.072h-.388l-5.815-.516h-.258l-2.972-.517-5.168-.516c-.259.516-.646 1.162-1.034 1.808l1.55.645-1.55 2.712-2.455 4.132-.388.774-.904.904.904.775-2.455 2.066 15.248 5.553 1.809.646h19.64c-7.365-2.196-11.113-7.619-11.63-8.394zm28.818-8.006c.128 0 .128 0 0 0zM37.215 19.238c-.13 0-.13 0-.13.13 0-.13.13-.13.13-.13zm-1.033 16.658c.13 0 .13-.13.259-.13-.13 0-.259 0-.259.13zm49.102 25.438c.129.258.258.517.646.646.129-.646-.13-.775-.647-.646zm-54.4-53.589h-.517c-.517.13-.904.388-1.292.646l-1.163.775-.258.258c-.259.258-.388.517-.517.904-.259.387-.259.904-.388 1.55 0 .904-.258 1.807-.387 2.711.387-.904.775-1.678.904-2.582 0-.13 0-.258.13-.387 0-.13 0-.259.129-.388v-.129c0-.129 0-.129.129-.258v-.129c0-.13 0-.13.13-.13 0 0 0-.128.128-.128 0 0 0-.13.13-.13 0 0 0-.128.129-.128l1.162-1.162s.13 0 .13-.13l.128-.128s.13 0 .13-.13c0 0 .129 0 .129-.128 0 0 .129 0 .129-.13 0 0 .129 0 .129-.128l.13-.13s.128 0 .128-.129c.13 0 .13-.129.259-.129 0 0 .129 0 .129-.129 0 0 .129 0 .129-.129 0 0 .13 0 .13-.129 0 0 .128 0 .128-.129-.258.515-.258.386-.258.386zm28.167-1.549c-.129 0-.129 0 0 0-.129-.13-.129 0 0 0-.129-.13-.129-.13 0 0-.129-.13-.129-.13-.258-.13 0 .13.13.13.258.13zm40.447 15.108c-.129 0-.129 0 0 0h-.129c.13.13.13.13.13 0zm-6.204 8.91c.13 0 .13 0 0 0 0 .129 0 .129 0 0zM13.31 42.74c-.129-.775-.258-1.421-.387-2.196.129.775.258 1.55.387 2.195zm-4.653 5.552c.129.13.129.259.258.388 0-.13-.129-.258-.258-.388zm5.686.516c-.129 0-.258.13-.516.13.258-.13.387-.13.516-.13.776-.387 1.551-.516 2.456-.774-1.293-.259-1.551-1.033-1.81-2.067-.129-.387-.129-.774-.258-1.162l-1.034.388c.13.516.13 1.032.259 1.549.129.646 0 1.162-.388 1.42l1.034.388c0 .13-.13.13-.259.258zM8.14 47.647s-.13 0-.13.129c0 0 .13 0 .13-.13zm-.259.129c-2.326 5.165-3.23 10.717-3.747 16.4.646-5.683 1.421-11.106 3.747-16.4zm-5.813 16.27c-.776-.388-1.422-.904-2.068-1.55.646.646 1.421 1.162 2.068 1.55.646.387 1.162.774 1.292 1.42-.13-.645-.517-1.162-1.292-1.42zm1.423 2.84c.13.259.258.646.646.904-.388-.258-.517-.516-.646-.904zm.772-1.42c-.13.258-.13.646-.13.904 0-.388 0-.646.13-.904zm20.936-11.88c0 .13-.13.258-.13.387 0-.129 0-.258.13-.387zm.387-.646c-.13.259-.387.388-.387.646 0-.258.258-.516.387-.645zm-.776 13.558c.387-.129.646-.386.904-.773-.129.257-.517.644-.904.773zm1.292-1.678c0 .13-.13.258-.13.388.13-.13.13-.259.13-.388zm-1.423-5.035c.387-.517.904-1.162 1.292-1.679-.388.646-.905 1.162-1.292 1.679zm-8.784 20.789c5.428 1.291 10.725 2.712 16.153 4.003-5.427-1.291-10.725-2.583-16.153-4.003zm11.758-7.102c1.293 1.937 2.197 4.003 3.748 5.811.129.129.258.258.258.387-.13-.129-.258-.258-.258-.387-1.55-1.808-2.455-3.874-3.748-5.81-.646-.905-1.292-1.809-2.455-2.067 1.034.258 1.81 1.162 2.455 2.066zm-10.984-9.297c-.775 1.808-1.81 3.357-3.618 4.648 1.809-1.291 2.972-2.84 3.618-4.648zm.777-1.937c-.13.387-.258.645-.258.904.129-.259.258-.646.258-.904zm-6.98-22.339c.258.645.388 1.162.646 1.807-.258-.645-.517-1.162-.646-1.807zm.904 2.711c.129.259.129.646.258.904-.129-.258-.258-.516-.258-.904zm-.39-.904c.13.258.13.646.259.904 0-.258-.13-.516-.258-.904zm-.255 5.553h-.387.387zm-.385 1.937c-.13 0-.13 0-.26.129 0-.13.13-.13.26-.13zm-1.166.774v-.258.258zm4.265 21.307c-1.422-.904-2.843-1.42-4.394-1.42-1.809 0-3.618-.258-5.168-1.55 1.55 1.292 3.36 1.42 5.168 1.55 1.68.13 2.973.516 4.394 1.42 5.298 3.487 15.894 10.33 15.894 10.33s-10.596-6.714-15.894-10.33zM10.595 51.52c.258-.13.388-.13.517-.387-.13.129-.387.258-.517.387zM49.232 6.067c-1.163-.129-2.326-.129-3.489-.258h-.258c-.905 0-1.163 0-1.422 1.291-.129.904-.387 1.937-.516 2.841 2.842-1.42 5.556-2.582 8.011-3.874h-2.326zm-3.36 2.195c-.517.259-1.163.517-1.68.775.13-.645.259-1.162.259-1.808v-.645h.775c.517 0 .904 0 1.421.13.647 0 1.422.128 2.068.128h.258c-.775.258-1.938.904-3.1 1.42zm17.315.129c-1.421 2.97-2.067 6.07-2.196 9.427 1.162-.387 2.196-.646 3.359-.904 1.034-.258 2.197-.646 3.23-.904a6.39 6.39 0 00.905-.387c.517-.258.775-.646 1.033-1.292.388-.774.905-1.42 1.55-1.807l.776-.388c.13 0 .13 0 .259-.129.258-.129.516-.129.904-.129h1.938s.129 0 .129.13c0 0 .129 0 .129.128 0 0 .129 0 .129.13 0 0 .129 0 .129.129 0 0 .13 0 .13.129l.128.129s.13 0 .13.129l.129.129.129.129.129.129.129.129.13.13.128.128.13.13.129.128v.13c0 .128.129.128.129.257.387.646.775 1.421.904 2.196v.129c0 .258.13.516.517.646 2.068.516 4.264 1.162 6.59 1.808v-7.103h1.033s.13 0 .13-.129l.128-.129s0-.129.13-.129v-.645c-.259-.13-.388-.13-.517-.13-4.393-1.032-8.787-1.936-13.18-2.97-1.42-.258-2.971-.645-4.393-.903-.258 0-.387-.13-.646-.13h-2.971c-.258 0-.517 0-.646.13h-.13c-.257 0-.387 0-.516.129h-.13c-.257 0-.516.129-.645.129h-.13c-.258 0-.387.129-.516.129h-.13c-.258.129-.516.129-.646.258h-.129c-.775-.129-1.033 0-1.162 0 0 0-.13 0-.13.13-.258.128-.387.257-.645.386-.13 0-.13.13-.259.13-.129.129-.387.258-.517.387-.129.129-.258.258-.387.516-.388.13-.517.259-.517.517a.986.986 0 00-.258.646c-.388.646-.517 1.42-.388 2.066.13-.258.259-.387.388-.516l.129-.13c-.13-.258 0-.387.129-.516 0-.13.13-.13.13-.258.128-.13.128-.259.257-.259 0-.129.13-.129.13-.258l.258-.258.129-.129.258-.258c.13 0 .13-.13.259-.13.129-.128.258-.128.258-.257l.13-.13c.128-.129.257-.129.387-.258l.129-.129c.129-.129.387-.258.517-.258h.129c.129-.129.258-.129.517-.258 0 0 .129 0 .129-.13.129 0 .258-.128.387-.128.13 0 .13 0 .258-.13.13 0 .259-.128.388-.128.13 0 .13 0 .258-.13.13 0 .258 0 .388-.128h2.067c.128 0 .387 0 .516.129-.903-.001-1.808-.13-2.195.774h.002zM43.16 66.628c-.13 0-.13 0 0 0z" fill="#fff"/><path d="M55.82 16.785v.258c.129.516.387.904.517 1.291l.129.13c0 .128.129.257.129.257v.13c0 .129.129.129.129.258v.129c0 .129.13.129.13.258s.128.129.128.258l.388.387s.129 0 .129.13c.13 0 .13 0 .258.128h1.68c.129 0 .258 0 .387-.129h1.163v.258s0 .13.129.13v.129l.129.129h.775c.258 0 .387-.13.646-.13.258 0 .388-.129.646-.129h.13c.129 0 .387-.129.516-.129h.13c.129 0 .387-.129.516-.129h.13c.129 0 .387-.129.516-.129h.13c.258 0 .387-.129.646-.129h1.809c.13-.646-.388-1.162 0-1.937h3.358c.13 0 .259 0 .388.13h.13c.387.128.645.128 1.033.258h.129c.13 0 .258 0 .387.129.13 0 .259.129.388.129.13 0 .13 0 .258.129.13 0 .259 0 .259.129h.258c.13 0 .258 0 .258.129h.259c.129 0 .258 0 .258.129h.258c.13 0 .259 0 .388.129h.129c.13 0 .388.13.517.13-.13.257-.13.516-.13.645v.129c-.129.258-.129.516-.258.646 0 .129-.129.129-.129.258l-.129.129v.904s-.13 0-.13.129h-1.42c-1.68-.388-3.23-.775-4.91-1.163-.13 0-.259 0-.259-.129h-1.163l-.128.13v1.677l.129-.129c.258-.258.13-.774.517-1.162 2.067.517 4.135.904 6.202 1.42.776.13.776.775.776 1.421v.387l-.13.13h-.903c-.258 0-.516-.13-.775-.13-.646-.129-1.421-.129-2.068-.387-.129 0-.258-.129-.387-.129-.13 0-.258-.129-.388-.129h-.129c-.129 0-.129 0-.258-.13h-4.134c-.129 0-.258 0-.387.13h-.13c-.129 0-.258 0-.516.129-.13 0-.259.13-.517.13h-.13c-.129 0-.258.128-.387.128-.13 0-.258.13-.517.13h-.129c-.13 0-.258.128-.387.128h-.13c-.129 0-.258.13-.517.13h-.129c-.129 0-.258.128-.387.128h-.13c-.129.13-.258.13-.387.259h-.129c-.13 0-.258.129-.387.129h-.13c-.129.129-.258.129-.387.258-.13.129-.258.129-.388.258 0 0-.129 0-.129.13-.129.128-.258.128-.387.257 1.163-.387 2.326-.775 3.36-1.291.129-.13.387-.13.516-.258h.13c.129 0 .258-.13.387-.13h.13c.128 0 .258-.128.387-.128h.129c.129 0 .258-.13.387-.13h.13c.129 0 .387-.129.516-.129h3.101c.258 0 .388 0 .646.13h.13c.258 0 .387.129.646.129.775.258 1.55.387 2.455.516 2.455.517 4.781 1.162 7.236 1.679 1.939.516 4.006.904 5.944 1.42-.129 0-.258.13-.387.13h-.13c-.129 0-.129.128-.258.128h-.129c-.129 0-.258.13-.387.13-.13 0-.259 0-.259.128h-1.292c-.129 0-.258 0-.387-.129-3.876-.904-7.753-1.808-11.63-2.453-.516-.13-1.162-.13-1.68-.258h-2.712c-.13 0-.13 0-.258.129h-.13c.516.647.387.647.387.647h-.129c-.13 0-.258.13-.258.13h-.13c-.129 0-.258.128-.387.128-.13 0-.258.13-.388.13 0 0-.129 0-.129.129-.129 0-.129.129-.258.129 0 0-.13 0-.13.129-.128 0-.128.129-.257.129l-.13.129c-.129 0-.129.13-.258.13l-.13.128c-.128 0-.128.13-.258.13 0 0-.129 0-.129.128a.278.278 0 00-.258.258s-.13 0-.13.13c-.128.129-.258.129-.387.258.259 0 .517-.13.776-.258.129 0 .129-.13.258-.13.13-.129.388-.129.517-.258h.13c.128-.129.387-.129.516-.258.13 0 .258-.129.517-.129h.129c.13 0 .388-.129.517-.129h.129c.13 0 .258-.13.517-.13h.13c.128 0 .387-.128.516-.128h2.326c.128 0 .258 0 .387.129 5.04 1.033 9.95 2.066 14.86 3.357h.904l.259-.258s.129-.129.129-.258c1.421-1.55.904-3.357.904-5.165v-.646s0-.128-.129-.128c0 0-.129 0-.129-.13h-1.162c1.162.775.904 1.808.904 2.841v.258c0 .13 0 .258.13.517-2.068-.517-4.136-.904-6.203-1.42-1.293-.259-2.455-.517-3.748-.775.776-.388 1.034-1.292.905-2.067-.13-.387-.258-.904-.646-1.162 0 0 .129 0 .129-.129h.904c.517.13.904.258 1.421.387 1.422.388 2.973.646 4.523 1.033v-2.324c.905.258 1.81.387 2.585.646 0 0 .129 0 .129.129h.646s.129 0 .129-.13c0 0 .129 0 .129-.128l.516-.517c-1.809-.645-3.618-1.162-5.427-1.678-2.972-.904-5.944-1.679-9.045-2.454-.13 0-.388-.129-.517-.129h-.13c-.129 0-.258 0-.387-.129h-5.683c-.13 0-.258 0-.388.13h-.258c-.13 0-.258.128-.388.128h-.129c-.129 0-.387.13-.517.13-.904.387-1.938.645-2.842 1.032-.905.388-1.938.646-2.972.904-.13 0-.13 0-.259.13h-1.422s-.129 0-.129-.13c0 0-.129 0-.129-.129l-.258-.258v-.129l-.13-.129v-.129c-.129-.13-.129-.258-.258-.258-.389-.646-.518-1.163-1.164-1.68l-.003.002zM31.528 60.172v.517s-.13.129-.13.258c-.387-.775-.387-1.55-.387-2.196-.13-.904-.13-1.678-.13-2.453 0 .775 0 1.678.13 2.453.13.775 0 1.42.388 2.196.129-.13.129-.259.129-.259v-1.032.516zM114.874 17.3c0-.128 0-.128-.129-.128v-.258l-.129-.13h-.259c-.129 0-.129.13-.258.13-.129.129-.129.258-.129.387v.387c0 .258.129.387.258.646 0 .129.129.129.129.258 1.938 4.003 4.006 8.006 5.428 12.267l.387 1.162c.387 1.291.646 2.583.646 4.003 0 .517 0 1.162-.129 1.679a5.791 5.791 0 01-.904 2.324c.387.129.646.258.775.517.129.129.129.258.129.387v.258c0 .129 0 .258-.129.387-.129.13-.129.387-.258.517 0 .129-.13.258-.13.387v.129c0 .129-.129.387-.129.516v.13c0 .128 0 .128.129.258 0 .129.13.129.13.258.258.258.516.387 1.033.516 1.034.258 2.197.646 3.231.904.646.13 1.163.387 1.55.517.129 0 .129.129.259.129.129.129.258.129.387.258l.129.129.129.129s.13.13.13.258c0 .13.129.258.129.387v2.453h.129c.129-.646.258-1.291.387-1.808.13-.645.259-1.291.517-1.937-2.326-.645-4.522-1.29-6.59-2.066.517-.258.905-.387 1.292-.387l1.551-.387c.646-.258 1.292-.646 1.809-1.162l.388-.388c.129 0 .129-.129.258-.258l.258-.258v-.129c.129-.258 0-.516-.387-.646-.776-.258-1.551-.645-2.455-1.033-.776-.258-1.68-.516-2.585-.645.259-1.292.517-2.583.129-3.874-.258-.775-.387-1.55-.646-2.195-1.55-4.778-3.747-9.427-5.944-13.946-.129-.256-.258-.644-.516-1.031z" fill="#fff"/><path d="M127.281 24.92c-.259-.259-.517-.388-1.034-.646a15.776 15.776 0 00-2.197-.904l-1.163-.387-1.163-.388-1.939-.774a35.09 35.09 0 00-2.067-.775 365.526 365.526 0 013.23 8.522c0 .13 0 .13.13.258 0 0 0 .13.129.13 0 0 0 .128.129.128l.129.13h1.034c.129-1.033.258-2.196.387-3.229.129-1.162-.387-2.195-.646-3.357.905.258 1.68.517 2.455.904.259.129.647.258.905.387.129.13.258.13.387.258-.904.904-1.679 1.679-2.326 2.583-.646.904-.775 1.678-.517 2.324.129.258.259.387.517.517.129 0 .129.129.259.129.258.129.516.258.904.387-.129-.517-.258-1.033-.258-1.55 0-.516.129-.904.258-1.29.388-.776 1.034-1.421 1.81-2.067l.387-.387.129-.13c.129-.129.129-.258.259-.258v-.516c0 .13.001.13-.128 0zm-5.04 1.032c.258.259.258.775.129 1.421-.129-.13-.259-.13-.259-.258-.387-.258-.904-.258-1.292-.517l-.129-.129-.258-.258s0-.129-.13-.129v-.775c.647.13 1.034.13 1.422.387.129 0 .129 0 .129.13.258 0 .388 0 .388.128zm-18.61 1.163h-1.937c-.13 0-.13 0-.259-.13-.129 0-.129 0-.258-.128h-2.454c-.129.775.258.904.776 1.033 1.033.258 2.067.646 3.101.904 2.713.775 5.426 1.678 8.269 2.453v-2.195c-.13-.258-.388-.516-.776-.774-3.488-1.808-7.364-2.325-11.24-3.487v1.292c0 .129.129.129.258.258s.387.129.646.258c.258.129.386.129.645.258.129 0 .13 0 .259.13.129 0 .259.128.388.128s.258.13.387.13.258.128.388.128c.129 0 .258.13.387.13s.129 0 .258.128c.13 0 .259.13.388.13s.129 0 .258.129c.129 0 .258.129.388.129.129 0 .129.129.258.129s.258.129.387.129c-.646-1.291-.517-1.291-.517-1.162h.258-.258zM15.505 37.961c1.809-1.162 3.747-2.195 5.556-3.357-1.938 1.162-3.747 2.195-5.556 3.357zm5.428 6.716v.775c-1.033.387-2.196.904-3.36 1.29.13 0 .13 0 .26.13h.774c2.972-.517 6.073-1.162 9.046-1.679 1.162-.258 1.68-.258 1.809-.774v-1.937c-.905.258-1.68.646-2.585.904v.258c-.258 0-.646 0-.904.13-1.034.386-2.197.774-3.36 1.29-.387.13-.646.259-1.034.388v-.775c-.258-.13-.387-.13-.646 0zm88.384-10.589h.259s.129 0 .129-.129l.129-.129s0-.129.129-.129c0 0 0-.13.129-.258 0-.13.129-.387 0-.517 0-.258-.258-.516-.646-.645-1.938-.517-3.747-1.033-5.685-1.55-1.939-.516-3.748-1.033-5.686-1.55-.129.259-.129.517-.258.775v.517c0 .129 0 .387.129.516l.388 1.162c0-1.033.387-1.55 1.162-1.678h.775v.516c0 .13.129.258.129.258.13.258.259.387.517.517.259.129.647.258.905.387h.129c.387.129.646.129 1.034.258.387.13.646.13 1.033.258.647.13 1.422.387 2.068.517.646.129 1.421.387 2.068.516h.387c.647.388.776.388.776.388zm-55.952 1.807l-.13-.129s0-.129-.128-.129l-.388-.387h-.129s-.13 0-.13-.13h-.128s-.13 0-.13-.128h-.129s-.129-.13-.258-.13h-.13c-.128 0-.128-.128-.257-.128-.13 0-.13-.13-.259-.13h-.129c-.129 0-.129 0-.258-.129h-.13c-.129 0-.129 0-.258-.129h-.129c-.129 0-.129 0-.258-.129-.13 0-.258-.129-.388-.129-.129 0-.129 0-.258-.129h-6.587c-.13 1.033-.13 2.066-.258 3.228.258-.258.516-.516.646-.904h.904v.13c0 .129-.13.258-.13.387.776-.387 1.551-.775 2.068-1.55 0 0 0-.129.13-.129h.904c2.067.387 4.135.646 6.202 1.42.257-.516.257-.516.127-.645h-.002z" fill="#fff"/><path d="M56.077 39.253c-1.033-.517-2.067-.904-3.1-1.55-.388-.258-.776-.646-1.163-1.162-.13-.258-.517-.258-.776-.387-1.163-.258-2.326-.517-3.617-.646-.13.517-.388.904-.517 1.292-.13.387-.259.904-.517 1.29-.13.388-.258.647-.388 1.163l.13-.13s.129 0 .129-.128l.129-.13h.13l.128-.128.13-.13.129-.129.129-.129.129-.129.129-.129h1.679c.646 0 1.421 0 2.067.13.388 0 .647.129 1.034.258.388.129.646.258.904.387.647.387 1.293.645 2.068 1.033.646.387 1.292.645 2.067 1.033.13-.258.13-.517.13-.775-.517-.517-.775-.646-1.163-.904z" fill="#fff"/><path d="M51.04 42.61c.13 0 .258-.129.258-.129.13 0 .259-.129.259-.129.129 0 .129 0 .258-.129h1.679s.13 0 .13.13l.129.128c1.163.904 2.455 1.679 3.747 2.583.13-.13.13-.258.258-.387.259-.258.388-.646.517-.904.13-.258.13-.646 0-1.033H56.21c-.13 0-.13 0-.259-.13-.129 0-.129 0-.258-.128-.13 0-.13 0-.258-.13 0 0-.13 0-.13-.129-.129 0-.129-.129-.258-.129 0 0-.13 0-.13-.129-.128 0-.128-.129-.257-.129l-.13-.129c-.129 0-.129-.129-.258-.129l-.13-.129c-.128 0-.128-.13-.257-.13l-.13-.128c-.129 0-.129-.13-.258-.13-.13 0-.13-.128-.258-.128-.13 0-.13-.13-.259-.13l-.258-.258c-.13 0-.13-.129-.258-.129l-.13-.129c-.129 0-.128-.129-.258-.129 0 0-.129 0-.129-.129-.129-.129-.258-.129-.387-.258-.259.517-.647.904-.905 1.291-.387.517-.775 1.162-1.163 1.679l-.129.129h1.033s.13 0 .13-.13h.129l.129-.128s.129 0 .129-.13h.13c-.13.258-.13.258-.001.13v-.002zm58.146-6.844c-.129.13-.129.13 0 0l-.129.13-.13.129-.129.129h-1.033c-.129 0-.129 0-.258-.13h-.258c-1.551-.516-3.101-.903-4.651-1.42-.388-.129-.775-.258-1.034-.387-.129-.13-.258-.13-.387-.258 0 0-.129-.13-.129-.259 0 .517 0 1.033.129 1.55 0 .258 0 .517.129.646 0 0 .129.129.258.129 1.292.387 2.584.646 3.876 1.033 1.292.387 2.584.775 4.005 1.033v-2.84c-.259.386-.259.386-.259.515zm18.611-.646c-.129.13-.129.26-.259.388-.129.258-.129.517-.129.904v.13c.388-.13.776-.259 1.034-.388.388-.13.646-.387.905-.646.129-.129.258-.258.258-.387.259-.387.129-.775-.258-1.033-.647-.258-1.163-.646-1.81-.904-1.163-.517-2.455-.904-3.748-1.42-.646-.259-1.292-.388-1.938-.517.129.258.258.387.387.646.259.258.517.516.905.775.129.129.258.129.388.258.387.129.904.387 1.292.516h.258c.13 0 .259.13.388.13h.258c.13 0 .259.128.388.128s.129 0 .258.13c.647.258 1.293.516 1.81 1.033-.129 0-.258.129-.387.258zM15.765 30.085c.517-.387 1.163-.775 1.68-1.162.517-.387 1.163-.775 1.68-1.162.258-.258.516-.387.775-.646v-.129c0-.129.129-.258.129-.387v-.517c-2.455 1.68-4.781 3.229-7.107 5.165l.517.388 2.326-1.55zm-5.687 5.811c0-.904.13-1.55.517-2.066l.388-.388c.129-.258.387-.387.646-.516.258-.13.387-.387.646-.517l-.258-.516c-.259.258-.646.516-.905.774l-.258.259-.388.387c0 .129-.129.129-.129.258l-.387.775c0 .129-.13.387-.13.516 0 .258-.129.517-.129.775 0 .388 0 .775.13 1.162.387-.387.257-.645.257-.903zm103.503-5.811c.129-.129.129-.129 0 0 .129 0 .129-.129.129-.129h.516c.905.258 1.551.775 1.939 1.808.646-.775 1.162-1.42.904-2.324h-2.066c-.13 0-.13 0-.259-.13h-.387s-.129 0-.129-.129h-.129c-.13 0-.13-.129-.259-.129s-.129-.129-.258-.129h-.129l-.129-.129-.13-.129-.129-.129-.129-.129-.258-.258v5.681h.129c0-.516.129-1.032.129-1.549 0-.516.129-1.033.129-1.55v-.387c.387-.13.387-.13.516-.259-.129 0-.129.13 0 0zm11.373 7.877c0 .129.129.258.129.258.129.13.388.258.646.387.129 0 .259.13.388.13.258.128.517.128.904.257v-1.161c0-.517 0-1.033-.517-1.292-.129-.129-.258-.129-.387-.258-.258-.129-.646-.258-.905-.387a42.05 42.05 0 01-2.196-.775c0 .13-.13.13-.13.258v1.549-.387h1.55c.13 0 .13 0 .259.129.129 0 .129.129.129.129.129.129.129.129.129.387v.13c-.129.129.001.388.001.646zM118.104 47c.388-.645.775-1.42.905-2.195v-.129c.129-.775 0-1.55-.259-2.066-.258-.387-.517-.646-.775-.775-.517-.258-1.163-.129-1.809-.258v.13c0 .257-.129.386-.129.516 0 .129 0 .258.129.387 2.842.387 2.972.775 1.68 4.778 0-.13.129-.258.258-.387zm-3.1-9.813c.129 0 .129 0 .258.129h.775s.129 0 .129-.13c0 0 .129 0 .129-.128 0 0 0-.13.129-.13 0 0 0-.128.129-.128v-.388c.13-1.162 0-2.453-.387-3.874v.388c0 .387-.129.774-.129 1.162 0 .258-.129.645-.129.904v1.291l-.129.128h-2.067l.259.259c.129.129.645.388 1.033.517zm-76.369-3.098v2.194c0 .128 0 .258.13.387.387-.775 1.162-1.292 1.679-1.937.387-.387.646-.775.775-1.291h-.645c-.13 0-.259 0-.259.129-.129 0-.258 0-.258.129-.13 0-.258.129-.258.129-.13 0-.13 0-.259.129h-.516l-.389.13zM14.474 44.16l-.388-1.162c0-.13 0-.13-.129-.258 0-.13-.13-.259-.13-.388s-.128-.258-.128-.387-.13-.258-.13-.387c0-.13-.129-.258-.129-.387 0-.13-.129-.258-.129-.258-.129-.13-.129-.388-.258-.517 0-.129-.13-.129-.13-.258l-.387-.775c0 .258.13.646.13.904v.258c.129.775.258 1.55.387 2.195 0 .388.13.646.13 1.033 0 .259.128.388.128.646v.13c0 .257.13.386.13.645l1.033-.387c.129-.26.129-.389 0-.647z" fill="#fff"/><path d="M13.438 43.773c0-.388-.13-.646-.13-1.033 0 .387.13.775.13 1.033zm1.295 1.032c0-.258-.13-.387-.13-.645 0 .258 0 .387.13.645zm30.752.001c-.13-.13-.259-.388-.388-.517.13.13.258.258.388.517zM13.179 31.764c.13 0 .13-.13.258-.13l-.517-.387c-.258.258-.516.516-.903.646l.257.517c.259-.259.517-.388.905-.646zm40.448 44.549c-.647-1.291-1.293-2.454-1.81-3.745v-.129.129c.518 1.162 1.163 2.454 1.81 3.745zm-18.479 3.745c.388.516 1.034 1.033 1.68 1.162.258.129.646.129.646.516.259 1.033 1.163 1.292 2.068 1.808.258-.516.517-1.033.775-1.42-.258.516-.517.904-.775 1.42-.775-.516-1.81-.775-2.068-1.808-.129-.387-.387-.516-.646-.516-.775-.258-1.292-.646-1.68-1.162-2.842-3.616-6.59-6.586-8.012-11.235 1.293 4.65 5.17 7.619 8.012 11.235zm-9.822-10.847h-.258.258zm23.778 1.162c-.13 0-.259-.129-.517-.129.258 0 .387 0 .517.13zM27.395 50.1l-.258-.258c0 .13.129.13.258.258zm-1.94 12.396c.13 0 .387.129.387.258.13.13.259.387.259.517 0-.259-.13-.388-.259-.517 0-.258-.129-.258-.387-.258-.775-.258-1.163-.904-1.163-1.42 0 .516.388 1.032 1.163 1.42zm.39-6.586c.388.259.517.647.517 1.034 0-.259-.13-.646-.517-1.033zM51.04 67.015h1.292c-.388-.128-.775-.128-1.292 0zm2.327 2.325c1.42 2.066 1.549 3.874.903 5.682.517-1.808.517-3.616-.903-5.682zM6.722 66.112a29.479 29.479 0 00-2.068-1.162c-.258-.13-.388-.388-.517-.646 0 .258.13.516.517.645.646.388 1.422.775 2.068 1.163.129-.13.258-.13.258-.259 1.292-3.357 2.197-6.843 2.455-10.33-.258 3.486-1.034 6.973-2.455 10.33l-.258.259zm-2.456-9.556c.775-3.745 1.421-7.36 3.23-10.717 0-.13.13-.13.13-.259 0 .13 0 .13-.13.259-1.809 3.357-2.455 6.972-3.23 10.717-.517 2.453-.776 5.036-.905 7.619-.904-.517-1.55-.904-2.326-1.292.776.387 1.55.775 2.326 1.292.13-2.712.388-5.166.905-7.619zm6.976-1.808c-.258.646-.517 1.292-.775 1.809.258-.646.517-1.292.775-1.809zM3.877 68.436c.516-.387 1.292-.258 1.938-.775-.517.388-1.422.388-1.938.775zm2.196-1.033c-.129.129-.13.258-.258.258a.277.277 0 00.258-.258zm20.933-19.369c-.13.129-.13.387-.13.516 0-.129 0-.258.13-.516zM9.56 45.71c-.13 0-.388.129-.518.129.13 0 .259 0 .517-.13zm44.97 21.305c0-.128 0-.128 0 0zM26.36 56.944c0 .258-.13.516-.259.774.13-.129.259-.387.259-.774zM10.338 39.899c.13 0 .13 0 0 0zm.257 15.624c0 .258 0 .646-.129 1.033 0-.387 0-.775.13-1.033zM53.369 69.34c-.259-.387-.647-.775-1.034-1.162.388.387.646.775 1.034 1.162zm-1.551-1.808l.516.517a1.007 1.007 0 01-.517-.517zM.775 62.754s.129 0 .129.129l-.129-.129zm10.855-8.78c.129-.258.129-.517.258-.775-.13.258-.258.517-.258.775zm4.008-17.304c1.68-.903 3.23-1.936 5.168-2.97.259-.129.517-.258.776-.516-.259.13-.517.258-.776.517-1.938 1.033-3.489 2.066-5.168 2.97-.13.129-.259.129-.388.258.13 0 .258-.13.388-.258z" fill="#fff"/><path d="M21.578 33.184c-.258.13-.517.258-.775.517-1.81 1.033-3.489 2.066-5.169 2.97-.129.129-.258.129-.387.258-.13.129-.13.258-.13.387v.13c0 .128.13.386.259.516 1.81-1.162 3.747-2.196 5.556-3.358v9.943c.13 0 .388-.129.517-.129.13-3.745.13-7.36.13-11.234zm5.3 10.072c-.13 0-.258.13-.387.13.129-.13.258-.13.387-.13z" fill="#fff"/><path d="M26.878 43.256c-.13 0-.258.13-.387.13-.259.128-.388.128-.647.257.259 0 .646-.129.905-.129l.129-.258zm8.913-7.231c-.129 0-.129.129-.258.129.13 0 .258 0 .258-.13zM33.21 51.52c-.647 1.42-1.163 2.97-1.422 4.52.388-1.679.776-3.1 1.422-4.52zm-1.295-2.583c.388-1.033.776-2.066 1.422-3.099.129-.129.258-.387.258-.516-.13.129-.258.387-.258.516-.646 1.033-1.163 2.066-1.422 3.1-.646 1.807-.904 3.744-1.033 5.552 0-1.808.387-3.745 1.033-5.553zm9.952-7.231c.13 0 .259.13.517.258-.13-.129-.388-.258-.517-.258 0-.129 0-.129 0 0-.129 0-.258-.129-.387-.129.129 0 .258 0 .387.13 0-.13 0-.13 0 0z" fill="#fff"/><path d="M47.423 49.842c-.258-1.291-.646-2.583-1.292-3.745l-.388-.775c0-.129-.129-.258-.129-.258 0-.129-.13-.13-.13-.258-.129-.13-.258-.388-.387-.517s-.129-.258-.258-.387l-.258-.258-.259-.258-.387-.387-.387-.387c-.26-.259-.518-.388-.647-.388h-.13c-.128-.13-.258-.13-.516-.258-.13-.13-.258-.13-.517-.258h-.129c-.13 0-.258-.13-.258-.13h-.13c-.129 0-.387-.129-.516-.129h-2.196c-.13 0-.259 0-.259.13-.129 0-.129 0-.258.129-.13 0-.258.129-.258.129s-.13 0-.13.129c-.129 0-.258.129-.258.129-.129 0-.129.129-.258.129h-.518s-.13 0-.13.129l-.128.129c-.13.129-.388.258-.517.387-.258.258-.517.387-.776.646-.387.387-.775.904-1.162 1.42-.13.13-.259.258-.259.387-.129.13-.258.388-.258.517-.646 1.033-1.034 2.066-1.421 3.1-.647 1.807-.905 3.744-1.034 5.552v1.678c0 .775 0 1.679.13 2.454.128.774 0 1.42.387 2.195.129-.13.129-.258.129-.258v-3.745c0-.128 0-.386.129-.516 0-.129 0-.387.13-.516.257-1.55.775-3.1 1.42-4.52 0 0 0-.129.13-.129.129-.258.258-.516.387-.646.517-.904 1.163-1.807 1.81-2.711.128-.13.258-.258.258-.387l.129-.13.258-.258 1.033-1.032s.13 0 .13-.13l.129-.128s.129 0 .129-.13l.129-.128s.13 0 .13-.13c0 0 .128 0 .128-.128h.13s.129 0 .129-.13h3.746c.128 0 .128 0 .258.13 0 0 .129 0 .129.129 0 0 .129 0 .129.129 0 0 .129 0 .129.129l.13.129s.128 0 .128.129l1.292 1.29c0 .13.13.13.13.259l.128.129.259.258s0 .129.129.129c.129.129.129.258.258.387.258.387.517.775.646 1.162.388.646.646 1.291 1.034 1.937.906-.388.777-.904.648-1.55h.001zm-3.101-14.075h-.904c-.13.258-.387.645-.646.904v.387c.129-.13.258-.13.258-.258h.13c.129 0 .129-.13.258-.13s.258-.128.387-.128h.13c.128 0 .128-.13.258-.13 0-.129.129-.258.129-.387v-.258zm-1.035 30.861h.775c0 .13.13.13.13.259 0 0-.13-.13-.13-.26h-.775zm-2.067-1.162v.129l.259.258.258.258c.13.13.13.13.258.13.13 0 .13.129.259.129s.129.129.258.129h.258-.258c-.129 0-.129 0-.258-.13-.13 0-.13-.129-.258-.129-.13 0-.13-.129-.259-.129l-.258-.258-.258-.258v-.129z" fill="#fff"/><path d="M44.58 48.421c-.13-.129-.259-.258-.259-.387l-.129-.129-.258-.258-.13-.13c-.129 0-.129-.128-.258-.128 0 0-.129 0-.129-.13 0 .13-.13.13-.13 0 0 0-.129 0-.129-.129-.129 0-.129-.129-.258-.129h-.129c-.13 0-.13 0-.258-.129h-.13c-.129 0-.258 0-.387-.129h-1.679c-.13 0-.13 0-.258.13h-.13c-.129 0-.129 0-.258.128h-.129c-.129 0-.129.13-.258.13h-.13c-.129.128-.258.128-.387.258-.258.129-.517.387-.646.516-.646.646-1.163 1.291-1.55 2.066-.388.775-.776 1.55-1.034 2.325 0 .129-.13.258-.13.387-.516 1.162-.775 2.453-1.033 3.745 0 .258-.13.645-.13.903 0 .517-.128 1.033-.128 1.55 0 1.55.129 3.228.517 4.907.129.387.258.775.258 1.162 0 .129.129.258.129.387.258.904.775 1.679 1.421 2.453l.259.259s.129 0 .129.129c.129.129.129.129.258.129l.13.129c.128 0 .128.129.258.129 0 0 .129 0 .129.129.129 0 .129.129.258.129 0 0 .13 0 .13.13.128 0 .128 0 .258.128h.129c.129 0 .129 0 .258.13h2.196c.129 0 .129 0 .258-.13h.13c.128 0 .128 0 .258-.129 0 0 .129 0 .129-.129.129 0 .129-.13.258-.13 0 0 .13 0 .13-.128.128-.13.257-.13.387-.258.387-.388.904-.775 1.292-1.162.129-.13.258-.258.258-.517 0-.129.13-.258.13-.258s-.13-.13-.13-.258h-1.679c-.13 0-.13 0-.258-.13-.13 0-.13-.128-.259-.128s-.129-.13-.258-.13c-.13-.128-.13-.129-.258-.258l-.259-.258v-.13c-.129-.128-.129-.257-.258-.386a.986.986 0 01-.258-.646s0-.129-.13-.129c0-.129-.129-.258-.129-.387 0 0 0-.13-.129-.13-.129-.386-.258-.903-.387-1.29 0-.259-.13-.517-.13-.646-.128-.646-.128-1.42-.128-2.195 0-.904.129-1.937.258-2.841 0-.258.129-.646.129-.904.13-.387.258-.904.388-1.291 0-.13.129-.388.129-.517.258-.516.517-1.162.904-1.678.13-.13.13-.259.259-.388 0 0 0-.129.129-.129 0-.129.129-.129.129-.258l.258-.258s.13 0 .13-.13l.128-.128s.13 0 .13-.13c0 0 .129 0 .129-.128h1.291s.13 0 .13.129h.129l.129.129s.129 0 .129.129l.13.129s.128 0 .128.129l.259.258c0 .13.129.13.129.258 0 0 0 .13.129.13.13.128.13.258.258.387.258.387.388.645.517 1.162.13.258.13.387.258.645.13.259.13.517.259.775.259-2.324-.258-4.52-1.808-6.328z" fill="#fff"/><path d="M40.573 64.562c.13.258.13.388.258.646a.985.985 0 00-.258-.646zm6.461-58.107c-.517 0-.905 0-1.422-.13h-.775v.646c-.13.646-.258 1.162-.258 1.808.517-.258 1.163-.517 1.68-.775 1.163-.517 2.326-1.162 3.49-1.679h-.26c-1.033.259-1.809.13-2.455.13zm65.514 15.625c0 .128 0 .387-.129.516-.13.516-.388 1.033-.517 1.678 1.163-.904 1.809-2.195 1.938-3.357v-.387c0-.646-.129-1.42-.517-2.067 0-.129-.129-.258-.258-.387s-.129-.258-.259-.387v-.129c-.129-.13-.129-.258-.258-.387l-.258-.258h-.129c-.13-.13-.259-.13-.388-.258-.129 0-.258-.13-.258-.13h-.129c-.13 0-.259-.129-.388-.129h-.129c-.129 0-.258 0-.387-.129h-1.163c-.129 0-.129 0-.258.13h-.388l-.775.645h1.55c.129 0 .129 0 .258.13.129 0 .129 0 .258.128.13 0 .13 0 .259.13.129 0 .129.128.258.128s.129.13.258.13l.13.129c.129 0 .129.129.258.129l.646.645c0 .13.129.13.129.258l.129.13c0 .128.129.128.129.257 0 .13 0 .13.129.259 0 .129 0 .129.13.258v1.936c.128.258.129.388.129.388z" fill="#fff"/><path d="M126.373 60.171c-.258.258-.646.387-.904.517-.13 0-.259.129-.259.129-.129-.13-.129-.258 0-.387.776-2.196 1.034-4.262-.517-6.328-.258 0-.258.517-.646.388-.387-1.163 0-2.583-1.163-3.745 1.551.258 2.714-.387 4.135-.904-9.045-1.937-17.961-3.745-26.748-5.553-2.584-.516-5.168-1.033-7.882-1.678-.258 0-1.034.129-.388-.646 1.293-.258 1.81-1.033 2.068-2.066 0-.13.13-.388.13-.517v-.516c0-.517.129-.904 0-1.42 0-.388-.13-.646-.259-1.034 0-.129-.13-.258-.13-.258-.258-.387-.775-.516-1.162-.646-.13 0-.258 0-.388-.129-.129 0-.258 0-.387-.129-.258-.129-.517-.129-.775-.258h2.195s.13 0 .13.13c0 0 .129 0 .129.128l.387.387c0 .13.13.13.13.259v.129c0 .129.129.129.129.258v.129c0 .129.129.129.129.258v.13c.129.128.258.257.387.257h.13c1.033.13 1.938.388 2.972.517 0-2.454-.13-2.583-2.326-3.1-1.422-.387-2.973-.645-4.523-1.032.129-.13.129-.259.258-.388 0 0 0-.129.13-.129 0-.129.129-.129.129-.258s0-.129.129-.258c0 0 0-.13.129-.13 0-.128.129-.257.129-.386v-.13c0-.128.13-.128.13-.258 0 0 0-.129.128-.129 0-.129.13-.129.13-.258 0 0 0-.129.129-.129 0-.129.129-.129.129-.258l.258-.258v.775h.904s.13 0 .13.128v-6.972c0-.646 0-1.033-.259-1.292l-.13-.129c-.128-.129-.387-.129-.645-.258-.259 0-.388-.129-.776-.129.13.904.259 1.678.388 2.582 0 .517.129.904.129 1.292v.258c0 .387-.13.775-.13 1.162v-.904c0-.258 0-.646-.128-.904 0-.646-.13-1.291-.259-1.937 0-.387-.129-.645-.129-1.033-.129-1.033-.387-2.066-.646-3.228h1.936c.13 0 .259.13.388.13h.129c.13 0 .258 0 .388.128h.129l1.55.387c.13 0 .258 0 .388.13h2.584c1.034.387 2.197.774 3.23 1.032 1.293.388 2.585.775 3.748 1.42l1.55.776s.129.129.259.129c.129 0 .129 0 .258.129h2.583c.13 0 .13 0 .259.129.129 0 .129 0 .258.129h1.163s.129 0 .129.13h2.454s-.129 0-.129-.13h-.13c-.129 0-.129-.13-.258-.13h-.129c-.129 0-.258-.128-.258-.128-.13 0-.13-.13-.259-.13 0 0-.129 0-.129-.128l-.129-.13c-.129 0-.129-.128-.258-.128 0 0-.13 0-.13-.13l-.129-.129s-.129 0-.129-.129l-.129-.129s-.129 0-.129-.129l-.129-.129s-.129 0-.129-.129l-.13-.129s-.129 0-.129-.13c0 0-.129 0-.129-.128h-.129c-.129 0-.129 0-.258-.13h-2.584s-.129 0-.129-.128c-.258-.13-.517-.387-.775-.646-.259-.258-.517-.646-.776-1.033-.129-.13-.129-.258-.258-.387-.129-.259-.258-.517-.258-.904-.129-.517-.259-1.033-.259-1.55 0-1.033.259-2.066.905-2.97l.258-.387v-.13c-1.292-.516-2.584-.903-3.876-1.42-.388-.129-.905-.387-1.292-.516-.13 0-.13 0-.259-.13-.258-.128-.646-.257-.904-.516l-.129-.129-.388-.387-.129-.129-.258-.258-.13-.13c-.129-.128-.129-.128-.258-.128l-.13-.13c-.128 0-.128-.128-.257-.128h-.13c-.129-.13-.258-.13-.387-.13h-.13c-.128 0-.128-.129-.258-.129h-1.679c-.129 0-.258 0-.387.13h-.13c-.129 0-.129 0-.258.129h-.129c-.129 0-.129.129-.258.129h-.13c-.128 0-.258.129-.387.129l-.258.258-.258.258c-.13-.13-.13-.13-.13-.258 0-.13.13-.13.13-.13 0-.128.129-.128.129-.257l.129-.13s0-.128.129-.128l.13-.13s.128 0 .128-.129H93.55c-.129 0-.258 0-.387-.129-.13 0-.259-.129-.388-.129h-.129c-.129 0-.129 0-.258-.129h-.13c-.129 0-.258-.129-.387-.129-.517-.258-1.034-.387-1.55-.516-.517-.13-1.034-.388-1.551-.517-.13-.129-.388-.129-.646-.258 0 0-.13 0-.13-.13-.129-.257-.258-.516-.387-.645l-.129-.129c-.13-.13-.13-.13-.258-.13-.517-.257-1.034-.257-1.55-.516h-.905v.775c-.646 0-1.163-.13-1.81-.258-.387-.13-.645-.258-1.033-.388l.258-.258s.13 0 .13-.129c.129 0 .129-.129.258-.129 0 0 .13 0 .13-.129.128 0 .128-.129.258-.129h.129c.129 0 .129 0 .258-.129h1.679c2.455.13 4.781.516 7.107 1.033 2.326.516 4.652 1.033 6.849 1.808 1.162.387 2.196.775 3.359 1.162 1.163.387 2.197.904 3.36 1.291 2.197.904 4.393 1.937 6.461 3.1.775.387 1.421.774 1.938 1.42.517.516.905 1.291 1.034 2.066v.516l.129.13h.775c.129-.388.129-.904.129-1.292 0-.904-.258-1.679-.775-2.324-.13-.13-.259-.387-.517-.517-.388-.258-.776-.646-1.292-.775-.259-.129-.388-.258-.647-.387-1.679-.904-3.359-1.808-5.168-2.582-.646-.258-1.163-.517-1.809-.775-2.326-1.033-4.781-1.808-7.107-2.583-4.781-1.42-9.82-2.582-14.86-3.357h-1.809l-.129.13s0 .128-.129.128v.13s0 .128-.129.128c0 .13 0 .13-.13.258v.388c0 .129 0 .129-.128.258-.13.258-.13.516-.259.775 0 .129-.129.258-.258.387C75.849 5.035 70.68 3.873 65.511 2.84h-3.229c-.13 0-.13 0-.258.129-.647.258-1.293.387-1.939.645l-1.162.388c-.259.129-.517.129-.776.258-.258 0-.387.129-.646.129a64.91 64.91 0 00-2.584.775c-.388.129-.905.258-1.293.516l-1.938.775a128.074 128.074 0 01-6.073 2.84c-2.068.905-4.005 1.938-6.073 2.841-.13 0-.258.13-.258.13h-.13c-.129 0-.129.129-.258.129s-.129 0-.258.129h-.388s0-.13-.129-.13v-.903c0-.258-.129-.646-.129-.904-.129-.646-.129-1.291-.129-1.808V4.26c0-.387 0-.775-.13-1.162 0-.13-.128-.13-.128-.258l-.13-.13c-.129-.129-.258-.129-.387-.258.13 0 .258-.129.388-.129.129 0 .258-.129.387-.129.13 0 .258-.129.387-.129.13 0 .259-.129.259-.129.129 0 .258-.129.387-.129h.13c.129 0 .258 0 .387-.129h1.421c-.259.258-.388.646-.517 1.033 0 .129-.13.129-.13.258 1.034 1.807.776 2.323.776 3.098 0 .387-.13.775-.13 1.162 0 .646-.128 1.162 0 1.808v.646c0 .387.13.904.13 1.291 0 .258 0 .387.13.646.258-1.678.516-3.357.775-4.907 0-.129 0-.258.129-.387v-.129c0-.13 0-.13.129-.258v-.13c0-.128 0-.128.13-.257v-.13s0-.129.128-.129c0 0 0-.129.13-.129 0 0 0-.129.129-.129 0 0 0-.129.129-.129l.129-.129s0-.129.13-.129l.128-.129.13-.13.129-.128s.129 0 .129-.13c0 0 .129 0 .129-.128 0 0 .129 0 .129-.13 0 0 .13 0 .13-.128h2.195c.517 0 .904 0 1.421.129 1.422.129 2.843.129 4.264.258.647 0 1.422.129 2.068.129 1.422.129 2.843.129 4.135.258.646 0 1.292.13 2.068.13V1.808l-.13-.129-.129-.129-.129-.129h-1.163c-.258 0-.387 0-.645.13-.13 0-.259.128-.259.128l-.129.13c-.129.129-.258.258-.258.387s-.13.258-.13.387 0 .258-.129.387v.646c-.775-.13-1.42-.258-2.196-.387.129-.388.258-.646.258-.904v-.13c0-.128 0-.387-.13-.516-.128-.258-.258-.516-.516-.646-.13-.129-.258-.129-.388-.129-.129 0-.129 0-.258-.129H52.72s-.13 0-.13.13l-.258.257s0 .13-.129.13l-.129.129c0 .129-.13.129-.13.258 0 0 0 .129-.128.129v.129s0 .129-.13.129v.13c0 .128-.129.128-.129.257h-.387c-.258 0-.517-.129-.775-.129-.13 0-.259 0-.388-.129V1.42c0-.258-.13-.516-.258-.775 0 0 0-.129-.13-.129-.129-.129-.258-.258-.387-.258 0 0-.129 0-.129-.129-.13 0-.258-.129-.388-.129H48.2c-.13 0-.13 0-.258.13-.13 0-.13.128-.259.128s-.129.13-.129.13-.13.128-.13.257c0 .13-.128.13-.128.259s-.13.129-.13.258 0 .258-.129.258c-.517 0-.904 0-1.421-.13-.13 0-.388-.128-.517-.128h-2.843c-.129 0-.387 0-.517.129h-.129c-.129 0-.258.129-.517.129h-.129c-.129 0-.258.129-.517.129h-.129c-.129.129-.387.129-.517.258h-.129c-.129.13-.258.13-.387.258 0 0-.13 0-.13.13-.129.128-.387.257-.516.257-.13.13-.259.259-.517.259-1.295.774-1.812 1.032-2.329 1.29-.129.13-.387.13-.517.258-.387.13-.646.259-1.033.388a16.036 16.036 0 01-4.91 1.162c-4.652.645-4.652 3.874-4.781 4.39-1.034 2.712-6.849 15.624-10.467 18.078.13 0 .13.129.258.129 1.939-1.55 4.006-2.97 5.944-4.52 3.877-2.324 4.781-14.075 5.557-15.624.387-.646.904-1.162 1.55-1.42 1.68-.646 3.618-.904 5.557-1.292-.259.387-.517.517-.647.646-.129 0-.258.129-.387.129-.13 0-.259 0-.388.13-.387 0-.646.128-1.033.128h-.259c-.516.13-.904.258-1.292.387-.13 0-.258.13-.387.13-.13 0-.259.129-.388.258s-.387.258-.517.387c-.775.646-1.163 1.808-1.55 3.486-.13 1.033-.388 2.066-.517 2.97-.517 2.97-.905 6.07-1.55 9.04l.258.258c.129-.13.129-.259.258-.259.517-.645 1.292-1.033 1.55-1.937.388-1.29.647-2.453 1.034-3.744.388-1.292.646-2.454 1.034-3.745.517-2.324 1.292-4.52 3.36-5.94.129 0 4.78-2.711 4.78-2.711s.13 0 .13-.13c0 0 .129 0 .129-.129l.13-.129s.128 0 .128-.129c0 0 .13 0 .13-.129h.129c.129 0 .129 0 .258-.129h.904l.13.13v.903c-.13 1.678-.26 3.228-.388 4.907-.13 1.678-.259 3.228-.388 4.906v.646c0 .129.13.258.259.516.775-.387 1.55-.904 2.326-1.291 5.556-2.97 11.112-5.682 16.798-8.523.129 0 .258-.129.387-.129 0 0 0-.129.13-.129h.387v-.129h.387c-.129.13-.258.258-.387.258-.13 0-.13.13-.259.13-.646.774-1.162 1.549-1.55 2.453-.258.516-.387 1.033-.517 1.678.13-.129.258-.258.258-.387.259-.387.517-.904.776-1.42.129-.13.129-.258.258-.388.13-.129.13-.258.259-.387s.258-.258.258-.387a1415.176 1415.176 0 01.775-.774c.388.387.517.258.646.258.13-.13.258-.13.388-.258h.129c.129-.13.258-.13.517-.259h.129c.129-.129.258-.129.516-.258h.13c0-.258.258-.387.388-.387.129-.13.387-.13.517-.13.129 0 .387-.128.517-.128h.129c.129 0 .387-.13.517-.13h.129c.129 0 .258-.129.517-.129h2.066c1.68.259 3.36.646 5.169.904 2.584.517 5.04 1.033 7.624 1.55 2.584.516 5.04 1.033 7.624 1.55h.258c.517.128.775.386.904.903.647 2.195 1.293 4.39 1.939 6.457.258.904.517 1.808.775 2.84.13.258.13.646.258.904.259.904.517 1.937.776 2.84 0 .13.129.388.129.517.13.388.13.775.13 1.162v1.034c0 1.936-.518 3.873-1.81 5.681-.129.258-.387.517-.517.775-.129.258-.387.517-.517.775-.387.516-.646 1.162-1.033 1.678.517.13 1.163.13 1.68.259.387 0 .646.129 1.033.258l1.55.387c.517.129 1.034.387 1.293.775.13.129.387.387.387.516.13.258.259.388.259.646.258.775.258 1.679-.259 2.453 0 .13-.129.259-.258.388-.13.258-.258.387-.517.645l-.387.388s-.13.129-.259.129c-.387.258-.646.516-1.55.129l-15.764-2.195c.129-1.679.258-3.1.387-4.649 0-.646.259-1.42-.258-2.066-.388-.516-1.034.13-1.55 0 .129-.516.387-.516.646-.516 1.68-.775 3.23 0 4.91.387 2.067.516 4.135 1.162 6.331 1.678 0-.645-.129-1.162-.129-1.55.13-1.032-.387-1.42-1.421-1.678-2.455-.646-5.04-1.291-7.495-1.937-3.876-.904-7.882-1.55-11.888 0-.775.259-1.68.517-2.455.775-.517.13-.904.13-1.292 0-2.455-.904-4.91-1.808-7.236-2.97-.517-.258-1.034-.387-1.292-.904 1.033-1.42 2.842-2.066 4.393-3.357-.775.129-1.292.258-1.68.387-4.264.904-8.011.517-10.337-3.874-.776-1.291-1.938-2.453-3.748-2.195v-.258c.259-.13.647-.258.905-.517.13 0 .13-.129.258-.129.259-.129.388-.258.647-.387.129-.129.258-.129.387-.258.13-.13.388-.258.517-.387.13-.13.258-.13.387-.258l.388-.388h.129l-.13.13c-.128 0-.128 0-.258.128-.129 0-.129 0-.258.13-.129 0-.129.129-.258.129-.13 0-.13.129-.258.129-.13 0-.13.129-.259.129s-.129.129-.258.129c-.13 0-.13.129-.258.129l-.13.129c-.129 0-.129.129-.258.129l-.129.13c-.13 0-.13.128-.258.128-.26 0-.389 0-.518.13l-.13.128c-.128.13-.258.13-.387.259-7.107 4.26-14.084 8.522-21.191 12.783-.13.13-.517.13-.388.387a61.81 61.81 0 004.135-2.066c.13.517.388 1.033.517 1.42 1.034-.257 1.68-.774 1.68-1.807 0-.646.258-1.033.775-1.291 3.748-2.583 7.624-4.778 11.5-6.973-2.067 3.228-3.23 6.843-3.876 10.717-.13.775 0 1.55-.387 2.195-1.939 2.712-1.939 6.07-2.585 9.297.905-.645 1.55-1.29 2.197-1.807.258-.258.517-.388.646-.904.13-1.55 1.292-2.712 3.102-2.84-.13 0-.13.128-.259.128s-.129.13-.258.13l-.13.128-.128.13-.13.129-.129.129-.129.129-.129.129-.13.129-.128.129-.13.129s0 .129-.129.129l-.129.129s0 .13-.129.13v1.677c0 .13 0 .13.13.258v.13c0 .128.128.257.128.386 0-.129.13-.258.13-.516v-.13c0-.128.129-.257.129-.386v-.13c.129-.128.129-.258.258-.387.13-.129.258-.258.258-.387.388-.387.647-.646 1.163-.904.258-.258.517-.387.388-.775-.388-1.42.387-1.807 1.55-2.195.13-.129.259-.129.388-.258 2.584-1.162 5.427-.904 8.14-.775a19.786 19.786 0 018.916 2.583c-.258.129-.387.258-.516.258-1.163.516-1.163.904-.13 1.678.517.388 1.034.775 1.68 1.163.517-.517 1.034-.904 1.422-1.421 1.809 1.162 1.938 1.679 1.033 4.003-.387-.258-.646-.517-1.033-.775-.13.517-.776.904-.259 1.42 1.034.904 2.326 1.68 3.49 2.454.387-1.033.257-1.937.774-2.97 1.293 2.582.647 4.907-.387 7.102-.775-.13-1.292-.517-1.292-1.291 0-1.42-.905-2.196-2.197-3.229.904 4.133 2.455 7.619 4.781 10.847a37.362 37.362 0 001.55-7.36c.517 1.55 1.422 3.099.905 4.648-.517 2.067-1.421 4.003-2.326 6.07-1.292-1.55-2.067-3.229-3.36-4.52-1.42-1.292-2.584-2.712-3.36-4.39-.774-1.55-1.808-2.712-3.359-3.616-.775 1.162-1.55 2.195-2.455 3.486.776 0 1.422.13 2.068.13 1.033-.13 1.68.387 2.197 1.29 2.067 3.358 4.135 6.586 6.202 9.814.905 1.42.387 2.841.13 4.262-.388-1.163-.905-2.196-1.551-3.229-1.034-1.678-2.326-3.099-3.49-4.648-1.938-2.454-1.938-2.454-4.651-1.162-.13 0-.13.129-.388.258 2.714 3.099 5.815 5.94 7.107 10.072-2.067 1.291-.258 3.099-.646 4.907-.904-1.292-1.421-2.97-2.455-3.616-.258-.129-.646-.258-.904-.387h-3.618c.13.129.258.258.388.258.129.13.258.13.258.258l.517.517c.387.387.775.775 1.033 1.162 1.422 2.066 1.551 3.873.905 5.681 0 .13 0 .13-.13.258 0 .13 0 .13-.128.259 0 .129 0 .129-.13.258v.129s0 .129-.129.129c0 0 0 .129-.129.129v.13c-.646-1.292-1.292-2.454-1.809-3.746v-.129s0-.129-.129-.129c-.258-.387-.517-.775-.905-1.162-.129-.129-.258-.258-.387-.258h-.13c-.128 0-.258-.13-.258-.13.387-.256.387-.256.258-.256 0 0-.13 0-.13-.129-.129 0-.258-.129-.387-.129h-.129c-.13 0-.258-.129-.517-.129v.13c.517 1.549.905 3.098 1.422 4.648.129.646.258 1.162.258 1.678v.259c0 .645-.13 1.162-.388 1.678-.258.517-.517 1.033-.904 1.42-.13.13-.258.259-.517.388l-.258.258c-.905-3.615-.905-3.745-2.326-5.165-.388 1.679-.905 3.357-1.293 5.036-.129.775-.516 1.291-1.292 1.42-.129-.129-.129-.258-.258-.387l-.13-.129c0-.129-.128-.129-.128-.258l-.13-.13-.129-.128-.129-.13-.13-.128-.128-.13s-.13 0-.13-.129h-1.549l-.13.13-.129.129-.129.129-.129.129-.13.129s0 .129-.128.129c0 0-.13.129-.13.258 0 0 0 .13-.129.13 0 .128-.129.257-.129.386-.258.517-.517.904-.775 1.42-.776-.516-1.81-.774-2.068-1.807-.129-.387-.387-.517-.646-.517-.775-.129-1.292-.516-1.68-1.162-2.842-3.615-6.59-6.585-8.011-11.234h-.646s-.13 0-.13.13h-.774c-.13-.905-.13-1.809-.258-2.712.387-.13.646-.388.904-.775.13-.13.13-.258.258-.388 0-.129.13-.258.13-.387.129-.387.129-.645.129-1.033 0-.258 0-.516-.13-.646 0-.258-.129-.387-.258-.516s-.258-.129-.387-.258c-.776-.258-1.163-.904-1.163-1.42 0-.13 0-.388.129-.646.13-.258.13-.387.258-.646.388-.517.905-1.162 1.293-1.679 0-.129.129-.129.129-.258.129-.258.258-.516.258-.775 0-.387-.13-.775-.517-1.033-.517-.387-.775-.904-.775-1.42v-.645c0-.13.129-.259.129-.388.13-.258.258-.387.387-.645.517-.517 1.034-1.033 1.68-1.55l.388-.387c0-.13.129-.258 0-.258v-.13c0-.128-.13-.258-.259-.387l-.258-.258c0-.129-.13-.129-.13-.258s-.128-.129-.128-.258c0-.13 0-.13-.13-.258v-.516c0-.13.13-.388.13-.517.129-.258.258-.516.517-.775.258-.258.387-.646.646-1.033-4.264 0-8.14 1.679-12.017 2.97-.259.13-.517.13-.776.258h-.129c-.258 0-.387.13-.646.13-.13 0-.258.129-.388.129-.129 0-.258.129-.517.129-.258.129-.646.129-.904.258 0-.258 0-.387.13-.646.128-.258.387-.387.645-.516.13 0 .388-.13.517-.13.13 0 .388 0 .517-.129.13 0 .13-.129.258-.129h-.647c-.129 0-.129.13-.258.13h-.258c-.13 0-.13 0-.259.128-.258.13-.517.13-.646.258-.13 0-.13.13-.13.13-.257.258-.257.645-.128 1.162.129 1.033.129 1.937-.13 2.84 0 .258-.129.517-.258.775s-.129.517-.258.775c-.258.646-.517 1.291-.775 1.808 0-.388 0-.775.129-1.033v-2.97c-.13-.258-.259-.387-.517-.646.13-.129.387-.258.517-.387.258-.129.387-.129.517-.387-.13-.387-.388-.517-.647-.775-.258-.13-.646-.258-.904-.258.129-.387.258-.646.517-.775.129 0 .129-.13.258-.13h.13c.128 0 .258 0 .387-.128h.388c.128 0 .258-.13.387-.13l-.13-.128c-.129-.13-.129-.13-.258-.13s-.258-.128-.258-.128H9.95c-.129 0-.258 0-.258-.13-.13 0-.259-.129-.259-.129l.388-.387s.13 0 .13-.129c0 0 .128 0 .128-.129h.904c.259 0 .647-.129.905-.258-.517-.258-.905-.387-1.421-.387h-1.68l-.129-.13c.13 0 .13-.129.259-.129.129-.128.387-.128.516-.128.388-.13.776-.13 1.293-.259h.904s.129 0 .129.13l.13.129.387.387c0-.13-.13-.258-.13-.387-.129-.259-.129-.517-.258-.775v-.13c-.129-.258-.129-.387-.129-.645v-.13c0-.258-.13-.386-.13-.645-.128-.258-.128-.646-.258-.904-.129-.258-.129-.646-.258-.904-.129-.646-.387-1.162-.646-1.808-.258-.516-.517-1.162-.775-1.678-.647.387-.776 1.033-1.034 1.42-.258.646-.388 1.42-.517 2.066 0 .258-.13.387-.13.646v.13c0 .257 0 .386-.128.645v2.453c0 .13 0 .13-.13.259-1.809 3.357-2.455 7.102-3.23 10.717-.517 2.453-.775 5.036-.904 7.619-.905-.517-1.551-.904-2.326-1.292 0 0-.13 0-.13-.129l-.775-.387c.646.646 1.292 1.162 2.068 1.55.646.387 1.163.774 1.292 1.42 0 .258.129.387.129.775v.774c.13.258.258.646.646.904v-1.549c0-.258 0-.646.13-.904.775.516 1.42.904 2.067 1.42 0 .258-.13.517-.258.646-.13.129-.13.258-.259.258-.516.387-1.421.387-1.938.775 1.55 1.291 3.36 1.42 5.169 1.55 1.68 0 3.101.516 4.393 1.42 5.298 3.486 15.894 10.33 15.894 10.33l.517.646s-13.956-1.679-13.956-1.55c5.428 1.292 10.725 2.712 16.152 4.003l-.516.517-21.967.258c.258 0 24.939.904 24.939.904l5.168 2.324 2.326.646 7.495-2.453 9.69-1.162 17.962 2.582-5.814-2.841-14.343-5.165 3.618-3.1-.259-.258h-.775l3.36-3.486 2.455-4.132-1.81-.646c1.422-1.937 3.49-6.069 3.49-6.069l7.107.646 3.23.387 5.815.517 2.455.129s1.809 7.748 4.264 11.234c0 0 8.27 13.171 26.231 5.811 7.753-4.52 9.304-10.847 9.95-14.979-.776 0-1.163.516-2.068.258 1.938-1.937 3.101-4.26 1.938-7.102h-.003zM95.103 13.17c.129-.259.129-.646.646-.775.129 0 .258 0 .258-.13h1.809c.128 0 .128 0 .258.13.129 0 .129.129.258.129h.13s.128 0 .128.129h.13s.129 0 .129.129h.129s.129 0 .129.129l.129.13.13.128.128.13.13.128.129.13.129.128.129.13.129.129c0 .129.129.129.129.258v.129l.13.129v.129s-.001.129.129.129v.13s0 .128.129.128v.13s0 .128.129.128v3.098c0 .128 0 .257-.129.257 0 .13 0 .258-.129.258-.13.258-.129.388-.259.646 0 .13-.129.258-.129.387.129 0 .259-.129.259-.129.129 0 .129-.129.258-.129.129-.129.387-.258.517-.387l.258-.258c.258-.258.387-.646.517-1.033 0-.258.129-.387.129-.646v-1.291c0-.517 0-1.033-.129-1.55.646.259 1.292.388 1.809.646.258.13.387.13.646.258.776.258 1.68.517 2.584.904-.129.13-.258.13-.258.258-.517.517-.775.904-1.034 1.42-.129.13-.129.259-.258.388-.129.258-.129.387-.258.646-.259.775-.259 1.678-.129 2.582h-.905c-.129 0-.258-.129-.387-.129h-.129c-.129 0-.129 0-.259-.129h-.129c-.129 0-.258 0-.258-.129h-.129c-.129 0-.259 0-.388-.129h-2.583c-.13 0-1.034-.129-1.292-.258-.388-.13-.646-.258-1.034-.387-.258-.13-.387-.13-.646-.258-.388-.259-.775-.517-1.034-.775a1.779 1.779 0 00-.517-.387c-.258-.259-.517-.646-.775-1.034-.13-.129-.13-.387-.258-.516 0-.13-.13-.13-.13-.258-.129-.258-.129-.646-.258-.904v-.904c.775-.774.904-1.419 1.162-2.194zm-36.44-6.973v-.13h.13c.13.13 0 .13-.13.13zm30.883 4.132c.387.129.905.258 1.292.516.388.13.776.258 1.293.387.775.258 1.68.646 2.455.904-1.034 1.55-1.422 3.228-1.034 5.036 0 .258.129.517.258.904 0 .129.13.258.13.387-.517 0-.905-.129-1.163-.387-.13-.13-.259-.13-.388-.258-.258-.13-.388-.387-.517-.646l-.129-.129c-.13-.258-.258-.517-.258-.904-.647-1.937-1.293-3.745-1.939-5.81zm-52.333 8.78l-.13.13s.13 0 .13-.13zM9.303 55.523c-.26 3.486-1.034 6.973-2.456 10.33 0 .129-.129.129-.258.258-.646-.387-1.292-.775-2.068-1.162-.258-.13-.387-.387-.517-.646v-.129c.517-5.553 1.422-11.105 3.748-16.4 0 0 .129 0 .129-.128l.258.258c.13.129.259.258.259.387.129.13.129.258.258.387.129.259.129.646.258.904v.258c.13 1.033.13 2.067.258 3.1.259.904.26 1.679.13 2.583zm3.876 13.3a11.408 11.408 0 003.618-4.649c.129-.258.258-.646.387-.904.13-.258.258-.646.258-.904 1.68.646 3.231.646 4.91.646 1.81.13 2.327.775 2.456 2.97v.517c-2.455.258-4.652 1.162-6.978 1.55-1.55.257-2.971.774-4.651.774zm18.607 10.976l-.13.129c-.128-.13-.257-.258-.387-.258-5.427-2.97-10.724-5.94-16.152-8.91 3.489 0 6.978.129 10.338.775 1.163.258 1.809 1.162 2.455 2.066 1.292 1.937 2.197 4.003 3.747 5.81.13.13.258.259.258.388-.258-.13-.258 0-.129 0zm42.512-18.853c-1.809-.387-3.488-.516-5.298-.904-1.292-.258-2.455-.387-3.489 1.162 0-2.324.259-3.874.905-5.165.13.904.13 1.55.258 2.454 3.36.516 6.849 1.033 10.338 1.55-.775.774-1.55 1.032-2.714.903zm38.249 4.132c-.129 5.165-4.135 9.168-9.046 9.297-4.78.13-8.916-3.745-9.303-8.651.517-.258 1.034 0 1.55 0 .647 0 .905.258 1.163.775 1.68 4.39 6.203 6.327 10.209 4.39 4.005-1.808 5.556-6.586 3.359-10.589-.129-.129-.129-.258-.258-.516 1.292.129 2.326 2.84 2.326 5.294zm-18.22-2.324c.775-.13 1.421.129 2.197.258v1.42c-.776-.129-1.55-.258-2.197-.258-.258-.645 0-1.033 0-1.42zm20.675-13.43c-2.197 2.583-4.394 5.165-6.461 7.877-.776.904-1.551 1.162-2.584 1.033-8.012-1.033-16.023-1.937-24.035-2.97.646-1.291 1.68-2.195 2.584-3.357 2.068-2.583 4.264-5.036 6.332-7.619.517-.645.904-.904 1.68-.645 1.421.387 2.842.645 4.393.903-1.68 3.1-3.36 6.07-4.91 9.04l.129.129c2.326-2.583 4.652-5.166 6.978-7.877.516-.517.904-.775 1.55-.517 1.938.517 4.006.904 6.073 1.291a545.1 545.1 0 00-4.393 7.877l.258.259c2.068-2.325 4.006-4.52 6.073-6.844.517-.517.905-.775 1.68-.646 1.68.387 3.489.775 5.298 1.162-.128.388-.516.646-.645.904zm1.163 1.808c2.842 0 5.039 2.195 5.427 5.036-1.551-1.937-3.101-3.874-5.427-5.036zm2.326 23.114c-.647-1.55-1.034-3.1-1.68-4.39 1.292.129 1.55 1.162 1.809 2.066.129.646.129 1.42-.129 2.324zm2.455-5.294c-.647-2.195-1.809-3.874-3.489-5.552 2.972 1.033 4.393 3.228 3.489 5.552zm1.421-6.715c-1.55-2.066-3.23-4.132-5.556-5.423.517-.258.904-.13 1.292 0 2.067.646 4.393 3.228 4.393 5.165-.129.13-.129.13-.129.258z" fill="#fff"/><path d="M93.294 30.343c.13-.129 0-.129 0 0 .13-.129.13-.129 0 0 0-.129 0-.129 0 0zm-57.112 5.553c.13-.13.13-.13.259-.13-.13 0-.259 0-.259.13zm80.504 33.831c.128 0 .128 0 0 0zM206.49 54.49v10.46h-8.011l8.011-10.46zm64.35 0v10.46h-8.011l8.011-10.46zM141.756 26.162c-.249.454-.734.681-1.453.681-.734 0-1.225-.227-1.475-.681-.249-.455-.374-1.115-.374-1.98v-8.207c0-.85.125-1.496.374-1.936.25-.454.741-.682 1.475-.682.734 0 1.219.22 1.453.66.25.44.375 1.093.375 1.958v8.207c0 .865-.125 1.525-.375 1.98zm38.432-7.987c-.382.426-1.035.638-1.96.638h-1.034v-5.412h1.211c.895 0 1.511.213 1.849.638.352.426.528 1.108.528 2.046 0 .968-.198 1.665-.594 2.09zm14.985 7.987c-.25.454-.734.681-1.454.681-.733 0-1.225-.227-1.475-.681-.249-.455-.374-1.115-.374-1.98v-8.207c0-.85.125-1.496.374-1.936.25-.454.742-.682 1.475-.682.734 0 1.219.22 1.454.66.249.44.374 1.093.374 1.958v8.207c0 .865-.125 1.525-.374 1.98zm13.024-10.825l1.211 7.48h-2.422l1.211-7.48zm15.531 11.023c-.322.249-.843.373-1.563.373h-1.012V13.49h.968c.705 0 1.219.103 1.541.308.338.19.558.492.661.902.103.41.154 1.012.154 1.804v6.82c0 .88-.044 1.548-.132 2.003-.088.44-.294.784-.617 1.034zm37.5-.198c-.25.454-.734.681-1.453.681-.734 0-1.226-.227-1.475-.681-.25-.455-.374-1.115-.374-1.98v-8.207c0-.85.124-1.496.374-1.936.249-.454.741-.682 1.475-.682.734 0 1.218.22 1.453.66.249.44.374 1.093.374 1.958v8.207c0 .865-.125 1.525-.374 1.98zm26.74 0c-.249.454-.734.681-1.453.681-.734 0-1.225-.227-1.475-.681-.249-.455-.374-1.115-.374-1.98v-8.207c0-.85.125-1.496.374-1.936.25-.454.741-.682 1.475-.682.734 0 1.218.22 1.453.66.25.44.374 1.093.374 1.958v8.207c0 .865-.124 1.525-.374 1.98zm52.211-10.825l1.211 7.48h-2.422l1.211-7.48z" fill="#fff"/><path fill-rule="evenodd" clip-rule="evenodd" d="M92.908 3.485c51.429 0 283.015.076 283.015.076l-72.65 82.825H114.045c10.585-.253 21.517-17.792 13.493-33.574.13 0 2.972-1.162 2.972-1.162l1.68-6.586-3.618-1.291 2.584-2.583-.646-2.324c.517-.387 1.034-.775 1.421-1.162.33-.22.473-.44.667-.738l.109-.166c.516-.904.646-1.937.387-2.84-.258-.905-.904-1.55-1.809-2.067-.353-.211-1.014-.5-1.562-.74-.456-.198-.834-.363-.893-.422l-.387-1.162c.053-.054.129-.107.218-.17.125-.088.277-.196.428-.347.259-.129.517-.387.646-.516 0-.13.129-.258.258-.387.259-.259.517-.646.647-.904.034-.07.069-.13.101-.186.088-.151.157-.271.157-.46.258-.775.129-1.55-.129-2.324a2.826 2.826 0 00-.646-1.033l-.13-.13c-.516-.516-1.033-.904-1.938-1.29-.454-.273-.971-.481-1.552-.715-.247-.1-.505-.204-.774-.319l-1.163-.387-.646-.258-.517-.13c-.771-.256-1.414-.513-2.057-.77l-.01-.004-.388-.13v-.774c0-1.55-.517-2.841-1.421-4.003-.177-.265-.414-.47-.629-.655a5.026 5.026 0 01-.276-.249c-.646-.517-1.292-.904-2.067-1.291l-.13-.13s-.129-.128-.258-.128c-.08-.08-.259-.16-.506-.27-.152-.069-.33-.149-.528-.247-4.781-2.324-9.82-4.132-14.86-5.682a455.502 455.502 0 01-4.047-1.226c-1.81-.554-3.163-.969-3.318-.969zm120.818 68.568h3.748V64.95h-3.748V44.419h-7.236l-15.248 20.015v7.619h15.248v6.198h7.236v-6.198zm22.872-1.55l4.005 7.748h9.821l-8.012-12.655 7.366-11.492h-9.175l-4.005 6.714-3.489-6.714h-9.95l7.495 11.492-7.883 12.655h9.046l4.781-7.748zm41.608 1.55h3.747V64.95h-3.747V44.419h-7.237l-15.247 20.015v7.619h15.247v6.198h7.237v-6.198zM136.325 35.767v2.583h204.163v-2.583H136.325zm.016-8c.792.983 2.113 1.475 3.962 1.475 1.82 0 3.127-.5 3.919-1.497.807-.997 1.211-2.442 1.211-4.334v-6.688c0-1.892-.396-3.322-1.189-4.29-.792-.968-2.106-1.452-3.941-1.452-1.849 0-3.17.484-3.962 1.452-.793.968-1.189 2.398-1.189 4.29v6.688c0 1.907.396 3.36 1.189 4.356zm21.475-16.588h-7.331V29h3.236v-8.118h3.347v-2.266h-3.347v-5.192h4.095V11.18zm11.736 0h-7.331V29h3.236v-8.118h3.347v-2.266h-3.347v-5.192h4.095V11.18zm8.698 0h-4.293V29h3.237v-8.162h1.541L180.87 29h3.259l-2.488-8.779c.807-.322 1.372-.836 1.695-1.54.338-.718.506-1.642.506-2.772 0-1.73-.462-2.948-1.387-3.652-.924-.718-2.326-1.078-4.205-1.078zm11.507 16.588c.792.983 2.113 1.475 3.962 1.475 1.82 0 3.127-.5 3.919-1.497.807-.997 1.211-2.442 1.211-4.334v-6.688c0-1.892-.396-3.322-1.189-4.29-.792-.968-2.106-1.452-3.941-1.452-1.849 0-3.17.484-3.962 1.452-.793.968-1.189 2.398-1.189 4.29v6.688c0 1.907.396 3.36 1.189 4.356zm20.158-16.588h-3.479L202.87 29h3.06l.726-4.113h3.104l.705 4.114h3.016l-3.566-17.82zm12.206 0h-4.205V29h4.337c1.38 0 2.473-.205 3.281-.615a3.608 3.608 0 001.717-1.893c.352-.835.528-1.928.528-3.278v-6.49c0-1.32-.176-2.376-.528-3.168-.338-.806-.917-1.4-1.739-1.782-.822-.396-1.952-.594-3.391-.594zm21.924 0h-3.237V29h3.237v-6.754l.792-1.342L247.809 29h3.236l-3.764-9.879 3.412-7.942h-3.104l-3.544 7.832V11.18zm11.767 16.588c.793.983 2.114 1.475 3.963 1.475 1.82 0 3.126-.5 3.919-1.497.807-.997 1.21-2.442 1.21-4.334v-6.688c0-1.892-.396-3.322-1.188-4.29-.793-.968-2.107-1.452-3.941-1.452-1.849 0-3.17.484-3.963 1.452-.793.968-1.189 2.398-1.189 4.29v6.688c0 1.907.396 3.36 1.189 4.356zm17.381-16.588h-3.236V29h7.573v-2.221h-4.337V11.178zm9.359 16.588c.793.983 2.114 1.475 3.963 1.475 1.82 0 3.126-.5 3.919-1.497.807-.997 1.211-2.442 1.211-4.334v-6.688c0-1.892-.396-3.322-1.189-4.29s-2.106-1.452-3.941-1.452c-1.849 0-3.17.484-3.963 1.452-.792.968-1.188 2.398-1.188 4.29v6.688c0 1.907.396 3.36 1.188 4.356zm17.777-16.588h-3.368L296.653 29h2.444l.242-12.43L301.915 29h1.959l2.532-12.386L306.67 29h2.422l-.331-17.82h-3.28l-2.62 12.341-2.532-12.342zm17.34 0h-3.214V29h3.214V11.18zm4.28 0l3.61 11.022V29h3.105v-6.8l3.566-11.022h-2.972l-2.069 7.062-2.202-7.062h-3.038zm19.947 0h-3.478L334.851 29h3.06l.727-4.113h3.104l.705 4.114h3.016l-3.567-17.82z" fill="#fff"/><path d="M113.583 86.386h.462a9.616 9.616 0 01-.462 0z" fill="#fff"/></svg>