<svg width="89" height="50" viewBox="0 0 89 50" fill="none" xmlns="http://www.w3.org/2000/svg">
<rect x="44.375" width="11.25" height="50" fill="white"/>
<path fill-rule="evenodd" clip-rule="evenodd" d="M20.3125 45C31.5308 45 40.625 35.9058 40.625 24.6875C40.625 13.4692 31.5308 4.375 20.3125 4.375C9.09424 4.375 0 13.4692 0 24.6875C0 35.9058 9.09424 45 20.3125 45ZM20.625 32.5C24.7672 32.5 28.125 29.1421 28.125 25C28.125 20.8579 24.7672 17.5 20.625 17.5C16.4828 17.5 13.125 20.8579 13.125 25C13.125 29.1421 16.4828 32.5 20.625 32.5Z" fill="white"/>
<mask id="mask0" mask-type="alpha" maskUnits="userSpaceOnUse" x="55" y="8" width="34" height="33">
<path d="M88.0095 16.3328L79.8016 8.125L71.8172 16.1094L63.8328 8.125L55.625 16.3328L63.6094 24.3172L55.625 32.3016L63.8328 40.5095L71.8172 32.525L79.8017 40.5095L88.0095 32.3016L80.0251 24.3172L88.0095 16.3328Z" fill="white"/>
</mask>
<g mask="url(#mask0)">
<rect x="60" y="12.5" width="23.75" height="23.75" fill="white"/>
</g>
</svg>
