<svg width="89" height="50" fill="none" xmlns="http://www.w3.org/2000/svg"><path fill="#fff" d="M44.375 0h11.25v50h-11.25z"/><path fill-rule="evenodd" clip-rule="evenodd" d="M20.313 45c11.218 0 20.312-9.094 20.312-20.313 0-11.218-9.094-20.312-20.313-20.312C9.095 4.375 0 13.469 0 24.688 0 35.906 9.094 45 20.313 45zm.312-12.5a7.5 7.5 0 100-15 7.5 7.5 0 000 15z" fill="#fff"/><mask id="a" maskUnits="userSpaceOnUse" x="55" y="8" width="34" height="33"><path d="M88.01 16.333l-8.208-8.208-7.985 7.984-7.984-7.984-8.208 8.208 7.984 7.984-7.984 7.985 8.208 8.208 7.984-7.985 7.985 7.985 8.207-8.208-7.984-7.985 7.984-7.984z" fill="#fff"/></mask><g mask="url(#a)"><path fill="#fff" d="M60 12.5h23.75v23.75H60z"/></g></svg>