<svg width="181" height="50" fill="none" xmlns="http://www.w3.org/2000/svg"><path fill-rule="evenodd" clip-rule="evenodd" d="M180.794 39.5V19.9c-.559-.353-.092-.042-.53-1.496-.176-.585-.265-.936-.501-1.46-2.427-5.407-8.464-6.377-13.277-4.649-2.106.756-3.26 1.638-4.335 3.356-.909-.392-1.389-3.828-6.97-3.993-5.783-.171-6.662 2.914-7.565 3.363l-.063-2.781-7.302-.06c-.799.04-.818.076-.85.867-.01.266.011.635.013.916.022 4.128-.206 25.044.127 25.422l.432.174c.078.014.339.023.428.024 1.237.026 6.594.165 6.945-.144.413-.363.188-11.99.188-12.367 0-2.622-.379-7.984 4.173-8.203 4.671-.224 4.296 4.41 4.296 8.354 0 1.46-.35 11.96.213 12.207l.331.127c.002 0 7.2.171 7.502-.154.39-.639.128-10.645.128-12.331 0-2.69-.424-8.04 4.257-8.203 4.882-.17 4.247 5.131 4.247 8.203 0 4.068-.11 8.292.009 12.34 1.687.322 6.13.089 8.104.089zM0 0h39.867v39.867H0V0zm9.096 9.06H30.92v21.833H9.096V9.06zm84.918 5.856c-.103.357-.122.609-.459.805-.528-.486-.237-2.438-.235-3.345l-7.877-.001c-.041 3.036-.276 26.135.124 26.907.862.338 6.255.106 7.64.08.345-1.163-.05-14.135.153-14.699.128-.356.1-.25.312-.453.176-1.83 1.49-3.466 3.082-4.188 2.875-1.303 3.349-.597 6.646-.761l-.076-7.51c-2.14-.233-3.949-.167-5.762.477-1.183.42-3.261 1.65-3.547 2.688zm19.024 12.005c-.598-3.862 2.241-7.5 6.041-8.169 5.314-.934 10.954 5.643 6.51 11.566-3.733 4.976-11.595 2.773-12.551-3.397zm-8.075 0c.326 2.272.51 4.159 1.674 5.9 1.888 2.825 2.919 3.925 5.621 5.537 4.36 2.6 10.439 2.66 14.891.44 5.347-2.668 8.278-7.546 8.109-13.993-.148-5.636-4.598-10.578-9.757-12.504-2.114-.79-3.742-.974-6.482-.89-5.488.167-11.193 4.046-13.108 9.02-.585 1.52-1.237 4.472-.948 6.49zm-40.66-7.583c8.727-2.317 12.807 10.659 3.324 13.255-5.234 1.432-11.318-5.007-7.382-10.508.989-1.382 2.261-2.27 4.057-2.747zm-4.768 17.25c.447.122.863.84 1.266 1.234 1.142 1.117 3.502 2.055 5.175 2.168 4.441.299 8.178-.8 11.04-3.694.686-.695 1.59-1.733 2.112-2.712.56-1.049 1.202-2.152 1.534-3.405 1.1-4.15.685-8.41-1.445-11.81-1.583-2.529-2.18-2.957-4.186-4.425-3.759-2.751-10.2-3.219-14.102-.206-.312.24-.363.315-.577.61-.375.515-.152.41-.754.59-.012-2.497.358-2.743-.984-2.763l-3.028.015c-1.33 0-2.706-.032-4.03.01-.347 1.656-.085 7.374-.085 9.448 0 3.786-.172 26.602.052 28.302 1.727.098 3.668.017 5.42.018 3.17 0 2.594.526 2.591-2.706-.003-3.488-.124-7.216.001-10.674z" fill="#fff"/></svg>