<svg width="50" height="53" fill="none" xmlns="http://www.w3.org/2000/svg"><path d="M44.361 5.134C43.054 3.93 37.761.09 25.962.037c0 0-13.912-.834-20.688 5.386C1.504 9.192.176 14.72.032 21.569c-.144 6.847-.32 19.678 12.048 23.158h.01l-.01 5.314s-.083 2.152 1.338 2.584c1.71.536 2.719-1.102 4.356-2.862.896-.968 2.132-2.39 3.069-3.47 8.464.71 14.961-.917 15.703-1.154 1.71-.556 11.378-1.792 12.944-14.622 1.626-13.242-.783-21.603-5.129-25.383zm1.432 24.415c-1.329 10.71-9.165 11.389-10.606 11.852-.618.196-6.333 1.617-13.51 1.153 0 0-5.355 6.457-7.023 8.135-.546.546-1.143.495-1.133-.587 0-.71.041-8.824.041-8.824-.01 0-.01 0 0 0-10.482-2.904-9.864-13.83-9.751-19.544.113-5.715 1.195-10.4 4.387-13.552 5.735-5.2 17.546-4.427 17.546-4.427 9.978.04 14.756 3.048 15.868 4.057 3.676 3.15 5.55 10.688 4.18 21.737zM31.48 21.23c.04.886-1.288.947-1.329.062-.113-2.266-1.174-3.367-3.357-3.491-.885-.052-.803-1.38.072-1.328 2.873.154 4.47 1.802 4.614 4.757zm2.09 1.164c.103-4.367-2.626-7.785-7.805-8.166-.876-.062-.783-1.39.092-1.329 5.973.433 9.155 4.542 9.041 9.525-.01.886-1.349.845-1.328-.03zm4.84 1.38c.01.885-1.329.895-1.329.01-.062-8.393-5.653-12.965-12.439-13.016-.875-.01-.875-1.328 0-1.328 7.59.051 13.696 5.292 13.768 14.333zm-1.164 10.1v.022c-1.112 1.956-3.192 4.118-5.334 3.428l-.02-.03c-2.173-.608-7.29-3.244-10.524-5.818a26.916 26.916 0 01-4.366-4.366 33.417 33.417 0 01-3.172-4.799c-2.193-3.964-2.677-5.735-2.677-5.735-.69-2.142 1.462-4.222 3.429-5.334h.02c.948-.495 1.854-.33 2.462.401 0 0 1.276 1.524 1.822 2.276.515.7 1.205 1.823 1.565 2.45.628 1.123.237 2.266-.38 2.74l-1.236.988c-.629.505-.546 1.442-.546 1.442s1.833 6.93 8.68 8.68c0 0 .938.083 1.442-.545l.989-1.236c.473-.618 1.616-1.01 2.739-.381 1.513.855 3.439 2.183 4.716 3.388.72.587.885 1.483.391 2.43z" fill="#fff"/></svg>