<svg width="50" height="50" fill="none" xmlns="http://www.w3.org/2000/svg"><path fill-rule="evenodd" clip-rule="evenodd" d="M.355 18.205C.12 19.761.12 21.619.12 25.335c0 1.194 0 2.196.008 3.058.092 1.815.251 3.887.525 5.644a20.95 20.95 0 001.305 3.894 6.278 6.278 0 003.507 2.423C9.365 41.406 25 41.406 25 41.406s15.635 0 19.535-1.052c2.15-.578 3.845-2.212 4.42-4.378C50 32.052 50 23.863 50 23.863s0-3.12-.246-6.431a20.962 20.962 0 00-4.937-10.047 6.136 6.136 0 00-.282-.084C40.635 6.25 25 6.25 25 6.25s-15.524 0-19.493 1.04A20.965 20.965 0 00.355 18.205zm32.6 5.659l-13.069-7.435v14.869l13.069-7.434z" fill="#fff"/></svg>